<?xml version="1.0" encoding="UTF-8"?>
<svg width="205px" height="24px" viewBox="0 0 205 24" version="1.1" xmlns="http://www.w3.org/2000/svg" xmlns:xlink="http://www.w3.org/1999/xlink">
    <title>IMG/Logo/txt_logo</title>
    <g id="IMG/Logo/txt_logo" stroke="none" stroke-width="1" fill="none" fill-rule="evenodd">
        <g id="Samsung-Account" transform="translate(0, 0.9)" fill="#010101" fill-rule="nonzero">
            <path d="M6.27,17.094 C4.818,17.094 3.59333333,16.819 2.596,16.269 C1.59866667,15.719 0.733333333,15.0333333 0,14.212 L2.728,12.056 C3.13866667,12.76 3.64466667,13.299 4.246,13.673 C4.84733333,14.047 5.51466667,14.234 6.248,14.234 C7.04,14.234 7.645,14.014 8.063,13.574 C8.481,13.134 8.69,12.6353333 8.69,12.078 C8.69,11.7406667 8.59466667,11.4546667 8.404,11.22 C8.21333333,10.9853333 7.964,10.7836667 7.656,10.615 C7.348,10.4463333 6.99233333,10.296 6.589,10.164 C6.18566667,10.032 5.77133333,9.9 5.346,9.768 C4.80333333,9.592 4.26066667,9.40133333 3.718,9.196 C3.17533333,8.99066667 2.68766667,8.71566667 2.255,8.371 C1.82233333,8.02633333 1.47033333,7.601 1.199,7.095 C0.927666667,6.589 0.792,5.95466667 0.792,5.192 C0.792,4.54666667 0.924,3.94533333 1.188,3.388 C1.452,2.83066667 1.82233333,2.343 2.299,1.925 C2.77566667,1.507 3.34033333,1.18066667 3.993,0.946 C4.64566667,0.711333333 5.35333333,0.594 6.116,0.594 C6.76133333,0.594 7.34433333,0.652666667 7.865,0.77 C8.38566667,0.887333333 8.86233333,1.04866667 9.295,1.254 C9.72766667,1.45933333 10.1236667,1.705 10.483,1.991 C10.8423333,2.277 11.1833333,2.58866667 11.506,2.926 L9.042,4.796 C8.35266667,3.76933333 7.38466667,3.256 6.138,3.256 C5.40466667,3.256 4.84733333,3.432 4.466,3.784 C4.08466667,4.136 3.894,4.56866667 3.894,5.082 C3.894,5.40466667 3.982,5.676 4.158,5.896 C4.334,6.116 4.57233333,6.31033333 4.873,6.479 C5.17366667,6.64766667 5.522,6.798 5.918,6.93 C6.314,7.062 6.732,7.20133333 7.172,7.348 C7.71466667,7.524 8.261,7.72566667 8.811,7.953 C9.361,8.18033333 9.85966667,8.47366667 10.307,8.833 C10.7543333,9.19233333 11.1173333,9.63233333 11.396,10.153 C11.6746667,10.6736667 11.814,11.3226667 11.814,12.1 C11.814,12.7306667 11.6893333,13.3466667 11.44,13.948 C11.1906667,14.5493333 10.8313333,15.081 10.362,15.543 C9.89266667,16.005 9.31333333,16.379 8.624,16.665 C7.93466667,16.951 7.15,17.094 6.27,17.094 Z" id="Path"></path>
            <path d="M19.8025766,17.138 C19.0252432,17.138 18.2589099,16.9876667 17.5035766,16.687 C16.7482432,16.3863333 16.0699099,15.95 15.4685766,15.378 C14.8672432,14.806 14.3832432,14.1056667 14.0165766,13.277 C13.6499099,12.4483333 13.4665766,11.506 13.4665766,10.45 C13.4665766,9.37933333 13.6462432,8.42966667 14.0055766,7.601 C14.3649099,6.77233333 14.8415766,6.072 15.4355766,5.5 C16.0295766,4.928 16.7115766,4.49166667 17.4815766,4.191 C18.2515766,3.89033333 19.0399099,3.74 19.8465766,3.74 C20.6972432,3.74 21.4819099,3.90133333 22.2005766,4.224 C22.9192432,4.54666667 23.5132432,4.98666667 23.9825766,5.544 L23.9825766,4.004 L26.9525766,4.004 L26.9525766,16.874 L23.9825766,16.874 L23.9825766,15.202 C23.5132432,15.8033333 22.9119099,16.2763333 22.1785766,16.621 C21.4452432,16.9656667 20.6532432,17.138 19.8025766,17.138 Z M20.2865766,14.41 C20.8439099,14.41 21.3572432,14.3073333 21.8265766,14.102 C22.2959099,13.8966667 22.6992432,13.6106667 23.0365766,13.244 C23.3739099,12.8773333 23.6415766,12.452 23.8395766,11.968 C24.0375766,11.484 24.1365766,10.9633333 24.1365766,10.406 C24.1365766,9.86333333 24.0375766,9.35 23.8395766,8.866 C23.6415766,8.382 23.3739099,7.96033333 23.0365766,7.601 C22.6992432,7.24166667 22.2959099,6.95933333 21.8265766,6.754 C21.3572432,6.54866667 20.8439099,6.446 20.2865766,6.446 C19.7439099,6.446 19.2342432,6.54866667 18.7575766,6.754 C18.2809099,6.95933333 17.8665766,7.238 17.5145766,7.59 C17.1625766,7.942 16.8875766,8.36 16.6895766,8.844 C16.4915766,9.328 16.3925766,9.84866667 16.3925766,10.406 C16.3925766,10.9633333 16.4915766,11.4876667 16.6895766,11.979 C16.8875766,12.4703333 17.1625766,12.8956667 17.5145766,13.255 C17.8665766,13.6143333 18.2809099,13.8966667 18.7575766,14.102 C19.2342432,14.3073333 19.7439099,14.41 20.2865766,14.41 Z" id="Shape"></path>
            <path d="M29.1331532,4.004 L32.0811532,4.004 L32.0811532,5.5 C32.4918198,4.95733333 33.0088198,4.52833333 33.6321532,4.213 C34.2554865,3.89766667 34.9631532,3.74 35.7551532,3.74 C36.7671532,3.74 37.6214865,3.93433333 38.3181532,4.323 C39.0148198,4.71166667 39.5538198,5.258 39.9351532,5.962 C40.3751532,5.28733333 40.9581532,4.74833333 41.6841532,4.345 C42.4101532,3.94166667 43.2351532,3.74 44.1591532,3.74 C45.8898198,3.74 47.1951532,4.22033333 48.0751532,5.181 C48.9551532,6.14166667 49.3951532,7.458 49.3951532,9.13 L49.3951532,16.874 L46.3591532,16.874 L46.3591532,9.372 C46.3591532,8.43333333 46.1244865,7.689 45.6551532,7.139 C45.1858198,6.589 44.4891532,6.314 43.5651532,6.314 C42.7584865,6.314 42.0838198,6.59266667 41.5411532,7.15 C40.9984865,7.70733333 40.7271532,8.55066667 40.7271532,9.68 L40.7271532,16.874 L37.7131532,16.874 L37.7131532,9.284 C37.7131532,8.36 37.4858198,7.634 37.0311532,7.106 C36.5764865,6.578 35.9018198,6.314 35.0071532,6.314 C34.1711532,6.314 33.4781532,6.6 32.9281532,7.172 C32.3781532,7.744 32.1031532,8.602 32.1031532,9.746 L32.1031532,16.874 L29.1331532,16.874 L29.1331532,4.004 Z" id="Path"></path>
            <path d="M56.3057297,17.138 C54.8830631,17.138 53.7023964,16.8703333 52.7637297,16.335 C51.8250631,15.7996667 51.0990631,15.026 50.5857297,14.014 L53.3357297,12.694 C53.6437297,13.2953333 54.0617297,13.7573333 54.5897297,14.08 C55.1177297,14.4026667 55.7337297,14.564 56.4377297,14.564 C57.1710631,14.564 57.7210631,14.41 58.0877297,14.102 C58.4543964,13.794 58.6377297,13.4273333 58.6377297,13.002 C58.6377297,12.7673333 58.5533964,12.5766667 58.3847297,12.43 C58.2160631,12.2833333 57.9960631,12.155 57.7247297,12.045 C57.4533964,11.935 57.1343964,11.8433333 56.7677297,11.77 C56.4010631,11.6966667 56.0197297,11.616 55.6237297,11.528 C55.0663964,11.4106667 54.5200631,11.2713333 53.9847297,11.11 C53.4493964,10.9486667 52.9690631,10.725 52.5437297,10.439 C52.1183964,10.153 51.7737297,9.78633333 51.5097297,9.339 C51.2457297,8.89166667 51.1137297,8.33066667 51.1137297,7.656 C51.1137297,7.14266667 51.2347297,6.64766667 51.4767297,6.171 C51.7187297,5.69433333 52.0597297,5.27266667 52.4997297,4.906 C52.9397297,4.53933333 53.4713964,4.24966667 54.0947297,4.037 C54.7180631,3.82433333 55.4110631,3.718 56.1737297,3.718 C57.4643964,3.718 58.5387297,3.95633333 59.3967297,4.433 C60.2547297,4.90966667 60.9330631,5.55866667 61.4317297,6.38 L58.9017297,7.656 C58.6377297,7.20133333 58.2710631,6.842 57.8017297,6.578 C57.3323964,6.314 56.7897297,6.182 56.1737297,6.182 C55.4697297,6.182 54.9490631,6.32133333 54.6117297,6.6 C54.2743964,6.87866667 54.1057297,7.20133333 54.1057297,7.568 C54.1057297,7.99333333 54.3550631,8.29766667 54.8537297,8.481 C55.3523964,8.66433333 56.0857297,8.85866667 57.0537297,9.064 C57.5817297,9.16666667 58.1133964,9.30233333 58.6487297,9.471 C59.1840631,9.63966667 59.6717297,9.867 60.1117297,10.153 C60.5517297,10.439 60.9073964,10.8056667 61.1787297,11.253 C61.4500631,11.7003333 61.5857297,12.2613333 61.5857297,12.936 C61.5857297,13.3906667 61.4830631,13.8636667 61.2777297,14.355 C61.0723964,14.8463333 60.7533964,15.301 60.3207297,15.719 C59.8880631,16.137 59.3417297,16.478 58.6817297,16.742 C58.0217297,17.006 57.2297297,17.138 56.3057297,17.138 Z" id="Path"></path>
            <path d="M74.7223063,16.874 L71.7743063,16.874 L71.7743063,15.4 C71.3636396,15.9426667 70.8503063,16.368 70.2343063,16.676 C69.6183063,16.984 68.8996396,17.138 68.0783063,17.138 C66.552973,17.138 65.3466396,16.654 64.4593063,15.686 C63.571973,14.718 63.1283063,13.3686667 63.1283063,11.638 L63.1283063,4.004 L66.1423063,4.004 L66.1423063,11.33 C66.1423063,12.3273333 66.365973,13.1156667 66.8133063,13.695 C67.2606396,14.2743333 67.9536396,14.564 68.8923063,14.564 C69.7136396,14.564 70.3956396,14.2633333 70.9383063,13.662 C71.480973,13.0606667 71.7523063,12.1953333 71.7523063,11.066 L71.7523063,4.004 L74.7223063,4.004 L74.7223063,16.874 Z" id="Path"></path>
            <path d="M76.9248829,4.004 L79.8728829,4.004 L79.8728829,5.588 C80.2982162,5.03066667 80.8372162,4.58333333 81.4898829,4.246 C82.1425495,3.90866667 82.8868829,3.74 83.7228829,3.74 C85.3215495,3.74 86.5718829,4.224 87.4738829,5.192 C88.3758829,6.16 88.8268829,7.50933333 88.8268829,9.24 L88.8268829,16.874 L85.8128829,16.874 L85.8128829,9.548 C85.8128829,8.55066667 85.5708829,7.76233333 85.0868829,7.183 C84.6028829,6.60366667 83.8768829,6.314 82.9088829,6.314 C82.0582162,6.314 81.3432162,6.61466667 80.7638829,7.216 C80.1845495,7.81733333 79.8948829,8.68266667 79.8948829,9.812 L79.8948829,16.874 L76.9248829,16.874 L76.9248829,4.004 Z" id="Path"></path>
            <path d="M101.039459,15.158 C100.570126,15.774 99.9687928,16.258 99.2354595,16.61 C98.5021261,16.962 97.7027928,17.138 96.8374595,17.138 C96.0601261,17.138 95.2937928,16.9876667 94.5384595,16.687 C93.7831261,16.3863333 93.1047928,15.95 92.5034595,15.378 C91.9021261,14.806 91.4181261,14.1056667 91.0514595,13.277 C90.6847928,12.4483333 90.5014595,11.506 90.5014595,10.45 C90.5014595,9.37933333 90.6811261,8.42966667 91.0404595,7.601 C91.3997928,6.77233333 91.8764595,6.072 92.4704595,5.5 C93.0644595,4.928 93.7464595,4.49166667 94.5164595,4.191 C95.2864595,3.89033333 96.0747928,3.74 96.8814595,3.74 C97.7321261,3.74 98.5167928,3.91233333 99.2354595,4.257 C99.9541261,4.60166667 100.548126,5.06733333 101.017459,5.654 L101.017459,4.004 L103.987459,4.004 L103.987459,16.544 C103.987459,17.4533333 103.844459,18.304 103.558459,19.096 C103.272459,19.888 102.850793,20.581 102.293459,21.175 C101.736126,21.769 101.043126,22.2383333 100.214459,22.583 C99.3857928,22.9276667 98.4287928,23.1 97.3434595,23.1 C96.5074595,23.1 95.7484595,23.0083333 95.0664595,22.825 C94.3844595,22.6416667 93.7721261,22.385 93.2294595,22.055 C92.6867928,21.725 92.2101261,21.3363333 91.7994595,20.889 C91.3887928,20.4416667 91.0367928,19.9466667 90.7434595,19.404 L93.3834595,17.798 C93.8527928,18.6633333 94.3807928,19.3086667 94.9674595,19.734 C95.5541261,20.1593333 96.3607928,20.372 97.3874595,20.372 C97.9447928,20.372 98.4507928,20.2693333 98.9054595,20.064 C99.3601261,19.8586667 99.7451261,19.5873333 100.060459,19.25 C100.375793,18.9126667 100.617793,18.5166667 100.786459,18.062 C100.955126,17.6073333 101.039459,17.138 101.039459,16.654 L101.039459,15.158 Z M97.3214595,14.41 C97.8787928,14.41 98.3921261,14.3073333 98.8614595,14.102 C99.3307928,13.8966667 99.7341261,13.6106667 100.071459,13.244 C100.408793,12.8773333 100.676459,12.452 100.874459,11.968 C101.072459,11.484 101.171459,10.9633333 101.171459,10.406 C101.171459,9.86333333 101.072459,9.35 100.874459,8.866 C100.676459,8.382 100.408793,7.96033333 100.071459,7.601 C99.7341261,7.24166667 99.3307928,6.95933333 98.8614595,6.754 C98.3921261,6.54866667 97.8787928,6.446 97.3214595,6.446 C96.7787928,6.446 96.2691261,6.54866667 95.7924595,6.754 C95.3157928,6.95933333 94.9014595,7.238 94.5494595,7.59 C94.1974595,7.942 93.9224595,8.36 93.7244595,8.844 C93.5264595,9.328 93.4274595,9.84866667 93.4274595,10.406 C93.4274595,10.9633333 93.5264595,11.4876667 93.7244595,11.979 C93.9224595,12.4703333 94.1974595,12.8956667 94.5494595,13.255 C94.9014595,13.6143333 95.3157928,13.8966667 95.7924595,14.102 C96.2691261,14.3073333 96.7787928,14.41 97.3214595,14.41 Z" id="Shape"></path>
            <path d="M117.910613,0.814 L120.924613,0.814 L126.644613,16.874 L123.520613,16.874 L122.530613,14.014 L116.304613,14.014 L115.314613,16.874 L112.190613,16.874 L117.910613,0.814 Z M117.316613,11.154 L121.540613,11.154 L119.428613,5.06 L117.316613,11.154 Z" id="Shape"></path>
            <path d="M133.709189,17.138 C132.770522,17.138 131.894189,16.962 131.080189,16.61 C130.266189,16.258 129.558522,15.7813333 128.957189,15.18 C128.355856,14.5786667 127.882856,13.871 127.538189,13.057 C127.193522,12.243 127.021189,11.374 127.021189,10.45 C127.021189,9.51133333 127.193522,8.635 127.538189,7.821 C127.882856,7.007 128.355856,6.29566667 128.957189,5.687 C129.558522,5.07833333 130.266189,4.60166667 131.080189,4.257 C131.894189,3.91233333 132.770522,3.74 133.709189,3.74 C134.427856,3.74 135.106189,3.839 135.744189,4.037 C136.382189,4.235 136.965189,4.51 137.493189,4.862 C138.021189,5.214 138.483189,5.632 138.879189,6.116 C139.275189,6.6 139.597856,7.13533333 139.847189,7.722 L137.185189,8.844 C136.891856,8.14 136.440856,7.579 135.832189,7.161 C135.223522,6.743 134.523189,6.534 133.731189,6.534 C133.188522,6.534 132.686189,6.63666667 132.224189,6.842 C131.762189,7.04733333 131.358856,7.326 131.014189,7.678 C130.669522,8.03 130.401856,8.44433333 130.211189,8.921 C130.020522,9.39766667 129.925189,9.90733333 129.925189,10.45 C129.925189,10.978 130.020522,11.4803333 130.211189,11.957 C130.401856,12.4336667 130.669522,12.848 131.014189,13.2 C131.358856,13.552 131.765856,13.8306667 132.235189,14.036 C132.704522,14.2413333 133.210522,14.344 133.753189,14.344 C134.589189,14.344 135.304189,14.1203333 135.898189,13.673 C136.492189,13.2256667 136.935856,12.65 137.229189,11.946 L139.891189,13.09 C139.641856,13.6766667 139.319189,14.2193333 138.923189,14.718 C138.527189,15.2166667 138.068856,15.6456667 137.548189,16.005 C137.027522,16.3643333 136.444522,16.643 135.799189,16.841 C135.153856,17.039 134.457189,17.138 133.709189,17.138 Z" id="Path"></path>
            <path d="M147.549766,17.138 C146.611099,17.138 145.734766,16.962 144.920766,16.61 C144.106766,16.258 143.399099,15.7813333 142.797766,15.18 C142.196433,14.5786667 141.723433,13.871 141.378766,13.057 C141.034099,12.243 140.861766,11.374 140.861766,10.45 C140.861766,9.51133333 141.034099,8.635 141.378766,7.821 C141.723433,7.007 142.196433,6.29566667 142.797766,5.687 C143.399099,5.07833333 144.106766,4.60166667 144.920766,4.257 C145.734766,3.91233333 146.611099,3.74 147.549766,3.74 C148.268433,3.74 148.946766,3.839 149.584766,4.037 C150.222766,4.235 150.805766,4.51 151.333766,4.862 C151.861766,5.214 152.323766,5.632 152.719766,6.116 C153.115766,6.6 153.438433,7.13533333 153.687766,7.722 L151.025766,8.844 C150.732433,8.14 150.281433,7.579 149.672766,7.161 C149.064099,6.743 148.363766,6.534 147.571766,6.534 C147.029099,6.534 146.526766,6.63666667 146.064766,6.842 C145.602766,7.04733333 145.199433,7.326 144.854766,7.678 C144.510099,8.03 144.242433,8.44433333 144.051766,8.921 C143.861099,9.39766667 143.765766,9.90733333 143.765766,10.45 C143.765766,10.978 143.861099,11.4803333 144.051766,11.957 C144.242433,12.4336667 144.510099,12.848 144.854766,13.2 C145.199433,13.552 145.606433,13.8306667 146.075766,14.036 C146.545099,14.2413333 147.051099,14.344 147.593766,14.344 C148.429766,14.344 149.144766,14.1203333 149.738766,13.673 C150.332766,13.2256667 150.776433,12.65 151.069766,11.946 L153.731766,13.09 C153.482433,13.6766667 153.159766,14.2193333 152.763766,14.718 C152.367766,15.2166667 151.909433,15.6456667 151.388766,16.005 C150.868099,16.3643333 150.285099,16.643 149.639766,16.841 C148.994433,17.039 148.297766,17.138 147.549766,17.138 Z" id="Path"></path>
            <path d="M161.368342,17.138 C160.444342,17.138 159.575342,16.9656667 158.761342,16.621 C157.947342,16.2763333 157.239675,15.7996667 156.638342,15.191 C156.037009,14.5823333 155.564009,13.871 155.219342,13.057 C154.874675,12.243 154.702342,11.374 154.702342,10.45 C154.702342,9.51133333 154.874675,8.635 155.219342,7.821 C155.564009,7.007 156.037009,6.29566667 156.638342,5.687 C157.239675,5.07833333 157.947342,4.60166667 158.761342,4.257 C159.575342,3.91233333 160.444342,3.74 161.368342,3.74 C162.292342,3.74 163.157675,3.91233333 163.964342,4.257 C164.771009,4.60166667 165.478675,5.07833333 166.087342,5.687 C166.696009,6.29566667 167.172675,7.007 167.517342,7.821 C167.862009,8.635 168.034342,9.51133333 168.034342,10.45 C168.034342,11.374 167.862009,12.243 167.517342,13.057 C167.172675,13.871 166.696009,14.5823333 166.087342,15.191 C165.478675,15.7996667 164.771009,16.2763333 163.964342,16.621 C163.157675,16.9656667 162.292342,17.138 161.368342,17.138 Z M161.368342,14.344 C161.896342,14.344 162.387675,14.2413333 162.842342,14.036 C163.297009,13.8306667 163.693009,13.552 164.030342,13.2 C164.367675,12.848 164.631675,12.4336667 164.822342,11.957 C165.013009,11.4803333 165.108342,10.978 165.108342,10.45 C165.108342,9.90733333 165.013009,9.39766667 164.822342,8.921 C164.631675,8.44433333 164.367675,8.03 164.030342,7.678 C163.693009,7.326 163.297009,7.04733333 162.842342,6.842 C162.387675,6.63666667 161.896342,6.534 161.368342,6.534 C160.840342,6.534 160.345342,6.63666667 159.883342,6.842 C159.421342,7.04733333 159.025342,7.326 158.695342,7.678 C158.365342,8.03 158.105009,8.44433333 157.914342,8.921 C157.723675,9.39766667 157.628342,9.90733333 157.628342,10.45 C157.628342,10.978 157.723675,11.4803333 157.914342,11.957 C158.105009,12.4336667 158.365342,12.848 158.695342,13.2 C159.025342,13.552 159.421342,13.8306667 159.883342,14.036 C160.345342,14.2413333 160.840342,14.344 161.368342,14.344 Z" id="Shape"></path>
            <path d="M181.302919,16.874 L178.354919,16.874 L178.354919,15.4 C177.944252,15.9426667 177.430919,16.368 176.814919,16.676 C176.198919,16.984 175.480252,17.138 174.658919,17.138 C173.133586,17.138 171.927252,16.654 171.039919,15.686 C170.152586,14.718 169.708919,13.3686667 169.708919,11.638 L169.708919,4.004 L172.722919,4.004 L172.722919,11.33 C172.722919,12.3273333 172.946586,13.1156667 173.393919,13.695 C173.841252,14.2743333 174.534252,14.564 175.472919,14.564 C176.294252,14.564 176.976252,14.2633333 177.518919,13.662 C178.061586,13.0606667 178.332919,12.1953333 178.332919,11.066 L178.332919,4.004 L181.302919,4.004 L181.302919,16.874 Z" id="Path"></path>
            <path d="M183.505495,4.004 L186.453495,4.004 L186.453495,5.588 C186.878828,5.03066667 187.417828,4.58333333 188.070495,4.246 C188.723162,3.90866667 189.467495,3.74 190.303495,3.74 C191.902162,3.74 193.152495,4.224 194.054495,5.192 C194.956495,6.16 195.407495,7.50933333 195.407495,9.24 L195.407495,16.874 L192.393495,16.874 L192.393495,9.548 C192.393495,8.55066667 192.151495,7.76233333 191.667495,7.183 C191.183495,6.60366667 190.457495,6.314 189.489495,6.314 C188.638828,6.314 187.923828,6.61466667 187.344495,7.216 C186.765162,7.81733333 186.475495,8.68266667 186.475495,9.812 L186.475495,16.874 L183.505495,16.874 L183.505495,4.004 Z" id="Path"></path>
            <path d="M196.488072,4.004 L198.688072,4.004 L198.688072,2.046 L201.680072,0 L201.680072,4.004 L204.298072,4.004 L204.298072,6.666 L201.680072,6.666 L201.680072,11.484 C201.680072,12.0413333 201.709405,12.4923333 201.768072,12.837 C201.826739,13.1816667 201.947739,13.4456667 202.131072,13.629 C202.314405,13.8123333 202.578405,13.9333333 202.923072,13.992 C203.267739,14.0506667 203.726072,14.08 204.298072,14.08 L204.298072,16.874 L203.880072,16.874 C202.882739,16.874 202.050405,16.786 201.383072,16.61 C200.715739,16.434 200.184072,16.137 199.788072,15.719 C199.392072,15.301 199.109739,14.751 198.941072,14.069 C198.772405,13.387 198.688072,12.5326667 198.688072,11.506 L198.688072,6.666 L196.488072,6.666 L196.488072,4.004 Z" id="Path"></path>
        </g>
    </g>
</svg>