<svg xmlns="http://www.w3.org/2000/svg" xmlns:xlink="http://www.w3.org/1999/xlink" width="312" height="180" viewBox="0 0 312 180">
  <defs>
    <style>
      .cls-1 {
        fill: rgba(255,131,7,0.5);
      }

      .cls-2 {
        clip-path: url(#clip-path);
      }

      .cls-3 {
        fill: #e8f1fd;
      }

      .cls-3, .cls-5 {
        stroke: #555;
        stroke-miterlimit: 10;
        stroke-width: 2.5px;
      }

      .cls-4 {
        fill: #555;
      }

      .cls-4, .cls-6, .cls-7 {
        stroke: rgba(0,0,0,0);
      }

      .cls-5 {
        fill: #ff9e72;
      }

      .cls-6 {
        fill: #fff;
      }

      .cls-7 {
        fill: rgba(0,0,0,0);
      }
    </style>
    <clipPath id="clip-path">
      <rect id="masking" class="cls-1" width="312" height="180" transform="translate(-23 144)"/>
    </clipPath>
  </defs>
  <g id="img" transform="translate(23 -144)">
    <g id="mask" class="cls-2">
      <g id="phone" transform="translate(90.895 145.791)">
        <path id="line" class="cls-3" d="M85.655,144.964a6.027,6.027,0,0,1-6.048,5.954H8.534A6.027,6.027,0,0,1,2.5,144.949V8.454A6.026,6.026,0,0,1,8.548,2.5H79.622a6.026,6.026,0,0,1,6.034,5.969Z" transform="translate(-2.5 -2.5)"/>
        <path id="rnd" class="cls-4" d="M47.307,9.263a4.226,4.226,0,1,0,4.226,4.226,4.226,4.226,0,0,0-4.226-4.226" transform="translate(-5.927 -1.79)"/>
      </g>
      <g id="icon" transform="translate(88.386 143.802)">
        <path id="line-2" data-name="line" class="cls-5" d="M43.862,58.4s-5.838,51.769,36.532,69.824l.491.213.492-.213C123.745,110.174,117.907,58.4,117.907,58.4L80.884,46.425Z" transform="translate(-3.461 -4.747)"/>
        <path id="shape" class="cls-6" d="M56.792,68.592l11.776-3.633v5.514c.208-.046.369-.07.522-.117.931-.283,1.856-.581,2.791-.848a.47.47,0,0,0,.4-.531l0-.023c-.023-1.566,0-3.14-.023-4.7,0-.312.075-.461.394-.558,3.025-.913,6.034-1.846,9.051-2.762a1.079,1.079,0,0,1,.587,0c3.03.921,6.055,1.86,9.087,2.778a.423.423,0,0,1,.367.473l0,.019c-.014,1.583,0,3.167-.014,4.751,0,.31.071.469.393.561,1.082.308,2.162.656,3.284.992V64.993c.174.038.306.054.428.094l10.975,3.374c.241.073.4.127.4.451-.015,3.059-.01,6.116-.01,9.175,0,.046-.011.092-.025.2l-1.424-.434c-.734-.226-1.461-.474-2.2-.67-.332-.087-.4-.239-.4-.549.016-1.691,0-3.382,0-5.123l-3.671-1.138v5.552L87.7,72.3c0-1.7-.015-3.358.01-5.018a.6.6,0,0,0-.492-.7l-.036-.005c-1.611-.467-3.207-.984-4.822-1.458a1.347,1.347,0,0,0-.723,0c-1.624.479-3.237.994-4.862,1.476a.581.581,0,0,0-.515.642l0,.024c.027,1.552,0,3.1.016,4.657a.446.446,0,0,1-.371.511l-.016,0q-5.438,1.649-10.874,3.333c-.132.041-.266.069-.459.118V70.359c-1.23.38-2.4.735-3.555,1.111-.083.027-.167.208-.167.318a54.271,54.271,0,0,0,.675,11.323c.022.1.052.209.092.366.248-.07.483-.131.715-.2q9.645-2.955,19.3-5.889a1.4,1.4,0,0,1,.766,0q11.724,3.566,23.446,7.146c.385.118.45.261.359.656a46.931,46.931,0,0,1-4.389,11.642c-.065.121-.136.239-.217.386-1.393-.424-2.771-.839-4.148-1.259L82.414,91.363a1.237,1.237,0,0,0-.68-.04q-7.542,2.28-15.078,4.595c-.074.023-.145.056-.251.1a2.171,2.171,0,0,0,.15.328c.9,1.344,1.814,2.682,2.706,4.033.183.276.361.3.666.2Q75.68,98.8,81.444,97.064a1.757,1.757,0,0,1,.949-.04q7.9,2.388,15.8,4.815c.134.041.265.087.458.151-1.045,1.255-2.033,2.5-3.08,3.7A52.113,52.113,0,0,1,83.5,115.938c-.464.284-.938.553-1.408.829H81.9a1.589,1.589,0,0,0-.218-.164,39.951,39.951,0,0,1-6-4.024c-.843-.657-1.663-1.367-2.539-2.1,1.52-.466,2.94-.911,4.368-1.328a.718.718,0,0,1,.489.164c1.212.862,2.419,1.727,3.613,2.609a.59.59,0,0,0,.79-.014,51.447,51.447,0,0,0,8.132-6.7c.376-.38.733-.775,1.13-1.195-.148-.056-.22-.088-.293-.11-2.989-.919-5.966-1.83-8.956-2.729a1.553,1.553,0,0,0-.852,0q-6.554,1.969-13.094,3.99a.5.5,0,0,1-.641-.164A50.889,50.889,0,0,1,62.146,96.7c-.54-1.009-1.056-2.033-1.589-3.064.166-.062.282-.111.4-.147q10.348-3.158,20.7-6.305a1.324,1.324,0,0,1,.724.015q7.316,2.219,14.632,4.458c.822.251,1.645.492,2.558.773l1.919-5.03c-.2-.074-.3-.115-.407-.146q-9.38-2.863-18.765-5.715a1.408,1.408,0,0,0-.766.031q-9.406,2.86-18.806,5.744-2.016.617-4.031,1.224a1.045,1.045,0,0,1-.086-.164,48.462,48.462,0,0,1-1.653-8.907c-.055-.612-.124-1.223-.183-1.833Z" transform="translate(-4.575 -6.142)"/>
        <rect id="Rectangle_183" data-name="Rectangle 183" class="cls-7" width="118" height="152" transform="translate(-0.386 0.198)"/>
      </g>
    </g>
  </g>
</svg>
