<svg xmlns="http://www.w3.org/2000/svg" width="20" height="20" viewBox="0 0 20 20">
	<def>
		<g id="twitter">
			<path d="M6.3,1.6H0l7.6,9.7l-7.1,8.1h3.3L9,12.8l4.6,5.6H20l-7.9-10l0,0l6.8-7.7h-3.3l-4.9,6.5L6.3,1.6z M3.6,3.6h1.9 l10.9,13.8h-1.9L3.6,3.6z"/>
		</g>
		<g id="facebook">
			<path d="M14.58 6.527h-3.12V4.481c0-.768.51-.947.868-.947h2.201V.157L11.498.145c-3.365 0-4.131 2.519-4.131 4.13v2.252H5.42v3.48h1.946v9.848h4.093v-9.848h2.762l.357-3.48z"/>
		</g>
		<g id="instagram">
			<path d="M10 4.832c-2.805 0-5.128 2.283-5.128 5.128S7.155 15.088 10 15.088s5.128-2.323 5.128-5.128S12.805 4.832 10 4.832zm0 8.413c-1.803 0-3.285-1.482-3.285-3.285S8.197 6.675 10 6.675s3.285 1.482 3.285 3.285-1.482 3.285-3.285 3.285z"/>
			<circle r="1.162" cy="4.711" cx="15.329"/>
			<path d="M18.334 1.706C17.292.625 15.81.064 14.127.064H5.873c-3.485 0-5.81 2.324-5.81 5.81v8.213c0 1.723.562 3.205 1.683 4.287 1.082 1.041 2.525 1.562 4.167 1.562h8.174c1.723 0 3.165-.56 4.207-1.562 1.081-1.042 1.642-2.524 1.642-4.247V5.873c0-1.683-.56-3.125-1.602-4.167zm-.16 12.42c0 1.243-.441 2.244-1.163 2.926s-1.722 1.041-2.924 1.041H5.913c-1.202 0-2.203-.36-2.924-1.041-.722-.722-1.082-1.723-1.082-2.965V5.873c0-1.202.36-2.203 1.082-2.925.68-.68 1.722-1.041 2.924-1.041h8.254c1.202 0 2.203.36 2.925 1.082.68.72 1.081 1.722 1.081 2.884v8.254z"/>
		</g>
		<g id="linkedin">
			<path d="M4.4,19.9H0.1V5.7h4.3V19.9z M20,19.9h-4.3v-7.6c0-2-0.7-3-2.1-3c-1.1,0-1.8,0.6-2.2,1.7c0,1.8,0,8.9,0,8.9 H7.2c0,0,0.1-12.8,0-14.2h3.4l0.3,2.8h0.1c0.9-1.4,2.3-2.4,4.2-2.4c1.5,0,2.6,0.4,3.5,1.4c0.9,1,1.4,2.4,1.4,4.3V19.9z"/>
			<ellipse cx="2.2" cy="2.2" rx="2.2" ry="2.1"/>
		</g>
		<g id="google">
			<path d="M19.6,8.1c-3.1,0-6.3,0-9.4,0c0,1.3,0,2.6,0,3.9c1.8,0,3.6,0,5.4,0c-0.2,1.2-1,2.4-2,3.1c-0.7,0.4-1.4,0.7-2.2,0.9 c-0.8,0.1-1.6,0.2-2.4,0c-0.8-0.2-1.6-0.5-2.2-1c-1.1-0.7-1.9-1.8-2.3-3.1c-0.4-1.3-0.4-2.6,0-3.9C4.8,7.2,5.3,6.4,6,5.7 C6.8,4.9,7.9,4.3,9,4c1-0.2,2-0.2,2.9,0.1c0.8,0.2,1.5,0.7,2.2,1.3c0.6-0.6,1.2-1.2,1.8-1.8c0.3-0.3,0.7-0.6,1-1 c-0.9-0.9-2-1.6-3.2-2c-2.1-0.8-4.6-0.8-6.7-0.1c-2.4,0.8-4.5,2.7-5.7,5C0.9,6.3,0.6,7.2,0.4,8c-0.4,2.2-0.1,4.5,0.9,6.5 c0.7,1.3,1.6,2.4,2.7,3.3c1.1,0.9,2.3,1.5,3.6,1.8c1.7,0.4,3.4,0.4,5.1,0.1c1.5-0.3,2.9-1.1,4.1-2.1c1.2-1.1,2.1-2.6,2.5-4.2 C19.9,11.7,19.9,9.9,19.6,8.1z"/>
		</g>
		<g id="tiktok">
			<path d="M18.7,8.2c-1.7,0-3.4-0.5-4.8-1.5v7c0,3.5-2.8,6.4-6.4,6.3s-6.4-2.8-6.3-6.4s2.8-6.4,6.4-6.3c0.3,0,0.6,0,0.9,0.1v3.5 c-1.5-0.5-3.2,0.4-3.7,1.9s0.4,3.2,1.9,3.7c1.5,0.5,3.2-0.4,3.7-1.9c0.1-0.3,0.1-0.6,0.1-0.9V0H14c0,0.3,0,0.6,0.1,0.9l0,0 c0.2,1.3,1,2.4,2.1,3.1c0.8,0.5,1.7,0.8,2.6,0.8V8.2z"/>
		</g>
		<g id="youtube">
			<path d="M16.7,3H3.3C1.5,3,0,4.6,0,6.7v6.6c0,2,1.5,3.7,3.3,3.7h13.5c1.8,0,3.3-1.6,3.3-3.7V6.7C20,4.7,18.5,3,16.7,3z M8,13V6.4l5.7,3.3L8,13z"/>
		</g>
		<g id="add">
			<path d="m10,19.83862c-0.67921,0 -1.22983,-0.55059 -1.22983,-1.22983l0,-17.21758c0,-0.67922 0.55061,-1.22983 1.22983,-1.22983c0.67921,0 1.22983,0.55061 1.22983,1.22983l0,17.21758c0,0.67923 -0.55062,1.22983 -1.22983,1.22983z"/>
   			<path d="m0.16138,10c0,-0.67921 0.55061,-1.22983 1.22983,-1.22983l17.21758,0c0.67923,0 1.22983,0.55062 1.22983,1.22983c0,0.67921 -0.55059,1.22983 -1.22983,1.22983l-17.21758,0c-0.67922,0 -1.22983,-0.55062 -1.22983,-1.22983z"/>
		</g>
		<g id="add-circle">
			<path d="M10,0C4.5,0,0,4.5,0,10c0,5.5,4.5,10,10,10s10-4.5,10-10C20,4.5,15.5,0,10,0z M14,11h-3v3c0,0.6-0.4,1-1,1
	s-1-0.4-1-1v-3H6c-0.6,0-1-0.4-1-1s0.4-1,1-1h3V6c0-0.6,0.4-1,1-1s1,0.4,1,1v3h3c0.6,0,1,0.4,1,1S14.6,11,14,11z"/>
		</g>
		<g id="close">
			<path d="M19.5 17.3 12.2 10l7.3-7.3c.6-.6.6-1.6 0-2.2-.6-.6-1.6-.6-2.2 0L10 7.8 2.7.5C2.1-.1 1.1-.1.5.5c-.6.6-.6 1.6 0 2.2L7.8 10 .5 17.3c-.6.6-.6 1.6 0 2.2.6.6 1.6.6 2.2 0l7.3-7.3 7.3 7.3c.6.6 1.6.6 2.2 0 .7-.6.7-1.6 0-2.2z"/>
		</g>
		<g id="stats">
   			<path d="m0.05909,0.06353l1.9488,0.62117l0,16.13734c0,0.64225 0.52333,1.16564 1.1656,1.16564l16.76742,0l-0.62115,1.9488l-16.14627,0c-1.71708,0 -3.1144,-1.39738 -3.1144,-3.11444l0,-16.75851zm15.09406,0.77927l2.10397,0l0,16.24576l-2.10397,0l0,-16.24576zm-3.87159,3.3313l2.10397,0l0,12.91446l-2.10397,0l0,-12.91446zm-3.87336,3.3364l2.10391,0l0,9.57614l-2.10391,0l0,-9.57614zm-3.87161,3.33484l2.10394,0l0,6.2413l-2.10394,0l0,-6.2413z" />
		</g>
		<g id="bookmark">
			<path d="m1.32699,3.21905c0,-1.72821 1.40637,-3.13458 3.13458,-3.13458l11.07508,0c1.72814,0 3.13443,1.40625 3.13636,3.13249l0,13.6466c0,1.39402 -0.63011,2.44243 -1.80788,2.88111c-0.59256,0.21876 -1.25626,0.22609 -1.8716,0.01902c-0.2956,-0.09924 -0.91113,-0.40797 -1.08046,-0.49438l-0.00724,-0.00367l-0.09297,-0.05493l-2.41444,-1.63798l1.74668,-1.18328l1.70913,1.1602c0.14983,0.0752 0.31549,0.1562 0.45788,0.2232c0.15408,0.0726 0.26355,0.12038 0.30255,0.13313l0.00193,0.00068c0.26172,0.08814 0.4686,0.03591 0.5634,0.00087c0.13593,-0.05088 0.25708,-0.12009 0.34986,-0.25341c0.0948,-0.13622 0.18159,-0.37052 0.18159,-0.79229l0,-13.64636c0,-0.64733 -0.52749,-1.1748 -1.17478,-1.1748l-11.07508,0c-0.64733,0 -1.1748,0.52747 -1.1748,1.1748l0,13.64636c0,0.42178 0.08681,0.65608 0.18159,0.79229c0.09279,0.13332 0.21389,0.20254 0.34987,0.25341c0.0947,0.03495 0.30127,0.08717 0.56255,-0.00058c0.094,-0.03253 0.45108,-0.2007 0.76326,-0.35739l4.85266,-3.29101l0.56318,0.37863l1.18791,0.80427l-1.6666,1.12902l-0.00183,0l-3.97798,2.69334l-0.01439,0.00734c-0.16937,0.0864 -0.78519,0.39523 -1.08071,0.49438c-0.29996,0.10069 -0.60999,0.15002 -0.91638,0.15002c-0.32566,0 -0.64928,-0.05522 -0.95463,-0.16894c-1.17836,-0.43684 -1.80826,-1.48757 -1.80826,-2.8812l0,-13.64634z"/>
		</g>
		<g id="link">
			<path d="m0.04213,3.19559c0,-1.72494 1.40636,-3.12776 3.13345,-3.12776l1.21915,0l-0.62536,1.95799l-0.5938,0c-0.64663,0 -1.17261,0.5257 -1.17261,1.16977l0,13.60883c0,0.64405 0.52599,1.16974 1.17261,1.16974l13.63582,0c0.64666,0 1.17264,-0.52569 1.17264,-1.16974l0,-0.75998l1.96084,-0.62136l0,1.38135c0,1.72499 -1.40636,3.12776 -3.13348,3.12776l-13.63582,0c-1.72709,0 -3.13345,-1.40277 -3.13345,-3.12776l0,-13.60883zm10.34479,-3.05926l7.50513,0c1.13852,0 2.06582,0.92472 2.06582,2.06233l0,7.68613l-1.96084,0.62136l0,-7.02766l-11.33851,11.31604l-1.38745,-1.38474l11.33802,-11.31548l-6.84751,0l0.62534,-1.95799z"/>
		</g>
		<g id="share">
			<path d="M16.3,0c-2,0-3.7,1.6-3.7,3.7s1.6,3.7,3.7,3.7S20,5.7,20,3.7S18.4,0,16.3,0z M16.3,5.4c-0.9,0-1.7-0.8-1.7-1.7 c0-0.9,0.8-1.7,1.7-1.7C17.3,2,18,2.8,18,3.7C18,4.6,17.3,5.4,16.3,5.4z"/>
			<path d="M16.3,12.7c-1.1,0-2,0.5-2.7,1.2l-5.2-2.6l-0.3-0.2l-0.1,0.4L7.9,13l0,0.2L8,13.2L8.1,13v0L8,13.2l4.7,2.4 c0,0.2-0.1,0.5-0.1,0.7c0,2,1.6,3.7,3.7,3.7s3.7-1.6,3.7-3.7C20,14.3,18.3,12.7,16.3,12.7z M16.3,18c-0.9,0-1.7-0.8-1.7-1.7 c0-0.9,0.8-1.7,1.7-1.7c0.9,0,1.7,0.8,1.7,1.7C18,17.3,17.3,18,16.3,18z"/>
			<path d="M0,10c0,2,1.6,3.7,3.7,3.7S7.3,12,7.3,10c0-0.2,0-0.5-0.1-0.7L12,6.9l-0.1-0.2v0L12,6.9l0.2-0.1l0-0.2l-0.2-1.5 l-0.1-0.4L11.5,5L6.4,7.5C5.7,6.8,4.7,6.3,3.7,6.3C1.6,6.3,0,8,0,10z M2,10c0-0.9,0.8-1.7,1.7-1.7c0.9,0,1.7,0.8,1.7,1.7 c0,0.9-0.8,1.7-1.7,1.7C2.7,11.7,2,11,2,10z"/>
		</g>
		<g id="lupe">
			<path d="M19.6,18.9l-5-5c1.3-1.5,2.1-3.4,2.1-5.5c0-4.6-3.7-8.2-8.2-8.2S0.2,3.9,0.2,8.5s3.7,8.2,8.2,8.2 c2.1,0,4-0.8,5.5-2.1l5,5c0.2,0.2,0.5,0.2,0.7,0C19.8,19.4,19.8,19.1,19.6,18.9z M1.2,8.5c0-4,3.2-7.2,7.2-7.2s7.2,3.2,7.2,7.2 c0,2-0.8,3.8-2.1,5.1c0,0,0,0,0,0s0,0,0,0c-1.3,1.3-3.1,2.1-5.1,2.1C4.5,15.7,1.2,12.5,1.2,8.5z"/>
		</g>
		<g id="copy">
			<path d="M12.8,15.9L12.6,16v0.2v1.4v0c0,0.3-0.2,0.5-0.5,0.5H2.5c-0.3,0-0.5-0.2-0.5-0.5V7.9c0-0.3,0.2-0.5,0.5-0.5 h1.4H4l0.1-0.2l0.5-1.5l0.1-0.3H4.3H2.5c-1.4,0-2.5,1.1-2.5,2.5v9.6c0,1.4,1.1,2.5,2.5,2.5h9.6c1.4,0,2.5-1.1,2.5-2.5v-1.8v-0.4 l-0.3,0.1L12.8,15.9z"/>
			<path d="M16.9-0.1H8.8C7-0.1,5.6,1.4,5.6,3.1v8.1c0,1.7,1.4,3.2,3.2,3.2h8.1c1.7,0,3.2-1.4,3.2-3.2V3.1 C20.1,1.4,18.6-0.1,16.9-0.1z M18.1,11.2c0,0.7-0.5,1.2-1.2,1.2H8.8c-0.7,0-1.2-0.5-1.2-1.2V3.1c0-0.7,0.5-1.2,1.2-1.2h8.1	c0.7,0,1.2,0.5,1.2,1.2V11.2z"/>
		</g>
		<g id="arrow">
			<path d="M17.8,9H0v1.9h17.8l-5.6,6.7l1.5,0.9l5.8-6.9c0.8-0.9,0.8-2.4,0-3.3l-5.6-6.7l-1.5,0.9L17.8,9z"/>
		</g>
		<g id="arrow-dd">
			<path d="M1.6,4.1c-0.4,0-0.9,0.2-1.2,0.5c-0.7,0.7-0.7,1.7,0,2.4l8.4,8.4c0.7,0.7,1.7,0.7,2.4,0L19.5,7 c0.7-0.7,0.7-1.7,0-2.4c-0.7-0.7-1.7-0.7-2.4,0L10,11.8L2.8,4.6C2.5,4.3,2.1,4.1,1.6,4.1z"/>
		</g>
		<g id="upload">
			<path d="M16.3,8.2C15.9,5.3,13.2,3,10,3C7.4,3,5.2,4.5,4.2,6.6C1.8,7.2,0,9.2,0,11.7c0,3,2.5,5.3,5.5,5.3 c0.6,0,1-0.4,1-1c0-0.6-0.4-1-1-1c-2,0-3.5-1.5-3.5-3.3c0-1.6,1.3-3,3-3.2c0.4,0,0.7-0.3,0.8-0.6C6.4,6.2,8,5,10,5 c2.5,0,4.4,1.9,4.4,4.1c0,0.6,0.4,1,1,1c1.5,0,2.6,1.1,2.6,2.4c0,1.3-1.1,2.4-2.6,2.4c-0.6,0-1,0.4-1,1c0,0.6,0.4,1,1,1 c2.5,0,4.6-1.9,4.6-4.4C20,10.4,18.4,8.7,16.3,8.2z"/>
			<path d="M10.7,8.8C10.7,8.8,10.7,8.8,10.7,8.8c-0.1-0.1-0.2-0.2-0.3-0.2c-0.2-0.1-0.5-0.1-0.8,0 c-0.1,0-0.2,0.1-0.3,0.2c0,0,0,0,0,0l-2,2c-0.4,0.4-0.4,1,0,1.4s1,0.4,1.4,0L9,11.9v3.6c0,0.6,0.4,1,1,1c0.6,0,1-0.4,1-1v-3.6 l0.3,0.3c0.4,0.4,1,0.4,1.4,0s0.4-1,0-1.4L10.7,8.8z"/>
		</g>
		<g id="page">
			<path d="M17,20H3c-1.7,0-3-1.3-3-3V3c0-1.7,1.3-3,3-3h14c1.7,0,3,1.3,3,3v14C20,18.7,18.7,20,17,20z M3,2 C2.4,2,2,2.4,2,3v14c0,0.6,0.4,1,1,1h14c0.6,0,1-0.4,1-1V3c0-0.6-0.4-1-1-1H3z"/>
			<path d="M3.5,4.2v2h13l-0.6-2H3.5z"/>
			<path d="M3.5,13.8v2h13l-0.6-2H3.5z"/>
			<path d="M3.5,9v2h9l-0.6-2H3.5z"/>
		</g>
		<g id="pages">
			<path d="M5.6,0H17c1.7,0,3,1.3,3,3v9.4c0,1.5-1.1,2.8-2.6,3V17c0,1.7-1.3,3-3,3H3c-1.7,0-3-1.3-3-3V7.6 c0-1.5,1.1-2.8,2.6-3V3C2.6,1.4,4,0,5.6,0z M4.6,4.6h9.8c1.7,0,3,1.3,3,3v5.7c0.4-0.2,0.6-0.5,0.6-0.9V3c0-0.6-0.4-1-1-1H5.6 c-0.6,0-1,0.4-1,1V4.6z M3,6.6c-0.6,0-1,0.4-1,1V17c0,0.6,0.4,1,1,1h11.4c0.6,0,1-0.4,1-1V7.6c0-0.6-0.4-1-1-1H3z M13.3,9.2H4.1v2 h9.2V9.2z M4.1,13.4h9.2v2H4.1V13.4z"/>
		</g>
		<g id="check-ok">
			<path d="M13.7,7.3c0.4,0.4,0.4,1,0,1.4l-4,4c-0.4,0.4-1,0.4-1.4,0l-2-2c-0.4-0.4-0.4-1,0-1.4c0.4-0.4,1-0.4,1.4,0 L9,10.6l3.3-3.3C12.7,6.9,13.3,6.9,13.7,7.3z"/>
			<path d="M10,2c-4.4,0-8,3.6-8,8c0,4.4,3.6,8,8,8c4.4,0,8-3.6,8-8C18,5.6,14.4,2,10,2z M0,10C0,4.5,4.5,0,10,0 c5.5,0,10,4.5,10,10c0,5.5-4.5,10-10,10C4.5,20,0,15.5,0,10z"/>
		</g>
		<g id="check-cancel">
			<path d="M10,0C4.5,0,0,4.5,0,10c0,5.5,4.5,10,10,10c5.5,0,10-4.5,10-10C20,4.5,15.5,0,10,0z M10,18c-4.4,0-8-3.6-8-8 c0-4.4,3.6-8,8-8s8,3.6,8,8C18,14.4,14.4,18,10,18z"/>
			<path d="M13.5,6.5c-0.3-0.3-0.7-0.3-1,0L10,9L7.5,6.5c-0.3-0.3-0.7-0.3-1,0c-0.3,0.3-0.3,0.7,0,1L9,10l-2.5,2.5 c-0.3,0.3-0.3,0.7,0,1c0.3,0.3,0.7,0.3,1,0L10,11l2.5,2.5c0.3,0.3,0.7,0.3,1,0s0.3-0.7,0-1L11,10l2.5-2.5 C13.8,7.2,13.8,6.7,13.5,6.5z"/>
		</g>
		<g id="warning">
			<path d="M11,15c0,0.6-0.4,1-1,1c-0.5,0-1-0.4-1-1s0.4-1,1-1C10.5,14,11,14.4,11,15z"/>
			<path d="M10,4c0.5,0,1,0.4,1,1v6c0,0.6-0.4,1-1,1c-0.5,0-1-0.4-1-1V5C9,4.4,9.5,4,10,4z"/>
			<path d="M10,2c-4.4,0-8,3.6-8,8s3.6,8,8,8c4.4,0,8-3.6,8-8S14.4,2,10,2z M0.1,10C0.1,4.5,4.5,0,10,0 c5.5,0,9.9,4.5,9.9,10S15.5,20,10,20C4.5,20,0.1,15.5,0.1,10z"/>
		</g>
		<g id="remove">
			<path d="M12.4,0H7.6v2h4.8V0z M20,3.1H0v2h20V3.1z M8,6.9H6v9.3h2V6.9z M12,6.9h2v9.3h-2V6.9z M16.8,18 c0.6,0,1.2-0.5,1.2-1.2V7.1l2,0.6v9.1c0,1.7-1.4,3.2-3.2,3.2H3.2C1.4,20,0,18.6,0,16.8V7.8l2-0.6v9.7C2,17.5,2.5,18,3.2,18H16.8z"/>
		</g>
		<g id="lock">
			<path d="M8,6.1c0,0.6-0.4,1-1,1h0c-0.6,0-1-0.4-1-1V4c0-2.2,1.8-4,4-4h0.1c2.2,0,4,1.8,4,4v2.1c0,0.6-0.4,1-1,1 c-0.6,0-1-0.4-1-1V4c0-1.1-0.9-2-2-2H9.9C8.9,2,8,2.9,8,4V6.1z M18,7.1v9.7c0,0.6-0.5,1.2-1.2,1.2H3.2C2.5,18,2,17.5,2,16.8V7.1 L0,7.7v9.1C0,18.6,1.4,20,3.2,20h13.7c1.7,0,3.2-1.4,3.2-3.2V7.7L18,7.1z M11.9,9.1L10,11L8.1,9.1l-1.4,1.4l1.9,1.9l-1.9,1.9 l1.4,1.4l1.9-1.9l1.9,1.9l1.4-1.4l-1.9-1.9l1.9-1.9L11.9,9.1z"/>
		</g>
		<g id="unlock">
			<path d="M14.1,5.1v-1c0-2.2-1.8-4.1-4.1-4.1H9.9C7.7,0,5.9,1.8,5.9,4.1v1v2H18v9.8c0,0.6-0.5,1.2-1.2,1.2H3.2 C2.5,18,2,17.5,2,16.8V7.1L0,7.7v9.1C0,18.6,1.4,20,3.2,20h13.7c1.7,0,3.2-1.4,3.2-3.2V5.1H14.1z M12.1,5.1H7.9v-1 C7.9,2.9,8.8,2,9.9,2h0.1c1.1,0,2.1,0.9,2.1,2.1V5.1z"/>
			<path d="M10.9,10.3V9.7c0-0.6-0.4-1-1-1c-0.6,0-1,0.4-1,1v0.6C7.8,10.7,7,11.7,7,13c0,1.6,1.3,2.8,2.8,2.8 c1.6,0,2.8-1.3,2.8-2.8C12.7,11.7,12,10.7,10.9,10.3z M9.9,13.8C9.4,13.8,9,13.4,9,13s0.3-0.8,0.8-0.8c0,0,0,0,0,0c0,0,0,0,0,0 c0,0,0,0,0,0c0,0,0,0,0,0c0.4,0,0.8,0.4,0.8,0.8C10.7,13.4,10.3,13.8,9.9,13.8z"/>
		</g>
		<g id="transfer">
			<path d="M15.1,0.1L20,5l0,0l-4.9,4.9l-1-1.9L16.2,6H2v2H0V5c0-0.6,0.4-1,1-1h15.2l-2.1-2.1L15.1,0.1z M18,14v-2v0h2v3 c0,0.6-0.4,1-1,1H3.8l2.1,2.1l-1,1.9L0,15l4.9-4.9l1,1.9L3.8,14H18z"/>
		</g>
		<g id="download">
			<path d="M13.7,6.8l1.9,1L10,13.4L4.4,7.8l1.9-1L9,9.6V0h2v9.6L13.7,6.8z M18,16.8v-6.6l2,0.6v6.3c0,1.6-1.3,2.9-2.9,2.9 H3.4C1.5,20,0,18.5,0,16.6v-5.7l2-0.6v6.4C2,17.4,2.6,18,3.4,18h13.4C17.5,18,18,17.5,18,16.8z"/>
		</g>
		<g id="clock">
			<path d="M10 20C4.5 20 0 15.5 0 10S4.5 0 10 0s10 4.5 10 10-4.5 10-10 10zm0-18c-4.4 0-8 3.6-8 8s3.6 8 8 8 8-3.6 8-8-3.6-8-8-8z"/>
			<path d="M13.5 11h-3.3C9.6 11 9 10.4 9 9.7V5c0-.6.4-1 1-1s1 .4 1 1v4h2.5c.6 0 1 .4 1 1s-.4 1-1 1z"/>
		</g>
		<g id="edit">
			<path d="M0,18c0,1.1,0.9,2,2,2h2.6L0,15.4V18z M19.4,3.8l-3.2-3.2c-0.8-0.8-2-0.8-2.8,0l-0.2,0.2c-0.4,0.4-0.4,1,0,1.4 l4.6,4.6c0.4,0.4,1,0.4,1.4,0l0.2-0.2C20.2,5.7,20.2,4.6,19.4,3.8z M11.9,3.6c-0.4-0.4-1-0.4-1.4,0l-9,9C1,13.1,1,13.7,1.4,14.1 l4.6,4.6c0.4,0.4,1,0.4,1.4,0l9-9c0.4-0.4,0.4-1,0-1.4L11.9,3.6z"/>
		</g>
		<g id="calendar">
			<path d="M17,3h-2V1c0-0.6-0.4-1-1-1s-1,0.4-1,1v2H7V1c0-0.6-0.4-1-1-1S5,0.4,5,1v2H3C1.3,3,0,4.3,0,6v11 c0,1.7,1.3,3,3,3h14c1.7,0,3-1.3,3-3V6C20,4.3,18.7,3,17,3z M2,6c0-0.6,0.4-1,1-1h2c0,0.6,0.4,1,1,1s1-0.4,1-1h6c0,0.6,0.4,1,1,1 s1-0.4,1-1h2c0.6,0,1,0.4,1,1v2H2V6z M18,17c0,0.6-0.4,1-1,1H3c-0.6,0-1-0.4-1-1v-7h16V17z"/>
			<path d="M7,15h6c0.6,0,1-0.4,1-1s-0.4-1-1-1H7c-0.6,0-1,0.4-1,1S6.4,15,7,15z"/>
		</g>
		<g id="calendar-2">
			<path d="M17,0H3C1.3,0,0,1.4,0,3V17c0,1.7,1.3,3,3,3h3l-0.6-2H3c-0.6,0-1-0.4-1-1l0-9.5h16l0,9.5c0,0.6-0.4,1-1,1H7.9 l0.6,2H17c1.7,0,3-1.3,3-3v-2.5h0V3C20,1.4,18.6,0,17,0z M18,5.5H2V3c0-0.6,0.5-1,1-1h14c0.6,0,1,0.5,1,1L18,5.5z M8.4,9.4H4.3v2 h4.1V9.4z M11.6,13.5h4.1v2h-4.1V13.5z"/>
		</g>
		<g id="home">
			<path d="M2,4.6l8-2.5l8,2.5v0l2,0.6V3.1L10,0L0,3.1v2.1L2,4.6z M18,16.8c0,0.6-0.5,1.2-1.2,1.2H3.2 C2.5,18,2,17.5,2,16.8V7.1L0,7.8v9.1C0,18.6,1.4,20,3.2,20h13.6c1.7,0,3.2-1.4,3.2-3.2V7.8l-2-0.6V16.8z M10,10.2 c2,0,3.6,1.6,3.6,3.6V16l-2,0.6v-2.8c0-0.9-0.7-1.6-1.6-1.6S8.4,13,8.4,13.8v2.8l-2-0.6v-2.1C6.4,11.9,8,10.2,10,10.2z"/>
		</g>
		<g id="nominees">
			<path d="M19.2,6.7c0-1.9-1-3.6-2.8-4.9c-3.6-2.5-9.1-2.5-12.7,0c-1.8,1.3-2.8,3-2.8,4.9c0,0.3,0,0.7,0.1,1v9.2 c0,1.9,1.1,2.7,1.8,2.9c0.6,0.2,1.3,0.2,1.9,0c0.3-0.1,0.9-0.4,1.1-0.5l4.3-2.7h0l1.9-1.2l-1.3-0.8L10,14.3l-5.2,3.3 C4.4,17.8,4.1,17.9,4,18c-0.3,0.1-0.5,0-0.6,0c-0.2-0.1-0.5-0.2-0.5-1V11c0.2,0.2,0.5,0.4,0.7,0.6c1.8,1.2,4.1,1.9,6.4,1.9 s4.6-0.6,6.4-1.9c0.3-0.2,0.5-0.4,0.7-0.6v5.9c0,0.8-0.3,1-0.5,1c-0.1,0-0.3,0.1-0.6,0c-0.1,0-0.5-0.2-0.8-0.4l-1-0.6l-1.9,1.2 l1.9,1.2l0.1,0c0.2,0.1,0.8,0.4,1.1,0.5c0.3,0.1,0.6,0.2,0.9,0.2c0.3,0,0.7-0.1,1-0.2c0.7-0.3,1.8-1,1.8-2.9V7.7 C19.1,7.4,19.2,7.1,19.2,6.7L19.2,6.7z M15.2,10c-2.9,2-7.5,2-10.4,0c-1.3-0.9-2-2-2-3.2c0-1.2,0.7-2.3,2-3.2C6.2,2.5,8.1,2,10,2 s3.8,0.5,5.2,1.5c1.3,0.9,2,2,2,3.2S16.5,9.1,15.2,10L15.2,10z"/>
		</g>
		<g id="winners">
			<path d="M1.6,4.5c0,4.6,3.8,8.4,8.4,8.4l0,0c4.6,0,8.4-3.8,8.4-8.4V0H1.6V4.5z M3.6,4.5V2h12.8v2.5 c0,3.5-2.9,6.4-6.4,6.4S3.6,8,3.6,4.5z M14.3,14.1c0,1.1,0.5,2.1,1.5,3c0.8,0.7,1.6,1,1.6,1V20H2.5v-1.9c0,0,0.8-0.3,1.6-1 c1-0.8,1.5-1.8,1.5-3l2,0.6c-0.2,1.4-0.8,2.5-1.5,3.3h7.8c-0.7-0.8-1.4-1.9-1.5-3.3L14.3,14.1z"/>
		</g>
		<g id="collections">
			<path d="M17,0H3C1.4,0,0,1.3,0,3v14c0,1.7,1.3,3,3,3h3l-0.6-2H3c-0.6,0-1-0.4-1-1v-6.7c0-0.6,0.4-1,1-1h7.2l0.7-3.5H17 c0.6,0,1,0.4,1,1V17c0,0.6-0.4,1-1,1H7.9l0.6,2H17c1.7,0,3-1.3,3-3V3C20,1.3,18.6,0,17,0L17,0z M18,4c-0.3-0.1-0.7-0.2-1-0.2H9.2 L8.6,7.3H3c-0.3,0-0.7,0.1-1,0.2V3c0-0.6,0.4-1,1-1h14c0.6,0,1,0.5,1,1V4z"/>
		</g>
		<g id="elements">
			<path d="M10,12.4L0,6.1l0.6-0.8C2.7,2,6.2,0.1,10,0.1s7.3,1.9,9.4,5.1L20,6.1L10,12.4L10,12.4z M2.8,5.5L10,10l7.2-4.6 c-1.8-2.1-4.4-3.4-7.2-3.4S4.6,3.4,2.8,5.5z M10.2,7.6L10,7.5L9.8,7.6c0.1,0,0.1,0,0.2,0C10.1,7.6,10.1,7.6,10.2,7.6z M16.4,9.6 c1.2,0.8,2.2,1.9,3,3.1l0.6,0.8l-10,6.3L0,13.5l0.6-0.8c0.8-1.2,1.9-2.3,3-3.1l0.9,1.8c-0.6,0.5-1.2,1-1.7,1.6l7.2,4.6l7.2-4.6 c-0.5-0.6-1.1-1.1-1.7-1.6L16.4,9.6z"/>
		</g>
		<g id="courses">
			<path d="M20,7.6L20,7.6L20,7.6l0,5.8h-2V9.1l-8,6.1L0,7.6l10-7.5L20,7.6z M3.3,7.6l6.7,5l6.7-5l-6.7-5L3.3,7.6z M6.1,15 c0.5,1.7,2,2.9,3.9,2.9s3.4-1.2,3.9-2.9l1.9,0.6c-0.8,2.5-3.1,4.3-5.8,4.3s-5-1.8-5.8-4.3L6.1,15z"/>
		</g>
		<g id="teachers">
			<path d="M14.8,9c0,2.6-2.2,4.8-4.8,4.8S5.2,11.6,5.2,9V4.8C5.2,2.2,7.3,0,10,0s4.8,2.2,4.8,4.8V9z M10,2 C8.4,2,7.2,3.3,7.2,4.8V9c0,1.6,1.3,2.8,2.8,2.8s2.8-1.3,2.8-2.8V4.8C12.8,3.3,11.6,2,10,2z M16.2,10l1.9,0.6l0,0 c-0.7,3.5-3.6,6.3-7.2,6.7V18h1.4v2H7.6v-2H9v-0.7c-3.6-0.4-6.5-3.2-7.2-6.7L3.8,10c0.4,3.1,3.1,5.4,6.2,5.4S15.8,13,16.2,10z"/>
		</g>
		<g id="directory">
			<path d="M18,0v16.8c0,0.6-0.5,1.2-1.2,1.2H3.2C2.6,18,2,17.5,2,16.8V3.2C2,2.5,2.6,2,3.2,2H14v12.2l2,0.6V0H3.2 C1.5,0,0,1.4,0,3.2v13.7C0,18.6,1.5,20,3.2,20h13.6c1.7,0,3.2-1.4,3.2-3.2V0.6L18,0L18,0z"/>
		</g>
		<g id="jobs">
			<path d="M15.7,15.3H4.3c-1.6,0-3-1.3-3-3V3c0-1.6,1.3-3,3-3h11.4c1.6,0,3,1.3,3,3v9.3C18.7,14,17.3,15.3,15.7,15.3z M4.3,2c-0.6,0-1,0.4-1,1v9.3c0,0.6,0.4,1,1,1h11.4c0.6,0,1-0.4,1-1V3c0-0.6-0.4-1-1-1H4.3z M5.4,4.7h9.2v2H5.4V4.7z M14.6,8.9H5.4 v2h9.2V8.9z M18,16.5v-0.5l2-0.6v1.2c0,1.9-1.6,3.5-3.5,3.5h-13C1.6,20,0,18.4,0,16.5v-1.2l2,0.6v0.5C2,17.3,2.7,18,3.5,18h13 C17.3,18,18,17.3,18,16.5z"/>
		</g>
		<g id="shop">
			<path d="M18.2,0.4c-0.8-0.5-1.8-0.5-2.6,0L9,4.5v13l-6.2-3.9c-0.2-0.1-0.3-0.3-0.3-0.5V2.6c0-0.3,0.2-0.5,0.3-0.5 C2.9,2.1,3,2,3.1,2c0.1,0,0.2,0,0.3,0.1L6.2,4l1.6-1.4L4.4,0.4c-0.8-0.5-1.8-0.5-2.6,0C1,0.8,0.5,1.7,0.5,2.6v10.5 c0,0.9,0.5,1.8,1.3,2.3l6.9,4.3C9.1,19.9,9.6,20,10,20s0.9-0.1,1.3-0.3l6.9-4.3c0.8-0.5,1.3-1.3,1.3-2.3V2.6 C19.5,1.7,19,0.8,18.2,0.4z M17.5,13.1c0,0.2-0.1,0.4-0.3,0.5L11,17.5V5.6l5.6-3.5c0.3-0.2,0.5-0.1,0.6,0c0.1,0.1,0.3,0.2,0.3,0.5 L17.5,13.1L17.5,13.1z"/>
		</g>
		<g id="articles">
			<path d="M6,3.2v11.6h0l-2-0.6v-11C4,1.4,5.4,0,7.2,0h9.7C18.6,0,20,1.4,20,3.2v13.7c0,1.7-1.4,3.2-3.2,3.2H0V0l2,0.6V18 h14.8c0.6,0,1.2-0.5,1.2-1.2V3.2C18,2.5,17.5,2,16.8,2H7.2C6.5,2,6,2.5,6,3.2z M8.8,5.2h6.4v2H8.8V5.2z M15.2,9H8.8v2h6.4V9z  M8.8,12.8h6.4v2H8.8V12.8z"/>
		</g>
		<g id="padlock">
			<path d="M3.182,6.364h5.092V4.455c0-0.703-0.25-1.303-0.747-1.799c-0.497-0.498-1.098-0.746-1.8-0.746 c-0.703,0-1.302,0.249-1.8,0.746C3.43,3.152,3.182,3.752,3.182,4.455V6.364z M11.455,7.318v5.727c0,0.266-0.094,0.491-0.279,0.676 C10.99,13.907,10.766,14,10.5,14H0.954c-0.265,0-0.49-0.093-0.676-0.279C0.093,13.536,0,13.311,0,13.045V7.318 c0-0.265,0.093-0.49,0.278-0.676c0.186-0.186,0.411-0.278,0.676-0.278h0.318V4.455c0-1.22,0.438-2.267,1.313-3.142 C3.46,0.438,4.507,0,5.727,0s2.267,0.438,3.142,1.313c0.875,0.875,1.313,1.922,1.313,3.142v1.909H10.5 c0.266,0,0.49,0.092,0.676,0.278C11.361,6.828,11.455,7.053,11.455,7.318z"/>
		</g>
		<g id="check">
			<path d="M5.7,18.1c0.7,0.5,0.8,0.7,1.8,0.7c0.4,0,1-0.8,1-0.8l11-13.5c0.7-0.9,0.5-2.3-0.4-2.9 c-0.8-0.7-2.1-0.5-2.8,0.3L6.7,13.8l-3.6-3.1c-0.8-0.7-2-0.7-2.7,0.1c-0.7,0.8-0.7,2,0.1,2.8L5.7,18.1"/>
		</g>
		<g id="cart">
			<path d="M10 4.5c-.6 0-1-.4-1-1v-2c0-.6.4-1 1-1s1 .4 1 1v2c0 .6-.4 1-1 1zM8 15.5c-.5 0-.9-.3-1-.8l-.5-3c-.1-.5.3-1.1.8-1.2.5-.1 1.1.3 1.2.8l.5 3c.1.5-.3 1.1-.8 1.2H8zM12 15.5h-.2c-.5-.1-.9-.6-.8-1.2l.5-3c.1-.5.6-.9 1.2-.8.5.1.9.6.8 1.2l-.5 3c-.1.5-.5.8-1 .8z"/>
			<path d="M11.7 19.5H8.3c-1.8 0-2.8 0-3.6-.7-.8-.7-1-1.7-1.3-3.4l-.9-4.8c-.1-1-.2-1.6-.4-1.8-.1 0-.2-.1-.2-.2-.3-.1-.9-.1-1.9-.1v-2h20v2c-1 0-1.6 0-1.9.1-.1 0-.2.1-.2.2-.2.2-.3.8-.5 1.8l-.9 4.8c-.3 1.7-.5 2.7-1.3 3.4-.8.7-1.8.7-3.5.7zm-7.6-11c.2.5.3 1 .4 1.8l.9 4.7c.2 1.2.4 2 .6 2.2.3.2 1 .2 2.3.2h3.3c1.3 0 2 0 2.3-.2.3-.2.4-1 .6-2.2l.9-4.8c.1-.7.2-1.3.4-1.8H4.1z"/>
		</g>
		<g id="play">
			<path d="M13.4,9.3L9.1,6.9C8.4,6.6,7.7,7,7.7,7.7v4.6c0,0.7,0.8,1.1,1.4,0.8l4.3-2.4C13.9,10.4,13.9,9.6,13.4,9.3z"/>
			<path d="M10,20C4.5,20,0,15.5,0,10S4.5,0,10,0s10,4.5,10,10S15.5,20,10,20z M10,1.5c-4.7,0-8.5,3.8-8.5,8.5 c0,4.7,3.8,8.5,8.5,8.5c4.7,0,8.5-3.8,8.5-8.5C18.5,5.3,14.7,1.5,10,1.5z"/>
		</g>
		<g id="play-2">
			<path d="M13.1,9.3L8.9,7.1C8.5,6.8,8,7.1,8,7.6v4.4c0,0.4,0.5,0.7,0.9,0.5l4.2-2.3C13.5,10,13.5,9.5,13.1,9.3z"/>
			<path d="M10,20C4.5,20,0,15.5,0,10S4.5,0,10,0c5.5,0,10,4.5,10,10S15.5,20,10,20z M10,0.5c-5.2,0-9.5,4.3-9.5,9.5 c0,5.2,4.3,9.5,9.5,9.5s9.5-4.3,9.5-9.5C19.5,4.8,15.2,0.5,10,0.5z"/>
		</g>
		<g id="play-3">
			<path d="M17.4853 10.871L1.5437 19.8652C1.38726 19.9535 1.20978 20 1.02911 20C0.848442 20 0.670954 19.9536 0.514492 19.8653C0.358029 19.777 0.228108 19.65 0.137794 19.4971C0.0474799 19.3442 -4.40658e-05 19.1708 3.06591e-08 18.9942V1.00579C-4.40658e-05 0.82924 0.0474799 0.65579 0.137794 0.502881C0.228108 0.349972 0.358029 0.222995 0.514492 0.134719C0.670954 0.0464428 0.848442 -2.04306e-05 1.02911 6.73936e-09C1.20978 2.04441e-05 1.38726 0.0465248 1.5437 0.134836L17.4853 9.12904C17.6418 9.21728 17.7717 9.34423 17.8621 9.49712C17.9524 9.65001 18 9.82345 18 10C18 10.1766 17.9524 10.35 17.8621 10.5029C17.7717 10.6558 17.6418 10.7827 17.4853 10.871Z" />
		</g>
		<g id="user-login">
			<path d="M18.5,13.5L15.7,17l-1.9-1.7l-1.4,1.5l3.4,3.2l4.1-5.2L18.5,13.5z"/>
			<path d="M14.2,11c-0.9-0.4-1.8-0.7-2.8-0.8c2.1-0.6,3.7-2.6,3.7-5C15.2,2.3,12.8,0,10,0C7.1,0,4.8,2.3,4.8,5.2	c0,2.3,1.6,4.3,3.7,5C3.7,10.9,0,15,0,20h2c0-4.4,3.6-8,8-8c1.3,0,2.6,0.3,3.6,0.9L14.2,11L14.2,11z M6.8,5.2C6.8,3.4,8.2,2,10,2 c1.7,0,3.2,1.4,3.2,3.2c0,1.7-1.4,3.2-3.2,3.2C8.2,8.3,6.8,6.9,6.8,5.2z"/>
		</g>
		<g id="user-add">
			<path d="M15.1,5.2C15.1,2.3,12.8,0,10,0C7.1,0,4.8,2.3,4.8,5.2c0,2.3,1.6,4.3,3.7,5C3.7,10.8,0,15,0,20h2 c0-4.4,3.6-8,8-8c1.3,0,2.6,0.3,3.6,0.9l0.6-1.9c-0.9-0.4-1.8-0.7-2.8-0.8C13.6,9.5,15.1,7.5,15.1,5.2z M6.8,5.2C6.8,3.4,8.2,2,10,2 c1.7,0,3.2,1.4,3.2,3.2c0,1.7-1.4,3.2-3.2,3.2C8.2,8.3,6.8,6.9,6.8,5.2z M17.3,15.3H20v2h-2.7V20h-2v-2.7h-2.7v-2h2.7v-2.7h2V15.3z"/>
		</g>
		<g id="user-avatar">
			<path d="M0,0v20h2.7c1.2-2.8,4-4.7,7.3-4.7c1.3,0,2.6,0.3,3.6,0.9l0.6-1.9c-0.9-0.4-1.8-0.7-2.8-0.8 c2.1-0.6,3.7-2.6,3.7-5c0-2.8-2.3-5.2-5.2-5.2S4.8,5.6,4.8,8.5c0,2.3,1.6,4.3,3.7,4.9c-2.7,0.4-5,1.9-6.5,3.9V2h16v8.1l2-0.6V0H0z  M6.8,8.5c0-1.7,1.4-3.2,3.2-3.2s3.2,1.4,3.2,3.2c0,1.7-1.4,3.2-3.2,3.2S6.8,10.2,6.8,8.5z"/>
		</g>
		<g id="mail">
			<path d="M20,3.1L20,3.1L20,3.1C20,1.4,18.6,0,17,0H3C1.4,0,0,1.4,0,3v0h0v2.3l0,0V17c0,1.7,1.3,3,3,3h3l-0.6-2H3 c-0.6,0-1-0.4-1-1L2,6.7l8,5l8-5L18,17c0,0.6-0.4,1-1,1H7.9l0.6,2H17c1.7,0,3-1.4,3-3v-2.5h0V5.4l0,0L20,3.1L20,3.1z M10,9.3l-8-5V3 c0-0.6,0.5-1,1-1h14c0.6,0,1,0.5,1,1v1.3L10,9.3z"/>
		</g>
		<g id="discount">
			<path d="M7.4,1.3C6.6,0.5,5.5,0,4.4,0C3.2,0,2.1,0.5,1.3,1.3C0.5,2.1,0,3.2,0,4.4s0.5,2.3,1.3,3.1 c0.9,0.9,2,1.3,3.1,1.3c1.1,0,2.2-0.4,3.1-1.3C9.1,5.7,9.1,3,7.4,1.3z M5.6,5.6c-0.7,0.7-1.8,0.7-2.5,0c-0.7-0.7-0.7-1.8,0-2.5 c0.3-0.3,0.8-0.5,1.3-0.5c0.5,0,0.9,0.2,1.3,0.5C6.3,3.8,6.3,4.9,5.6,5.6z M18.7,12.6c-1.7-1.7-4.5-1.7-6.2,0 c-0.8,0.8-1.3,1.9-1.3,3.1c0,1.2,0.5,2.3,1.3,3.1c0.8,0.8,1.9,1.3,3.1,1.3l0,0c1.2,0,2.3-0.5,3.1-1.3C20.4,17,20.4,14.3,18.7,12.6z  M16.9,16.9c-0.3,0.3-0.8,0.5-1.3,0.5c-0.5,0-0.9-0.2-1.3-0.5c-0.7-0.7-0.7-1.8,0-2.5c0.3-0.3,0.8-0.5,1.3-0.5 c0.5,0,0.9,0.2,1.3,0.5C17.6,15.1,17.6,16.2,16.9,16.9z M17.3,0.8L0.8,17.3l1.8,1.8L19.2,2.7L17.3,0.8z"/>
		</g>
		<g id="eye">
			<path d="M10,5.1C4.5,5.1,0,9,0,13.7h2c0-2.3,1.4-4.2,3.5-5.4c-0.2,0.5-0.3,1.1-0.3,1.7c0,2,1.2,3.7,3,4.4l0.6-1.9 c-0.9-0.5-1.6-1.4-1.6-2.5c0-1.6,1.3-2.8,2.9-2.8c1.6,0,2.9,1.3,2.9,2.8c0,1.1-0.7,2.1-1.7,2.6l-0.7,2.2c2.5-0.2,4.4-2.3,4.4-4.8 c0-0.6-0.1-1.2-0.3-1.7c2.1,1.2,3.5,3.2,3.5,5.4h2C20,9,15.5,5.1,10,5.1z"/>
		</g>
		<g id="eye-2">
			<path d="M17,8.2L19,5l-1.7-1.1l-2.3,3.5c-1.2-0.4-2.6-0.6-4.2-0.7l0-3.9l-2,0l0,3.9C7.4,6.8,6,7.1,4.7,7.5l-2-3.5 l-1.7,1l1.9,3.3C1.1,9.2,0,10.5,0,11.9c0,2.6,3.3,4.6,7.9,5.1l0.8-2.5c-0.9-0.5-1.6-1.4-1.6-2.6c0-1.6,1.3-2.9,2.9-2.9 s2.9,1.3,2.9,2.9c0,1.1-0.7,2.1-1.6,2.6l-0.8,2.6c5.5-0.1,9.6-2.3,9.6-5.2C20,10.4,18.9,9.1,17,8.2z M6,14.7c-2.5-0.6-4-1.8-4-2.7 C2,11,3.5,9.8,6,9.2c-0.5,0.8-0.8,1.7-0.8,2.7C5.1,13,5.5,13.9,6,14.7z M14,14.7c0.5-0.8,0.8-1.7,0.8-2.7c0-1-0.3-2-0.8-2.7 c2.5,0.6,4,1.8,4,2.7C18,12.9,16.5,14,14,14.7z"/>
		</g>
		<g id="submission">
			<path d="M15.7,0H4.3c-1.6,0-3,1.3-3,3v9.3c0,1.6,1.3,3,3,3h11.4c1.6,0,3-1.3,3-3V3C18.7,1.4,17.3,0,15.7,0z M16.7,12.3 c0,0.6-0.4,1-1,1H4.3c-0.6,0-1-0.4-1-1V3c0-0.6,0.4-1,1-1h11.4c0.6,0,1,0.4,1,1V12.3z M18,16.5v-0.5l2-0.6v1.2 c0,1.9-1.6,3.5-3.5,3.5h-13C1.6,20,0,18.4,0,16.5v-1.2l2,0.6v0.5C2,17.3,2.7,18,3.5,18h13C17.3,18,18,17.3,18,16.5z M9.4,7.9 l2.8-3.5l1.6,1.2l-4.1,5.2L6.2,7.6l1.4-1.5L9.4,7.9z"/>
		</g>
		<g id="video">
			<path d="M3,0h14c1.7,0,3,1.4,3,3v11.5h0V17c0,1.7-1.4,3-3,3H8.5l-0.6-2H17c0.6,0,1-0.4,1-1L18,3c0-0.6-0.5-1-1-1H3 C2.5,2,2,2.5,2,3L2,17c0,0.6,0.4,1,1,1h2.4L6,20H3c-1.7,0-3-1.3-3-3V3C0,1.4,1.3,0,3,0z M15.2,10c0-0.4-0.2-0.7-0.5-0.9L6.7,5 C6.4,4.8,6,4.8,5.7,5C5.4,5.2,5.2,5.5,5.2,5.9v8.3c0,0.4,0.2,0.7,0.5,0.9c0.2,0.1,0.3,0.1,0.5,0.1c0.2,0,0.3,0,0.5-0.1l8-4.1 C15,10.7,15.2,10.4,15.2,10L15.2,10z M7.2,12.5L7.2,12.5v-5L12,10L7.2,12.5z"/>
		</g>
		<g id="comment">
			<path d="M20,3c0-1.7-1.4-3-3-3H3C1.3,0,0,1.3,0,3v8.8c0,1.7,1.4,3,3,3h3.2V20l6.9-5.2h0l-0.6-2h-0.1L8.2,16v-3.2H3	c-0.6,0-1-0.5-1-1V3c0-0.6,0.4-1,1-1h14c0.6,0,1,0.5,1,1v9.8l2-0.6V3z"/>
		</g>
		<g id="image-add">
			<path d="M14.4,12.3h1.9v2h-1.9v1.9h-2v-1.9h-1.9v-2h1.9v-1.9h2V12.3z M18,8.6V3c0-1.7-1.3-3-3-3H3C1.3,0,0,1.4,0,3V15 c0,1.7,1.3,3,3,3h2.2l0.6-2H3c-0.6,0-1-0.4-1-1v-3.1l4.4-5.4l2,2.4c-1,1.2-1.7,2.7-1.7,4.4c0,3.6,3,6.6,6.6,6.6s6.6-3,6.6-6.6 C20,11.5,19.2,9.8,18,8.6z M7.2,4.3C7,4.1,6.7,4,6.4,4S5.9,4.1,5.7,4.3L2,8.8V3c0-0.6,0.4-1,1-1h12c0.6,0,1,0.4,1,1v4.2 c-0.8-0.3-1.7-0.5-2.6-0.5c-1.2,0-2.4,0.3-3.4,0.9L7.2,4.3z M13.4,18c-2.5,0-4.6-2.1-4.6-4.6c0-2.5,2.1-4.6,4.6-4.6 c2.5,0,4.6,2.1,4.6,4.6C18,15.9,15.9,18,13.4,18z"/>
		</g>
		<g id="image-remove">
			<path d="M10.5,12.3h5.9v2h-5.9V12.3z M18,8.6V3c0-1.7-1.3-3-3-3H3C1.3,0,0,1.4,0,3V15c0,1.7,1.3,3,3,3h2.2l0.6-2H3 c-0.6,0-1-0.4-1-1v-3.1l4.4-5.4l2,2.4c-1,1.2-1.7,2.7-1.7,4.4c0,3.6,3,6.6,6.6,6.6s6.6-3,6.6-6.6C20,11.5,19.2,9.8,18,8.6z M7.2,4.3 C7,4.1,6.7,4,6.4,4S5.9,4.1,5.7,4.3L2,8.8V3c0-0.6,0.4-1,1-1h12c0.6,0,1,0.4,1,1v4.2c-0.8-0.3-1.7-0.5-2.6-0.5 c-1.2,0-2.4,0.3-3.4,0.9L7.2,4.3z M13.4,18c-2.5,0-4.6-2.1-4.6-4.6c0-2.5,2.1-4.6,4.6-4.6c2.5,0,4.6,2.1,4.6,4.6 C18,15.9,15.9,18,13.4,18z"/>
		</g>
		<g id="briefcase">
			<path d="M17,3.7h-2.5V0H5.5v3.7H3c-1.7,0-3,1.3-3,3V17c0,1.7,1.3,3,3,3h3l-0.6-2H3c-0.6,0-1-0.4-1-1l0-8.7 c1.4,2.8,4.4,4.8,8,4.8c0,0,0,0,0.1,0c2.3,0,4.5-0.8,6.2-2.3c0.8-0.7,1.4-1.5,1.8-2.3l0,8.6c0,0.6-0.4,1-1,1H7.9l0.6,2H17 c1.7,0,3-1.3,3-3l0-10.3C20,5.1,18.6,3.7,17,3.7L17,3.7z M7.5,2h4.9v1.7H7.5V2z M14.8,9.3c-1.3,1.2-3,1.8-4.8,1.8c0,0,0,0,0,0 c-3.4,0-6.3-2.4-6.7-5.4h13.5C16.6,7,15.9,8.3,14.8,9.3L14.8,9.3z"/>
		</g>
		<g id="chart">
			<path d="M10,0C4.5,0,0,4.5,0,10c0,5.5,4.5,10,10,10c1.4,0,2.8-0.3,4-0.8l-1.6-1.5C11.7,17.9,10.9,18,10,18 c-4,0-7.4-3-7.9-6.8h3.3l1.9-2.3l3.4,4.5c0.2,0.3,0.5,0.4,0.8,0.4c0,0,0,0,0,0c0.3,0,0.6-0.2,0.8-0.5l1.4-2.2h1.4l0.6-2h-3.1 L11.4,11L8.1,6.6C7.9,6.3,7.6,6.2,7.3,6.2C7,6.2,6.7,6.3,6.5,6.5L4.4,9.1H2.1C2.5,5.1,5.9,2,10,2c4.4,0,8,3.6,8,8 c0,2.8-1.4,5.2-3.6,6.7l1.4,1.4c2.5-1.8,4.1-4.8,4.1-8.1C20,4.5,15.5,0,10,0z"/>
		</g>
		<g id="settings">
			<path d="M18.8,12.9c-0.7-0.8-1.1-1.8-1.1-2.9s0.4-2.1,1.1-2.9c0.3-0.4,0.8-0.7,1.2-0.9l-0.6-1.9 c-0.8,0.3-1.5,0.8-2.1,1.4c-0.2,0.2-0.4,0.5-0.6,0.7C16,5.1,14.9,4,13.5,3.2c0.3-0.2,0.5-0.4,0.7-0.6c0.7-0.6,1.1-1.3,1.4-2.1 L13.7,0c-0.2,0.4-0.5,0.9-0.9,1.2C12.1,1.9,11,2.3,10,2.3S7.9,1.9,7.1,1.2C6.8,0.9,6.5,0.4,6.3,0L4.4,0.6c0.3,0.8,0.8,1.5,1.4,2.1 C6,2.9,6.3,3.1,6.5,3.2C5.1,4,4,5.1,3.2,6.5C3.1,6.3,2.9,6,2.7,5.8C2.1,5.1,1.4,4.7,0.6,4.4L0,6.3c0.4,0.2,0.9,0.5,1.2,0.9 C1.9,7.9,2.3,9,2.3,10s-0.4,2.1-1.1,2.9c-0.3,0.4-0.8,0.7-1.2,0.9l0.6,1.9c0.8-0.3,1.5-0.8,2.1-1.4c0.2-0.2,0.4-0.5,0.6-0.7 C4,14.9,5.1,16,6.5,16.8c-0.3,0.2-0.5,0.4-0.7,0.6c-0.7,0.6-1.1,1.3-1.4,2.1L6.3,20c0.2-0.4,0.5-0.9,0.9-1.2 c0.8-0.7,1.8-1.1,2.9-1.1s2.1,0.4,2.9,1.1c0.4,0.3,0.7,0.8,0.9,1.2l1.9-0.6c-0.3-0.8-0.8-1.5-1.4-2.1c-0.2-0.2-0.5-0.4-0.7-0.6 c1.4-0.7,2.6-1.9,3.3-3.3c0.2,0.3,0.4,0.5,0.6,0.7c0.6,0.7,1.3,1.1,2.1,1.4l0.6-1.9C19.6,13.5,19.1,13.2,18.8,12.9L18.8,12.9z M10,15.6c-3.1,0-5.6-2.5-5.6-5.6S6.9,4.4,10,4.4s5.6,2.5,5.6,5.6S13.1,15.6,10,15.6L10,15.6z"/>
		</g>
		<g id="billing">
			<path d="M17,4.6h-1.9C14.8,2,12.6,0,10,0S5.2,2,4.9,4.6H3c-1.7,0-3,1.3-3,3V17c0,1.7,1.3,3,3,3h14c1.7,0,3-1.3,3-3V7.6 C20,6,18.7,4.6,17,4.6z M10,2c1.7,0,3.2,1.4,3.2,3.2S11.7,8.4,10,8.4S6.8,7,6.8,5.2S8.3,2,10,2z M18,17c0,0.6-0.4,1-1,1H3 c-0.6,0-1-0.4-1-1V7.6c0-0.6,0.4-1,1-1h2c0.3,1,0.8,1.8,1.5,2.4H4.9l-0.6,2h10.9l0.6-2h-2.3c0.7-0.6,1.3-1.5,1.5-2.4h2 c0.6,0,1,0.4,1,1L18,17L18,17z"/>
		</g>
		<g id="assets">
			<path d="M17,0H3C1.3,0,0,1.4,0,3v14c0,1.7,1.3,3,3,3h3l-0.6-2H3c-0.6,0-1-0.4-1-1V3c0-0.6,0.4-1,1-1h14c0.6,0,1,0.5,1,1
	v14c0,0.6-0.4,1-1,1H7.9l0.6,2H17c1.7,0,3-1.3,3-3v-2.5l0,0V3C20,1.4,18.6,0,17,0z M3.7,3.7V10H10V3.7H3.7z M8.4,8.3h-3v-3h3V8.3z
	 M10,10v6.3h6.4V9.9L10,10z M14.6,14.6h-3v-3h3V14.6z"/>
		</g>
		<g id="dashboard">
			<path d="M0,10C0,4.5,4.5,0,10,0s10,4.5,10,10c0,3.3-1.6,6.3-4.1,8.1l-1.4-1.4c2.2-1.4,3.6-3.9,3.6-6.7c0-4.4-3.6-8-8-8
	s-8,3.6-8,8s3.6,8,8,8c0.9,0,1.7-0.1,2.5-0.4l1.6,1.5c-1.2,0.5-2.6,0.8-4,0.8C4.5,20,0,15.5,0,10z M13.5,7V5.9h-2V7h-1v2h1v5.1h2V9
	h1V7H13.5z M6.5,13v1.1h2V13h1v-2h-1V5.9h-2V11h-1v2H6.5z"/>
		</g>
		<g id="dashboard-3">
			<path d="M0,10C0,4.5,4.5,0,10,0s10,4.5,10,10c0,3.3-1.6,6.3-4.1,8.1l-1.4-1.4c2.2-1.4,3.6-3.9,3.6-6.7c0-4.4-3.6-8-8-8
	s-8,3.6-8,8s3.6,8,8,8c0.9,0,1.7-0.1,2.5-0.4l1.6,1.5c-1.2,0.5-2.6,0.8-4,0.8C4.5,20,0,15.5,0,10z M13.5,7V5.9h-2V7h-1v2h1v5.1h2V9
	h1V7H13.5z M6.5,13v1.1h2V13h1v-2h-1V5.9h-2V11h-1v2H6.5z"/>
		</g>
		<g id="alert">
			<path d="M18.4,11.5c0.4,0.5,0.9,1,1.4,1.7l0,0c0.2,0.3,0.3,0.7,0.1,1.1c-0.2,0.3-0.5,0.6-0.9,0.6H1 c-0.4,0-0.7-0.2-0.9-0.6C0,13.8,0,13.4,0.3,13.1c0.5-0.6,1-1.2,1.4-1.7c1.8-2.1,2.8-3.3,3-6.4c0-0.1,0-0.2,0-0.3C5,2,7.3,0,10,0 c2.7,0,5,2,5.3,4.7c0,0.1,0,0.2,0,0.3C15.6,8.2,16.6,9.4,18.4,11.5z M6.6,5.2C6.4,8.9,5,10.6,3.2,12.7h13.7 c-1.8-2.1-3.2-3.8-3.5-7.6c0,0,0,0,0,0c0,0,0-0.1,0-0.1c0,0,0,0,0,0c0,0,0,0,0,0c0,0,0,0,0-0.1c-0.2-1.7-1.6-3-3.3-3 C8.3,2,6.9,3.3,6.7,5v0c0,0,0,0.1,0,0.1c0,0,0,0,0,0l0,0C6.7,5.1,6.7,5.1,6.6,5.2C6.6,5.2,6.6,5.2,6.6,5.2z M9.9,18 c0.9,0,1.6-0.7,1.6-1.6v-0.7l2,0.6v0.1c0,2-1.6,3.6-3.6,3.6c-2,0-3.6-1.6-3.6-3.6v-0.1l2-0.6v0.7C8.3,17.3,9,18,9.9,18z"/>
		</g>
		<g id="heart">
			<path d="M14.4,1C12.7,1,11,1.8,10,3.2C9,1.8,7.3,1,5.6,1C2.5,1,0,3.5,0,6.6c0,1.5,0.6,2.8,1.6,3.9l7.9,8L10,19l0.6-0.6l7.7-7.8 c1.1-1.1,1.7-2.5,1.7-4C20,3.5,17.5,1,14.4,1L14.4,1z"/>
		</g>
		<g id="hamburger">
			<path d="M19.5,17.6H0.5c-0.3,0-0.5-0.2-0.5-0.5c0-0.3,0.2-0.5,0.5-0.5h18.9c0.3,0,0.5,0.2,0.5,0.5C20,17.4,19.8,17.6,19.5,17.6z M19.5,10.5H0.5C0.2,10.5,0,10.3,0,10s0.2-0.5,0.5-0.5h18.9c0.3,0,0.5,0.2,0.5,0.5S19.8,10.5,19.5,10.5z M19.5,3.4H0.5C0.2,3.4,0,3.2,0,2.9s0.2-0.5,0.5-0.5h18.9c0.3,0,0.5,0.2,0.5,0.5S19.8,3.4,19.5,3.4z"/>
		</g>
		<g id="read">
			<path d="M20 9.20437C20 11.3949 20 13.5752 20 15.7657C20 17.4421 19.08 18.3985 17.42 18.3368C15.42 18.2648 13.56 18.6453 11.88 19.8075C11.37 20.1571 10.8 20.0132 10.5 19.5504C10.18 19.067 10.32 18.4705 10.88 18.1003C12.57 16.969 14.39 16.3211 16.43 16.3314C18.06 16.3417 18.06 16.3314 18.06 14.655C18.06 10.7264 18.04 6.79785 18.07 2.86925C18.07 2.16992 17.84 2.00537 17.2 1.99509C15.03 1.95395 13.03 2.37561 11.28 3.80512C10.49 4.45303 9.47 4.42218 8.66 3.76399C6.87 2.29333 4.8 1.93338 2.59 2.00537C2.13 2.01566 1.94 2.18021 1.95 2.67385C1.97 4.01081 1.96 5.35805 1.95 6.69501C1.95 7.53832 1.56 8.02168 0.94 8.01139C0.35 7.99083 0.01 7.52803 0 6.69501C0 5.29634 0 3.8874 0.01 2.46817C0.03 0.987229 0.93 0.0822122 2.38 0.0205065C5.03 -0.0926206 7.53 0.359888 9.7 2.06708C9.84 2.16992 10.19 2.15964 10.33 2.05679C12.54 0.308466 15.09 -0.123473 17.79 0.0307908C19.11 0.102781 19.97 1.03865 19.99 2.42703C20.01 4.68957 19.99 6.94183 19.99 9.20437H20Z M3.12 14.59C2.43 14.59 1.75 14.6 1.06 14.59C0.41 14.57 0.04 14.22 0.02 13.65C0.01 13.07 0.42 12.65 1.08 12.65C2.63 12.63 4.19 12.65 5.74 12.65C5.87 12.65 6 12.64 6.24 12.62C6.09 12.43 5.99 12.29 5.88 12.17C5.31 11.58 4.71 11.01 4.15 10.41C3.77 9.99999 3.77 9.52999 4.15 9.10999C4.5 8.71999 5.01 8.61999 5.38 8.97999C6.34 9.88999 7.33 10.79 8.13 11.83C9.03 13 8.95 14.68 7.95 15.77C7.2 16.59 6.4 17.37 5.6 18.15C5.15 18.59 4.59 18.61 4.19 18.23C3.78 17.85 3.78 17.24 4.24 16.77C4.97 16.03 5.73 15.33 6.48 14.6C5.36 14.6 4.25 14.6 3.13 14.6L3.12 14.59Z"/>
		</g>
		<g id="cart-2">
			<path d="M4.3906 0.958499C4.18433 0.389616 3.61336 0 2.96404 0H0.645951L0.5583 0.00553784C0.24301 0.045707 0 0.299518 0 0.606633C0 0.941666 0.289202 1.21327 0.645951 1.21327H2.96404L3.02148 1.22057C3.09497 1.23967 3.15396 1.29463 3.17302 1.36678L5.84032 11.4625L5.87663 11.5786C6.0829 12.1475 6.65387 12.5371 7.30319 12.5371H16.9257L17.0544 12.5319C17.692 12.4809 18.2322 12.0543 18.3885 11.4625L19.9556 5.53095L19.9802 5.41855C19.9934 5.34308 20 5.26667 20 5.19008L19.995 5.07399C19.9321 4.34654 19.2836 3.7746 18.4928 3.7746L5.13919 3.77406L4.4269 1.0746L4.3906 0.958499Z M8.96594 16.4348C8.96594 17.2992 8.21975 18 7.29928 18C6.3788 18 5.63261 17.2992 5.63261 16.4348C5.63261 15.5703 6.3788 14.8696 7.29928 14.8696C8.21975 14.8696 8.96594 15.5703 8.96594 16.4348Z M18.9378 16.4348C18.9378 17.2992 18.1917 18 17.2712 18C16.3507 18 15.6045 17.2992 15.6045 16.4348C15.6045 15.5703 16.3507 14.8696 17.2712 14.8696C18.1917 14.8696 18.9378 15.5703 18.9378 16.4348Z" />
		</g>
		<g id="cc">
			<path  d="M1.48936 1.2766C1.3738 1.2766 1.2766 1.3738 1.2766 1.48936V15.1064C1.2766 15.2219 1.3738 15.3192 1.48936 15.3192H18.5106C18.6262 15.3192 18.7234 15.2219 18.7234 15.1064V1.48936C18.7234 1.3738 18.6262 1.2766 18.5106 1.2766H1.48936ZM0 1.48936C0 0.668755 0.668754 0 1.48936 0H18.5106C19.3312 0 20 0.668755 20 1.48936V15.1064C20 15.927 19.3312 16.5957 18.5106 16.5957H1.48936C0.668754 16.5957 0 15.927 0 15.1064V1.48936ZM4.25522 7.56851C4.25522 6.25228 5.25859 5.10638 6.59054 5.10638C7.44358 5.10638 8.17153 5.58584 8.57494 6.26844C8.75429 6.57193 8.65367 6.96335 8.35018 7.1427C8.04669 7.32206 7.65528 7.22143 7.47592 6.91794C7.27678 6.58097 6.9443 6.38298 6.59054 6.38298C6.04844 6.38298 5.53181 6.86942 5.53181 7.56851V9.02724C5.53181 9.72633 6.04844 10.2128 6.59054 10.2128C6.94386 10.2128 7.27688 10.0144 7.4749 9.67893C7.65411 9.37536 8.04547 9.27453 8.34905 9.45373C8.65263 9.63293 8.75345 10.0243 8.57425 10.3279C8.17143 11.0103 7.44231 11.4894 6.59054 11.4894C5.25859 11.4894 4.25522 10.3435 4.25522 9.02724V7.56851ZM13.3989 5.10638C12.067 5.10638 11.0636 6.25228 11.0636 7.56851V9.02724C11.0636 10.3435 12.067 11.4894 13.3989 11.4894C14.2507 11.4894 14.9798 11.0103 15.3827 10.3279C15.5619 10.0243 15.461 9.63293 15.1575 9.45373C14.8539 9.27453 14.4625 9.37536 14.2833 9.67893C14.0853 10.0144 13.7523 10.2128 13.3989 10.2128C12.8568 10.2128 12.3402 9.72633 12.3402 9.02724V7.56851C12.3402 6.86942 12.8568 6.38298 13.3989 6.38298C13.7527 6.38298 14.0852 6.58097 14.2843 6.91794C14.4637 7.22143 14.8551 7.32206 15.1586 7.1427C15.4621 6.96335 15.5627 6.57193 15.3833 6.26844C14.9799 5.58584 14.252 5.10638 13.3989 5.10638Z" />
		</g>
		<g id="sound">
			<path d="M14.5,2.9c.1-.3.5-.5.8-.4,2.7.9,4.7,3.4,4.7,6.5s-2,5.6-4.7,6.4c-.3.1-.7,0-.8-.4-.1-.3,0-.7.4-.8,2.2-.7,3.8-2.8,3.8-5.3s-1.6-4.6-3.8-5.3c-.3-.1-.5-.5-.4-.8h0Z M12.8,6.5c0-.4.3-.6.6-.6,1.8,0,3.2,1.4,3.2,3.1s-1.4,3.1-3.2,3.1-.6-.3-.6-.6.3-.6.6-.6c1.1,0,1.9-.8,1.9-1.9s-.9-1.9-1.9-1.9-.6-.3-.6-.6h0Z M11.1,0c-.2-.1-.5,0-.7,0l-5.8,4.9H1.5c-.8,0-1.5.7-1.5,1.5v5c0,.8.7,1.5,1.5,1.5h3.2l5.8,4.9c.2.2.5.2.7,0,.2-.1.4-.3.4-.6V.6c0-.2-.1-.5-.4-.6h0ZM10.2,16l-4.9-4.1s0,0,0,0c0,0,0,0-.1,0,0,0,0,0-.1,0,0,0,0,0,0,0H1.5c-.1,0-.2-.1-.2-.2v-5c0-.1.1-.2.2-.2h3.4s0,0,0,0c0,0,0,0,.1,0,0,0,0,0,.1,0,0,0,0,0,0,0L10.2,2v14Z"/>
		</g>
		<g id="reset">
			<path d="M13.1,0h-6.1C3.7,0,1.1,2.6,1.1,5.8v5.1c0,.5.4.8.8.8s.8-.4.8-.8v-5.1c0-2.3,1.8-4.1,4.1-4.1h6.1c2.3,0,4.1,1.8,4.1,4.1v4.4c0,2.3-1.8,4.1-4.1,4.1h-7.6l2.5-2.5c.3-.3.3-.9,0-1.2-.3-.3-.9-.3-1.2,0l-4,4c-.3.3-.3.9,0,1.2l4,4c.2.2.4.3.6.3s.4,0,.6-.3c.3-.3.3-.9,0-1.2l-2.6-2.5h7.6c3.2,0,5.8-2.6,5.8-5.8v-4.4C18.9,2.6,16.3,0,13.1,0Z"/>
		</g>
		<g id="wheat">
			<path d="M17.0402 0.0215172C17.4474 0.119381 17.6967 0.52327 17.5972 0.923628L17.2633 2.26689C17.1638 2.66724 16.7531 2.91245 16.3461 2.81459C15.939 2.71673 15.6896 2.31284 15.7892 1.91249L16.123 0.569226C16.2226 0.168869 16.6332 -0.076348 17.0402 0.0215172ZM1.62385 0.298394C2.01791 0.158209 2.45293 0.358754 2.59546 0.746325L3.11142 2.14928C3.25396 2.53685 3.05005 2.96468 2.65598 3.10487C2.26192 3.24506 1.8269 3.04451 1.68437 2.65694L1.1684 1.25398C1.02586 0.866409 1.22977 0.438579 1.62385 0.298394ZM13.6351 2.37169C13.9461 2.09544 14.4258 2.11943 14.7067 2.42529L16.0649 3.90423L17.9835 3.22349C18.3778 3.08363 18.8126 3.28454 18.9548 3.67223C19.097 4.05991 18.8927 4.48757 18.4986 4.62744L16.1009 5.47817C15.811 5.581 15.4867 5.50127 15.2802 5.27641L13.5806 3.4257C13.2997 3.11984 13.3241 2.64795 13.6351 2.37169ZM5.50685 2.4464C5.84292 2.69259 5.91244 3.16012 5.66212 3.49065L4.02318 5.65479C3.84094 5.89544 3.52987 6.00532 3.2336 5.93372L0.577898 5.29195C0.17094 5.1936 -0.077899 4.78942 0.022095 4.38917C0.122089 3.98894 0.533055 3.7442 0.939999 3.84256L3.10684 4.36619L4.44507 2.59912C4.69539 2.26859 5.17076 2.20022 5.50685 2.4464ZM12.7853 5.72983C13.0963 5.45358 13.5761 5.47757 13.857 5.78343L15.2151 7.26237L17.1337 6.58164C17.528 6.44177 17.9628 6.64268 18.1049 7.03037C18.2471 7.41805 18.0429 7.84572 17.6488 7.98558L15.2511 8.83631C14.9612 8.93914 14.6369 8.85941 14.4304 8.63454L12.7308 6.78384C12.4499 6.47798 12.4743 6.00609 12.7853 5.72983ZM6.78089 5.96821C7.11725 6.21403 7.18732 6.68147 6.93738 7.0123L5.31361 9.16151C5.13145 9.40259 4.82008 9.51279 4.52351 9.44112L1.86781 8.79934C1.46085 8.701 1.21202 8.29681 1.31201 7.89656C1.412 7.49633 1.82297 7.25159 2.22991 7.34993L4.39614 7.87343L5.71929 6.12212C5.96923 5.79131 6.44452 5.7224 6.78089 5.96821ZM11.9354 9.08797C12.2464 8.81173 12.7262 8.83571 13.0071 9.14157L14.3653 10.6205L16.2839 9.93978C16.6782 9.79991 17.1129 10.0008 17.2551 10.3885C17.3973 10.7762 17.1931 11.2039 16.799 11.3437L14.4012 12.1945C14.1114 12.2973 13.7871 12.2176 13.5806 11.9927L11.8809 10.142C11.6001 9.83612 11.6245 9.36424 11.9354 9.08797ZM8.0715 9.47612C8.40757 9.7223 8.47709 10.1898 8.22677 10.5204L6.58783 12.6845C6.40469 12.9263 6.0916 13.036 5.79429 12.9625L3.13859 12.3058C2.73217 12.2053 2.48554 11.7998 2.58773 11.4001C2.68991 11.0004 3.10221 10.7578 3.50861 10.8583L5.67325 11.3936L7.00972 9.62883C7.26004 9.2983 7.73541 9.22993 8.0715 9.47612ZM11.0831 12.4483C11.3929 12.1707 11.8728 12.1926 12.155 12.4973L13.5297 13.9809L15.4367 13.3119C15.8314 13.1735 16.2655 13.3759 16.4062 13.7641C16.547 14.1523 16.3413 14.5792 15.9465 14.7177L13.9471 15.4191L13.1955 18.3889C13.0943 18.7889 12.6826 19.0325 12.2759 18.933C11.8693 18.8334 11.6217 18.4285 11.7229 18.0285L12.4746 15.058L11.0334 13.5026C10.7511 13.1979 10.7734 12.7259 11.0831 12.4483ZM9.34352 12.9815C9.6807 13.2262 9.75234 13.6935 9.50351 14.0251L8.11977 15.8693L9.25844 19.0024C9.3995 19.3904 9.19395 19.8176 8.79934 19.9562C8.40474 20.095 7.9705 19.8928 7.82945 19.5047L6.69202 16.3751L4.43246 15.829C4.0255 15.7306 3.77667 15.3265 3.87666 14.9263C3.97665 14.526 4.38762 14.2813 4.79456 14.3797L6.95903 14.9027L8.28245 13.1389C8.53127 12.8073 9.00632 12.7368 9.34352 12.9815Z" />
		</g>
		<g id="flame">
			<path d="M5.80712 0.179464C6.0077 0.0620162 6.23696 0 6.47058 0C6.68896 0 6.90351 0.054183 7.09439 0.157171C12.9045 2.80337 16.1942 8.29813 15.9911 12.8918C15.9045 14.8224 15.1995 16.6086 13.8335 17.9135C12.4676 19.2183 10.5051 19.9811 8.02018 19.986C7.0221 20.0463 6.02164 19.9117 5.07679 19.5904C4.12446 19.2664 3.24786 18.7589 2.49859 18.0977C1.7493 17.4366 1.14248 16.6354 0.713812 15.741C0.285148 14.8466 0.043306 13.8771 0.00251883 12.8898L0.00207933 12.8791C-0.0276792 11.7366 0.262473 10.608 0.84088 9.61571C1.41929 8.62343 2.26393 7.80544 3.28311 7.25054C3.46176 7.15327 3.67395 7.13422 3.86765 7.19807C4.06136 7.26193 4.2187 7.40277 4.3011 7.5861C4.65675 8.37728 5.15495 9.09692 5.76994 9.71138C6.4918 8.78919 6.82384 7.59737 6.81403 6.28799C6.80234 4.72928 6.30289 3.05973 5.46686 1.63813C5.33028 1.41462 5.28037 1.15019 5.32661 0.893336C5.37361 0.63233 5.51659 0.397277 5.7285 0.232685C5.75349 0.213272 5.77975 0.195494 5.80712 0.179464ZM7.18626 1.79223C7.8583 3.19908 8.25628 4.76472 8.26761 6.27752C8.28138 8.11406 7.72193 9.92835 6.3177 11.2394C6.04958 11.4897 5.63233 11.5024 5.34885 11.2689C4.54254 10.6047 3.86699 9.8047 3.35268 8.90889C2.84804 9.29438 2.42281 9.77404 2.10298 10.3227C1.65722 11.0874 1.43323 11.957 1.45518 12.8375C1.48878 13.6332 1.68402 14.4142 2.02947 15.135C2.3757 15.8575 2.86583 16.5047 3.47101 17.0386C4.0762 17.5724 4.78422 17.9824 5.55341 18.2441C6.3226 18.5058 7.13742 18.614 7.94991 18.5624C7.96555 18.5614 7.98122 18.561 7.99689 18.561C10.1816 18.561 11.7653 17.8995 12.819 16.8929C13.877 15.8821 14.4657 14.4614 14.5389 12.8296C14.7052 9.06373 12.0829 4.33174 7.18626 1.79223ZM11.631 12.1484C12.0324 12.1484 12.3578 12.4674 12.3578 12.8609C12.3578 13.8057 11.9749 14.7119 11.2934 15.3801C10.6119 16.0481 9.68754 16.4235 8.7237 16.4235C8.3223 16.4235 7.99689 16.1044 7.99689 15.711C7.99689 15.3174 8.3223 14.9985 8.7237 14.9985C9.302 14.9985 9.85661 14.7733 10.2655 14.3723C10.6744 13.9715 10.9042 13.4278 10.9042 12.8609C10.9042 12.4674 11.2296 12.1484 11.631 12.1484Z" />
		</g>
		<g id="geometric-1">
			<path d="M15.7143 0.714286C15.7143 0.319797 16.0341 0 16.4286 0H17.8571C18.4254 0 18.9706 0.225764 19.3724 0.627629C19.7743 1.02949 20 1.57453 20 2.14286V3.57143C20 3.96591 19.6801 4.28571 19.2857 4.28571C18.8913 4.28571 18.5714 3.96591 18.5714 3.57143V2.14286C18.5714 1.95341 18.4961 1.77174 18.3623 1.63779C18.2283 1.50383 18.0466 1.42857 17.8571 1.42857H16.4286C16.0341 1.42857 15.7143 1.10877 15.7143 0.714286ZM19.2857 7.14286C19.6801 7.14286 20 7.46266 20 7.85714V12.1429C20 12.5373 19.6801 12.8571 19.2857 12.8571C18.8913 12.8571 18.5714 12.5373 18.5714 12.1429V7.85714C18.5714 7.46266 18.8913 7.14286 19.2857 7.14286ZM19.2857 15.7143C19.6801 15.7143 20 16.0341 20 16.4286V17.8571C20 18.4254 19.7743 18.9706 19.3724 19.3724C18.9706 19.7743 18.4254 20 17.8571 20H16.4286C16.0341 20 15.7143 19.6801 15.7143 19.2857C15.7143 18.8913 16.0341 18.5714 16.4286 18.5714H17.8571C18.0466 18.5714 18.2283 18.4961 18.3623 18.3623C18.4961 18.2283 18.5714 18.0466 18.5714 17.8571V16.4286C18.5714 16.0341 18.8913 15.7143 19.2857 15.7143ZM2.14286 1.42857C1.95341 1.42857 1.77173 1.50383 1.63779 1.63779C1.50383 1.77173 1.42857 1.95341 1.42857 2.14286V17.8571C1.42857 18.0466 1.50383 18.2283 1.63779 18.3623C1.77174 18.4961 1.95341 18.5714 2.14286 18.5714H6.42857C6.82306 18.5714 7.14286 18.8913 7.14286 19.2857C7.14286 19.6801 6.82306 20 6.42857 20H2.14286C1.57453 20 1.02949 19.7743 0.627629 19.3724C0.225764 18.9706 0 18.4254 0 17.8571V2.14286C0 1.57454 0.225764 1.02949 0.627629 0.627629C1.02949 0.225764 1.57454 0 2.14286 0H6.42857C6.82306 0 7.14286 0.319797 7.14286 0.714286C7.14286 1.10877 6.82306 1.42857 6.42857 1.42857H2.14286ZM9.28571 0.714286C9.28571 0.319797 9.60551 0 10 0H12.1429C12.5373 0 12.8571 0.319797 12.8571 0.714286C12.8571 1.10877 12.5373 1.42857 12.1429 1.42857H10.7143V18.5714H12.1429C12.5373 18.5714 12.8571 18.8913 12.8571 19.2857C12.8571 19.6801 12.5373 20 12.1429 20H10C9.60551 20 9.28571 19.6801 9.28571 19.2857V0.714286Z" />
		</g>
		<g id="geometric-2">
			<path d="M0.714286 11.4286C1.10877 11.4286 1.42857 11.7484 1.42857 12.1429C1.42857 12.3323 1.50383 12.514 1.63779 12.6479C1.77174 12.7819 1.95341 12.8571 2.14286 12.8571C2.53734 12.8571 2.85714 13.1769 2.85714 13.5714C2.85714 13.9659 2.53734 14.2857 2.14286 14.2857C1.57453 14.2857 1.02949 14.0599 0.627629 13.6581C0.225764 13.2562 0 12.7112 0 12.1429C0 11.7484 0.319797 11.4286 0.714286 11.4286ZM0.627629 0.627629C1.02949 0.225764 1.57454 0 2.14286 0C2.53734 0 2.85714 0.319797 2.85714 0.714286C2.85714 1.10877 2.53734 1.42857 2.14286 1.42857C1.95341 1.42857 1.77173 1.50383 1.63779 1.63779C1.50383 1.77173 1.42857 1.95341 1.42857 2.14286C1.42857 2.53734 1.10877 2.85714 0.714286 2.85714C0.319797 2.85714 0 2.53734 0 2.14286C0 1.57454 0.225764 1.02949 0.627629 0.627629ZM11.4286 0.714286C11.4286 0.319797 11.7484 0 12.1429 0C12.7112 0 13.2562 0.225764 13.6581 0.627629C14.0599 1.02949 14.2857 1.57453 14.2857 2.14286C14.2857 2.53734 13.9659 2.85714 13.5714 2.85714C13.1769 2.85714 12.8571 2.53734 12.8571 2.14286C12.8571 1.95341 12.7819 1.77174 12.6479 1.63779C12.514 1.50383 12.3323 1.42857 12.1429 1.42857C11.7484 1.42857 11.4286 1.10877 11.4286 0.714286ZM5 0.714286C5 0.319797 5.3198 0 5.71429 0H8.57143C8.96591 0 9.28571 0.319797 9.28571 0.714286C9.28571 1.10877 8.96591 1.42857 8.57143 1.42857H5.71429C5.3198 1.42857 5 1.10877 5 0.714286ZM0.714286 5C1.10877 5 1.42857 5.3198 1.42857 5.71429V8.57143C1.42857 8.96591 1.10877 9.28571 0.714286 9.28571C0.319797 9.28571 0 8.96591 0 8.57143V5.71429C0 5.3198 0.319797 5 0.714286 5ZM12.8571 6.42857C12.8571 6.03409 13.1769 5.71429 13.5714 5.71429H17.8571C18.4254 5.71429 18.9706 5.94006 19.3724 6.34191C19.7743 6.74377 20 7.28881 20 7.85714V17.8571C20 18.4254 19.7743 18.9706 19.3724 19.3724C18.9706 19.7743 18.4254 20 17.8571 20H7.85714C7.28881 20 6.74377 19.7743 6.34191 19.3724C5.94006 18.9706 5.71429 18.4254 5.71429 17.8571V13.5714C5.71429 13.1769 6.03409 12.8571 6.42857 12.8571H12.1429C12.3323 12.8571 12.514 12.7819 12.6479 12.6479C12.7819 12.514 12.8571 12.3323 12.8571 12.1429V6.42857ZM14.2857 7.14286V12.1429C14.2857 12.7112 14.0599 13.2562 13.6581 13.6581C13.2562 14.0599 12.7112 14.2857 12.1429 14.2857H7.14286V17.8571C7.14286 18.0466 7.21811 18.2283 7.35207 18.3623C7.48603 18.4961 7.6677 18.5714 7.85714 18.5714H17.8571C18.0466 18.5714 18.2283 18.4961 18.3623 18.3623C18.4961 18.2283 18.5714 18.0466 18.5714 17.8571V7.85714C18.5714 7.6677 18.4961 7.48603 18.3623 7.35207C18.2283 7.21811 18.0466 7.14286 17.8571 7.14286H14.2857Z" />
		</g>
		<g id="geometric-3">
			<path d="M10 1.42857C5.26613 1.42857 1.42857 5.26613 1.42857 10C1.42857 14.7339 5.26613 18.5714 10 18.5714C10.3945 18.5714 10.7143 18.8913 10.7143 19.2857C10.7143 19.6801 10.3945 20 10 20C4.47716 20 0 15.5229 0 10C0 4.47716 4.47716 0 10 0C15.5229 0 20 4.47716 20 10C20 10.3945 19.6801 10.7143 19.2857 10.7143C18.8913 10.7143 18.5714 10.3945 18.5714 10C18.5714 5.26613 14.7339 1.42857 10 1.42857ZM19.0339 12.2733C19.408 12.3986 19.6097 12.8034 19.4844 13.1774C19.3579 13.5552 19.2094 13.9229 19.0406 14.279C18.8716 14.6356 18.4457 14.7874 18.0891 14.6184C17.7327 14.4494 17.5807 14.0235 17.7497 13.6671C17.8944 13.3621 18.0214 13.0472 18.1297 12.7238C18.255 12.3497 18.6599 12.148 19.0339 12.2733ZM17.6724 15.2803C17.9791 15.5284 18.0266 15.9781 17.7786 16.2849C17.2804 16.9007 16.7107 17.456 16.082 17.9384C15.769 18.1786 15.3206 18.1196 15.0804 17.8066C14.8403 17.4936 14.8994 17.0451 15.2124 16.805C15.7517 16.3913 16.2406 15.9147 16.6679 15.3864C16.916 15.0797 17.3657 15.0323 17.6724 15.2803ZM14.408 18.2061C14.5677 18.5669 14.4047 18.9887 14.044 19.1483C13.6838 19.3079 13.3123 19.4467 12.9312 19.5633C12.554 19.6789 12.1546 19.4667 12.0391 19.0894C11.9236 18.7123 12.1358 18.3129 12.513 18.1973C12.8393 18.0974 13.1573 17.9786 13.4658 17.842C13.8265 17.6824 14.2484 17.8453 14.408 18.2061Z" />
		</g>
		<g id="geometric-4">
			<path d="M19.2857 15.7143C19.6801 15.7143 20 16.0341 20 16.4286V17.8571C20 18.4254 19.7743 18.9706 19.3724 19.3724C18.9706 19.7743 18.4254 20 17.8571 20H16.4286C16.0341 20 15.7143 19.6801 15.7143 19.2857C15.7143 18.8913 16.0341 18.5714 16.4286 18.5714H17.8571C18.0466 18.5714 18.2283 18.4961 18.3623 18.3623C18.4961 18.2283 18.5714 18.0466 18.5714 17.8571V16.4286C18.5714 16.0341 18.8913 15.7143 19.2857 15.7143ZM19.2857 5.71429C19.6801 5.71429 20 6.03409 20 6.42857V12.1429C20 12.5373 19.6801 12.8571 19.2857 12.8571C18.8913 12.8571 18.5714 12.5373 18.5714 12.1429V6.42857C18.5714 6.03409 18.8913 5.71429 19.2857 5.71429ZM7.14286 19.2857C7.14286 18.8913 7.46266 18.5714 7.85714 18.5714H12.1429C12.5373 18.5714 12.8571 18.8913 12.8571 19.2857C12.8571 19.6801 12.5373 20 12.1429 20H7.85714C7.46266 20 7.14286 19.6801 7.14286 19.2857ZM2.14286 1.42857C1.95341 1.42857 1.77173 1.50383 1.63779 1.63779C1.50383 1.77173 1.42857 1.95341 1.42857 2.14286V17.8571C1.42857 18.2516 1.10877 18.5714 0.714286 18.5714C0.319797 18.5714 0 18.2516 0 17.8571V2.14286C0 1.57454 0.225764 1.02949 0.627629 0.627629C1.02949 0.225764 1.57454 0 2.14286 0H17.8571C18.2516 0 18.5714 0.319797 18.5714 0.714286C18.5714 1.10877 18.2516 1.42857 17.8571 1.42857H2.14286Z" />
		</g>
	</def>
</svg>