<svg xmlns="http://www.w3.org/2000/svg" width="540" height="80.04" viewBox="0 0 540 80.04"><path d="M282.43.63c-4.52,0-9,.58-11.9,3.39s-4,7-4,12.21,1,9.33,3.85,12.14,7.5,3.48,12,3.48,9-.57,11.87-3.39,4-7.06,4-12.23-1-9.3-3.86-12.11S286.94.63,282.43.63Zm6.85,23.07c-1.59,1.82-4.48,2.14-6.85,2.14s-5.26-.32-6.85-2.13-1.69-4.32-1.69-7.48.1-5.58,1.69-7.4,4.15-2.13,6.85-2.13,5.26.31,6.85,2.13,1.69,4.25,1.69,7.4S290.86,21.88,289.28,23.7ZM219.86,1.19h-6.39a.49.49,0,0,0-.5.48V30.84a.49.49,0,0,0,.5.48h6.39a.49.49,0,0,0,.49-.48V1.67A.49.49,0,0,0,219.86,1.19ZM193,16,204.35,2a.47.47,0,0,0-.36-.76H195.8a.63.63,0,0,0-.5.25l-7.5,9.94-7.32-9.94a.6.6,0,0,0-.5-.25h-8.21a.46.46,0,0,0-.36.76L182.9,16.27l-11.51,14.3a.47.47,0,0,0,.37.75H180a.61.61,0,0,0,.5-.26l7.67-9.91,7.26,9.91a.63.63,0,0,0,.5.26H204a.47.47,0,0,0,.36-.76ZM348.64,3.4C346,1,341.86.69,338.47.69a19.06,19.06,0,0,0-8.84,1.8h-1.17c-1.65-.91-4.56-1.8-9.13-1.8-3.39,0-7.53.25-10.09,2.39-2.11,1.78-2.61,4.14-2.61,9V30.82a.5.5,0,0,0,.5.48h6.39a.49.49,0,0,0,.49-.48V15.4c0-2.79-.11-5.69.5-6.77.46-.84,1.2-1.78,4.67-1.78,4.14,0,5.11.29,5.77,2.12a6.71,6.71,0,0,1,.26,1.81v20a.49.49,0,0,0,.5.48h6.39a.49.49,0,0,0,.49-.48v-20A6.66,6.66,0,0,1,332.86,9c.65-1.83,1.63-2.12,5.77-2.12,3.47,0,4.2.94,4.67,1.78.6,1.08.49,4,.49,6.77V30.82a.49.49,0,0,0,.5.48h6.38a.49.49,0,0,0,.5-.48V13.22C351.17,8.18,351,5.6,348.64,3.4ZM256.92,5.19c-3-4.07-8.3-5.3-13.83-5a39.72,39.72,0,0,0-10.53,1.87c-.63.24-.55.77-.55,1.1,0,1.07-.11,3.85-.1,5,0,.5.61.73,1.12.55a40.24,40.24,0,0,1,8.87-2.13c3.28-.26,7.74,0,9,1.87a7.66,7.66,0,0,1,.68,3.62,55.23,55.23,0,0,0-8.09-.28c-2.34.12-6.84.32-9.48,1.73-2.15,1.15-3.42,2.19-4.09,4.12a11.93,11.93,0,0,0-.51,5c.39,3.49,1.6,5.23,3.24,6.44,2.58,1.91,5.84,2.91,12.57,2.77,9-.2,11.32-3.1,12.51-5.15,2-3.51,1.67-9,1.61-12.43C259.28,12.8,259.07,8.17,256.92,5.19Zm-5.85,18.39c-.84,1.78-3.86,2.05-5.65,2.14-3.3.15-5.73,0-7.3-.76a3.6,3.6,0,0,1-1.88-3,3.15,3.15,0,0,1,.48-2.41c1.16-1.51,4.19-1.83,7.31-2a55.89,55.89,0,0,1,7.69.44C251.7,20.28,251.55,22.58,251.07,23.58ZM368.21,1.19h-6.39a.49.49,0,0,0-.5.48V30.84a.49.49,0,0,0,.5.48h6.39a.49.49,0,0,0,.49-.48V1.67A.49.49,0,0,0,368.21,1.19Z" style="fill:#fff"/><path d="M8.93,78.05V53H0V48H23.17v5H14.26V78.05Z" style="fill:#fff"/><path d="M23.82,48H29.6l8.17,22.66H38L46.23,48H52L40.66,78.05H35.17Z" style="fill:#fff"/><path d="M115.11,67.79V62.87h7.77a6.88,6.88,0,0,0,4.45-1.28,5.12,5.12,0,0,0,0-7.38,6.77,6.77,0,0,0-4.45-1.31h-5.37V78.08h-5.33V48h11.39q5.09,0,8,2.61a9.33,9.33,0,0,1,2.87,7.28,9.5,9.5,0,0,1-2.77,7.28c-1.84,1.73-4.41,2.6-7.69,2.6Z" style="fill:#fff"/><path d="M138.37,78.08V55.79h5.17V59.9h.2a8.87,8.87,0,0,1,3.3-3.46,9.62,9.62,0,0,1,5-1.22h.24v5.21h-.36a13.2,13.2,0,0,0-4.66.71,5.75,5.75,0,0,0-2.77,2.08,5.56,5.56,0,0,0-.91,3.19V78.08Z" style="fill:#fff"/><path d="M164.29,78.65a10.61,10.61,0,0,1-5.6-1.44A9.58,9.58,0,0,1,155,73.12a14.06,14.06,0,0,1-1.28-6.18A14.23,14.23,0,0,1,155,60.71a9.45,9.45,0,0,1,3.66-4.06,11.58,11.58,0,0,1,11.15,0,9.55,9.55,0,0,1,3.68,4.06,15.51,15.51,0,0,1,0,12.43,9.52,9.52,0,0,1-3.68,4.09A10.61,10.61,0,0,1,164.29,78.65Zm0-4.88a4.75,4.75,0,0,0,2.8-.83,5.25,5.25,0,0,0,1.81-2.38,9.56,9.56,0,0,0,.63-3.62,9.67,9.67,0,0,0-.63-3.64,5,5,0,0,0-1.81-2.38,5.21,5.21,0,0,0-5.61,0,5.14,5.14,0,0,0-1.83,2.38,9.28,9.28,0,0,0-.65,3.64,9.18,9.18,0,0,0,.65,3.62,5.35,5.35,0,0,0,1.83,2.38A4.78,4.78,0,0,0,164.29,73.77Z" style="fill:#fff"/><path d="M383.67,78.05l11.35-25H381.76L381.71,48H401.4v3.58L389.61,78.05Z" style="fill:#fff"/><path d="M408.85,69.63a8.51,8.51,0,0,0,2.48,3.07,5.72,5.72,0,0,0,3.46,1,5.84,5.84,0,0,0,2.68-.61,4.34,4.34,0,0,0,1.83-1.77,5.31,5.31,0,0,0,.65-2.67,5.17,5.17,0,0,0-.65-2.64,4.35,4.35,0,0,0-1.83-1.75,5.91,5.91,0,0,0-2.76-.61,5.51,5.51,0,0,0-4.85,2.72l-4.51-2.07L406.57,48h17.17v4.88H411.57L410.88,61l-1.1.09a7.44,7.44,0,0,1,2.71-1.63,9.8,9.8,0,0,1,3.31-.57,10.22,10.22,0,0,1,5.05,1.2,8.16,8.16,0,0,1,3.31,3.4,10.64,10.64,0,0,1,1.16,5.08,10.45,10.45,0,0,1-1.3,5.31,8.93,8.93,0,0,1-3.7,3.5,12.27,12.27,0,0,1-5.66,1.24A11.56,11.56,0,0,1,408.42,77a9.56,9.56,0,0,1-3.84-4.43Z" style="fill:#fff"/><path d="M82.24,78.14a13.74,13.74,0,0,1-7-1.75,11.55,11.55,0,0,1-4.58-4.72l4.23-2.85A8.85,8.85,0,0,0,78,72.16a8.2,8.2,0,0,0,4.25,1.09,8.84,8.84,0,0,0,3-.48,4.65,4.65,0,0,0,2-1.37,3.21,3.21,0,0,0,.1-3.9,5.43,5.43,0,0,0-2-1.45,26.44,26.44,0,0,0-4-1.34l-.2,0a34.78,34.78,0,0,1-5-1.69,9,9,0,0,1-3.39-2.64,7.08,7.08,0,0,1-1.43-4.58,7.7,7.7,0,0,1,1.43-4.57,9.32,9.32,0,0,1,3.94-3.14,14,14,0,0,1,5.7-1.11,12.41,12.41,0,0,1,6.53,1.64A11.71,11.71,0,0,1,93.31,53L89.2,55.68a8.53,8.53,0,0,0-2.89-2.87,7.37,7.37,0,0,0-3.82-1,7.85,7.85,0,0,0-2.81.48,4.72,4.72,0,0,0-2,1.37A2.92,2.92,0,0,0,77,55.56a3,3,0,0,0,.74,2.11A5.44,5.44,0,0,0,79.8,59q1.38.54,3.78,1.2a33.57,33.57,0,0,1,5,1.67,9.18,9.18,0,0,1,3.5,2.66,7.09,7.09,0,0,1,1.44,4.62,7.94,7.94,0,0,1-1.42,4.7,9.35,9.35,0,0,1-4,3.13A14.71,14.71,0,0,1,82.24,78.14Z" style="fill:#fff"/><path d="M294.64,73.13H309.2v4.92H289.31V48h5.33Z" style="fill:#fff"/><path d="M318.31,73.13H333v4.92H313V48h19.57v4.88H318.31v7.28h13.46v4.92H318.31Z" style="fill:#fff"/><path d="M337.47,78.05V48H348.9a15.28,15.28,0,0,1,7.79,1.87,12.19,12.19,0,0,1,4.9,5.25A17.72,17.72,0,0,1,363.26,63a17.12,17.12,0,0,1-1.73,7.89,12.25,12.25,0,0,1-5.13,5.25,16.69,16.69,0,0,1-8.19,1.87Zm10.78-5a10.47,10.47,0,0,0,5.24-1.2,7.73,7.73,0,0,0,3.2-3.44A12.25,12.25,0,0,0,357.77,63a12.8,12.8,0,0,0-1-5.41,7.55,7.55,0,0,0-3.09-3.44,9.91,9.91,0,0,0-5.07-1.2H342.8V73.05Z" style="fill:#fff"/><path d="M467.48,56.34a3.42,3.42,0,0,0-2.14.71,5.4,5.4,0,0,0-1.57,2.11L461,57.26a6.82,6.82,0,0,1,2.45-3,7.08,7.08,0,0,1,4.13-1.17,7.39,7.39,0,0,1,3.39.73,5.27,5.27,0,0,1,2.23,2.05A5.94,5.94,0,0,1,474,59a6.58,6.58,0,0,1-.77,3.09,15.49,15.49,0,0,1-2.45,3.22l-6.06,6.49L464,70.14H474.4v3.33H461V70.92l6.87-7.33a16.31,16.31,0,0,0,1.92-2.43,3.85,3.85,0,0,0,.54-2,2.79,2.79,0,0,0-.77-2.07A2.83,2.83,0,0,0,467.48,56.34Z" style="fill:#fff"/><path d="M483.9,73.82a6.25,6.25,0,0,1-5.4-2.63q-1.87-2.61-1.88-7.71c0-3.4.63-6,1.88-7.75a6.86,6.86,0,0,1,10.8,0c1.25,1.76,1.88,4.35,1.88,7.75s-.63,6-1.88,7.71A6.26,6.26,0,0,1,483.9,73.82Zm0-3.3a2.92,2.92,0,0,0,2.69-1.79,11.69,11.69,0,0,0,.93-5.25,11.8,11.8,0,0,0-.93-5.28,2.9,2.9,0,0,0-5.37,0,11.63,11.63,0,0,0-1,5.28,11.52,11.52,0,0,0,1,5.25A2.93,2.93,0,0,0,483.9,70.52Z" style="fill:#fff"/><path d="M499.64,56.34a3.4,3.4,0,0,0-2.13.71,5.3,5.3,0,0,0-1.57,2.11l-2.76-1.9a6.75,6.75,0,0,1,2.45-3,7,7,0,0,1,4.12-1.17,7.44,7.44,0,0,1,3.4.73,5.27,5.27,0,0,1,2.23,2.05,6,6,0,0,1,.78,3.11,6.46,6.46,0,0,1-.77,3.09A15.4,15.4,0,0,1,503,65.3l-6.07,6.49-.73-1.65h10.42v3.33H493.18V70.92l6.87-7.33A16.31,16.31,0,0,0,502,61.16a3.85,3.85,0,0,0,.54-2,2.66,2.66,0,0,0-2.87-2.84Z" style="fill:#fff"/><path d="M515.63,73.82A7.92,7.92,0,0,1,512,73a6.32,6.32,0,0,1-2.54-2.4,6.71,6.71,0,0,1-.92-3.49,9,9,0,0,1,.23-2.08,9.28,9.28,0,0,1,.65-1.83q.42-.87,1.23-2.31a.35.35,0,0,1,.06-.09l0-.1,4.14-7.22h4.22l-5.47,9,0-1a4.05,4.05,0,0,1,1.4-.72,5.73,5.73,0,0,1,1.63-.23,6.21,6.21,0,0,1,3.13.81,5.9,5.9,0,0,1,2.24,2.3,6.85,6.85,0,0,1,.83,3.38,6.77,6.77,0,0,1-.94,3.59A6.29,6.29,0,0,1,519.35,73,8,8,0,0,1,515.63,73.82Zm.08-3.22a3.59,3.59,0,0,0,1.8-.45,3.11,3.11,0,0,0,1.25-1.24,3.65,3.65,0,0,0,.45-1.83,3.55,3.55,0,0,0-.44-1.77,3.05,3.05,0,0,0-1.2-1.19,3.62,3.62,0,0,0-1.75-.42,4.24,4.24,0,0,0-1.92.42,3.21,3.21,0,0,0-1.31,1.19,3.28,3.28,0,0,0-.47,1.77,3.55,3.55,0,0,0,.46,1.83,3.16,3.16,0,0,0,1.27,1.24A3.77,3.77,0,0,0,515.71,70.6Zm-2.08-9.36.54-.79,1.11.76-.57.81Z" style="fill:#fff"/><path d="M539.15,50.1a7.59,7.59,0,0,0-4.4-4.49,20.88,20.88,0,0,0-6.39-.61h-72.8a20.92,20.92,0,0,0-6.39.61,7.6,7.6,0,0,0-4.39,4.49C444,52,444,54.47,444,57.5v9.66c0,3,.06,5.5.83,7.4A7.59,7.59,0,0,0,449.17,79a20.34,20.34,0,0,0,6.39.62h72.8a20.27,20.27,0,0,0,6.39-.62,7.57,7.57,0,0,0,4.4-4.48c.77-1.9.83-4.37.83-7.4V57.5C540,54.47,539.92,52,539.15,50.1Zm-1.29,6.95V67.62a18.19,18.19,0,0,1-.55,5.77,5.64,5.64,0,0,1-3.22,3.39c-1.25.45-2.58.53-5.7.53H455.54c-3.12,0-4.45-.08-5.71-.53a5.65,5.65,0,0,1-3.21-3.39,18.13,18.13,0,0,1-.56-5.77V57.05a18.2,18.2,0,0,1,.56-5.78,5.65,5.65,0,0,1,3.21-3.39c1.25-.45,2.58-.53,5.71-.53h72.85c3.12,0,4.45.08,5.7.53a5.64,5.64,0,0,1,3.22,3.39A18.27,18.27,0,0,1,537.86,57.05Z" style="fill:#fff"/><path d="M193.34,78.08V48h5L208.6,64.38h.24L219.13,48h5V78.08h-5.21V57.87h-.25l-8,12.81h-3.74L198.79,58h-.24V78.08Z" style="fill:#fff"/><path d="M235.61,49.28a3,3,0,0,1-.88,2.28,3.2,3.2,0,0,1-2.34.86,3,3,0,0,1-2.29-.86,3.11,3.11,0,0,1-.84-2.28,3.23,3.23,0,0,1,.86-2.34,3,3,0,0,1,2.27-.87,3,3,0,0,1,3.22,3.21ZM235,78.08h-5.13V55.79H235Z" style="fill:#fff"/><path d="M240.49,78.08V55.79h5.16v3h.21a7.11,7.11,0,0,1,2.72-2.58,7.7,7.7,0,0,1,3.75-1,6.88,6.88,0,0,1,5.45,2.22,9.21,9.21,0,0,1,2,6.28V78.08h-5.17V64.74a4.94,4.94,0,0,0-1.14-3.4,3.74,3.74,0,0,0-2.92-1.28,5.07,5.07,0,0,0-2.57.63,4.3,4.3,0,0,0-1.69,1.79,5.89,5.89,0,0,0-.59,2.67V78.08Z" style="fill:#fff"/><path d="M270.75,49.28a3.05,3.05,0,0,1-.87,2.28,3.21,3.21,0,0,1-2.34.86,3.07,3.07,0,0,1-2.3-.86,3.11,3.11,0,0,1-.83-2.28,3.22,3.22,0,0,1,.85-2.34,3.05,3.05,0,0,1,2.28-.87,3,3,0,0,1,3.21,3.21Zm-.61,28.8H265V55.79h5.12Z" style="fill:#fff"/></svg>