<svg xmlns="http://www.w3.org/2000/svg" width="540" height="80.04" viewBox="0 0 540 80.04"><path d="M111.61.63c-4.51,0-9,.58-11.89,3.39s-4,7-4,12.21,1,9.33,3.85,12.14,7.49,3.48,12,3.48,9-.57,11.87-3.39,4-7.06,4-12.23-1-9.3-3.85-12.11S116.13.63,111.61.63Zm6.85,23.07c-1.59,1.82-4.47,2.14-6.85,2.14s-5.25-.32-6.84-2.13-1.7-4.32-1.7-7.48.1-5.58,1.69-7.4,4.15-2.13,6.85-2.13,5.26.31,6.85,2.13,1.69,4.25,1.69,7.4S120.05,21.88,118.46,23.7ZM49,1.19H42.65a.49.49,0,0,0-.49.48V30.84a.49.49,0,0,0,.49.48H49a.5.5,0,0,0,.5-.48V1.67A.5.5,0,0,0,49,1.19ZM22.18,16,33.53,2a.47.47,0,0,0-.36-.76H25a.62.62,0,0,0-.5.25L17,11.38,9.67,1.44a.63.63,0,0,0-.5-.25H1A.47.47,0,0,0,.59,2l11.5,14.32L.58,30.57a.46.46,0,0,0,.37.75h8.2a.64.64,0,0,0,.51-.26l7.66-9.91,7.26,9.91a.64.64,0,0,0,.5.26h8.11a.47.47,0,0,0,.37-.76ZM177.82,3.4C175.22,1,171,.69,167.66.69a19,19,0,0,0-8.84,1.8h-1.17c-1.65-.91-4.56-1.8-9.14-1.8-3.38,0-7.53.25-10.09,2.39-2.11,1.78-2.6,4.14-2.6,9V30.82a.49.49,0,0,0,.49.48h6.39a.49.49,0,0,0,.5-.48V15.4c0-2.79-.11-5.69.49-6.77.47-.84,1.2-1.78,4.67-1.78,4.14,0,5.12.29,5.77,2.12a7.08,7.08,0,0,1,.27,1.81v20a.49.49,0,0,0,.49.48h6.39a.5.5,0,0,0,.5-.48v-20A6.71,6.71,0,0,1,162,9c.66-1.83,1.63-2.12,5.77-2.12,3.47,0,4.21.94,4.67,1.78.6,1.08.5,4,.5,6.77,0,3.51,0,15.35,0,15.35v.07a.5.5,0,0,0,.5.48h6.39a.49.49,0,0,0,.49-.48V13.22C180.35,8.18,180.19,5.6,177.82,3.4ZM86.1,5.19c-2.95-4.07-8.29-5.3-13.83-5A39.72,39.72,0,0,0,61.74,2.05c-.62.24-.54.77-.55,1.1,0,1.07-.1,3.85-.1,5,0,.5.62.73,1.13.55a40.24,40.24,0,0,1,8.87-2.13c3.28-.26,7.73,0,9,1.87A7.53,7.53,0,0,1,80.74,12a55.23,55.23,0,0,0-8.09-.28c-2.35.12-6.84.32-9.49,1.73-2.15,1.15-3.41,2.19-4.08,4.12a11.94,11.94,0,0,0-.52,5C59,26.06,60.17,27.8,61.8,29c2.59,1.91,5.84,2.91,12.57,2.77,9-.2,11.32-3.1,12.51-5.15,2-3.51,1.67-9,1.61-12.43C88.47,12.8,88.26,8.17,86.1,5.19ZM80.26,23.58c-.85,1.78-3.86,2.05-5.65,2.14-3.3.15-5.74,0-7.31-.76a3.61,3.61,0,0,1-1.87-3,3.15,3.15,0,0,1,.47-2.41c1.16-1.51,4.2-1.83,7.32-2A55.66,55.66,0,0,1,80.9,18C80.89,20.28,80.74,22.58,80.26,23.58ZM197.39,1.19H191a.49.49,0,0,0-.49.48V30.84a.49.49,0,0,0,.49.48h6.39a.5.5,0,0,0,.5-.48V1.67A.5.5,0,0,0,197.39,1.19Z" style="fill:#fff"/><path d="M8.91,78.05V53H0V48H23.15v5H14.24V78.05Z" style="fill:#fff"/><path d="M23.8,48h5.77l8.18,22.66H38L46.21,48H52L40.64,78.05H35.15Z" style="fill:#fff"/><path d="M115.08,67.79V62.87h7.77a6.91,6.91,0,0,0,4.46-1.28,5.14,5.14,0,0,0,0-7.38,6.8,6.8,0,0,0-4.46-1.31h-5.37V78.08h-5.33V48h11.39q5.08,0,8,2.61a9.32,9.32,0,0,1,2.86,7.28,9.53,9.53,0,0,1-2.76,7.28q-2.78,2.59-7.69,2.6Z" style="fill:#fff"/><path d="M138.35,78.08V55.79h5.17V59.9h.2a8.8,8.8,0,0,1,3.3-3.46,9.62,9.62,0,0,1,5-1.22h.24v5.21h-.36a13.16,13.16,0,0,0-4.66.71,5.66,5.66,0,0,0-2.77,2.08,5.56,5.56,0,0,0-.91,3.19V78.08Z" style="fill:#fff"/><path d="M164.26,78.65a10.6,10.6,0,0,1-5.59-1.44A9.46,9.46,0,0,1,155,73.12a13.92,13.92,0,0,1-1.28-6.18A14.09,14.09,0,0,1,155,60.71a9.32,9.32,0,0,1,3.66-4.06,11.58,11.58,0,0,1,11.15,0,9.55,9.55,0,0,1,3.68,4.06,15.51,15.51,0,0,1,0,12.43,9.52,9.52,0,0,1-3.68,4.09A10.62,10.62,0,0,1,164.26,78.65Zm0-4.88a4.78,4.78,0,0,0,2.81-.83,5.25,5.25,0,0,0,1.81-2.38,9.56,9.56,0,0,0,.63-3.62,9.67,9.67,0,0,0-.63-3.64,5,5,0,0,0-1.81-2.38,5.21,5.21,0,0,0-5.61,0,5.14,5.14,0,0,0-1.83,2.38,9.28,9.28,0,0,0-.66,3.64,9.17,9.17,0,0,0,.66,3.62,5.35,5.35,0,0,0,1.83,2.38A4.75,4.75,0,0,0,164.26,73.77Z" style="fill:#fff"/><path d="M383.64,78.05l11.35-25H381.73l0-5.12h19.69v3.58l-11.8,26.52Z" style="fill:#fff"/><path d="M408.82,69.63a8.63,8.63,0,0,0,2.49,3.07,5.69,5.69,0,0,0,3.45,1,5.86,5.86,0,0,0,2.69-.61,4.4,4.4,0,0,0,1.83-1.77,5.41,5.41,0,0,0,.65-2.67,5.27,5.27,0,0,0-.65-2.64,4.41,4.41,0,0,0-1.83-1.75,5.92,5.92,0,0,0-2.77-.61,5.65,5.65,0,0,0-2.76.69,5.54,5.54,0,0,0-2.08,2l-4.51-2.07L406.55,48h17.16v4.88H411.55L410.86,61l-1.1.09a7.28,7.28,0,0,1,2.71-1.63,9.8,9.8,0,0,1,3.31-.57,10.16,10.16,0,0,1,5,1.2,8.12,8.12,0,0,1,3.32,3.4,10.75,10.75,0,0,1,1.16,5.08,10.45,10.45,0,0,1-1.3,5.31,8.93,8.93,0,0,1-3.7,3.5,12.27,12.27,0,0,1-5.66,1.24A11.56,11.56,0,0,1,408.4,77a9.64,9.64,0,0,1-3.85-4.43Z" style="fill:#fff"/><path d="M82.22,78.14a13.78,13.78,0,0,1-7-1.75,11.52,11.52,0,0,1-4.57-4.72l4.23-2.85A8.77,8.77,0,0,0,78,72.16a8.17,8.17,0,0,0,4.25,1.09,8.84,8.84,0,0,0,3-.48,4.56,4.56,0,0,0,2-1.37,3,3,0,0,0,.72-2,3.11,3.11,0,0,0-.61-1.93,5.4,5.4,0,0,0-2-1.45,26.25,26.25,0,0,0-4-1.34l-.21,0A34.61,34.61,0,0,1,76.3,63a9,9,0,0,1-3.4-2.64,7.08,7.08,0,0,1-1.42-4.58,7.7,7.7,0,0,1,1.42-4.57,9.35,9.35,0,0,1,3.95-3.14,14,14,0,0,1,5.69-1.11,12.39,12.39,0,0,1,6.53,1.64A11.56,11.56,0,0,1,93.28,53l-4.1,2.72a8.62,8.62,0,0,0-2.89-2.87,7.38,7.38,0,0,0-3.83-1,7.8,7.8,0,0,0-2.8.48,4.82,4.82,0,0,0-2,1.37,3,3,0,0,0-.73,1.93,3.06,3.06,0,0,0,.73,2.11A5.56,5.56,0,0,0,79.78,59q1.38.54,3.78,1.2a33.57,33.57,0,0,1,5,1.67,9.08,9.08,0,0,1,3.49,2.66,7,7,0,0,1,1.45,4.62,8,8,0,0,1-1.43,4.7,9.32,9.32,0,0,1-4,3.13A14.75,14.75,0,0,1,82.22,78.14Z" style="fill:#fff"/><path d="M294.61,73.13h14.56v4.92H289.28V48h5.33Z" style="fill:#fff"/><path d="M318.29,73.13H333v4.92H313V48h19.56v4.88H318.29v7.28h13.46v4.92H318.29Z" style="fill:#fff"/><path d="M337.44,78.05V48h11.44a15.31,15.31,0,0,1,7.79,1.87,12.25,12.25,0,0,1,4.9,5.25A17.72,17.72,0,0,1,363.23,63a17.12,17.12,0,0,1-1.72,7.89,12.37,12.37,0,0,1-5.13,5.25,16.73,16.73,0,0,1-8.2,1.87Zm10.78-5a10.51,10.51,0,0,0,5.25-1.2,7.73,7.73,0,0,0,3.2-3.44A12.39,12.39,0,0,0,357.74,63a12.8,12.8,0,0,0-1-5.41,7.63,7.63,0,0,0-3.1-3.44,9.87,9.87,0,0,0-5.06-1.2h-5.78V73.05Z" style="fill:#fff"/><path d="M467.45,56.34a3.4,3.4,0,0,0-2.13.71,5.3,5.3,0,0,0-1.57,2.11L461,57.26a6.75,6.75,0,0,1,2.45-3,7,7,0,0,1,4.12-1.17,7.44,7.44,0,0,1,3.4.73,5.27,5.27,0,0,1,2.23,2.05A6,6,0,0,1,474,59a6.46,6.46,0,0,1-.77,3.09,15.15,15.15,0,0,1-2.45,3.22l-6.06,6.49L464,70.14h10.42v3.33H461V70.92l6.87-7.33a16.31,16.31,0,0,0,1.92-2.43,3.85,3.85,0,0,0,.54-2,2.66,2.66,0,0,0-2.87-2.84Z" style="fill:#fff"/><path d="M483.88,73.82a6.23,6.23,0,0,1-5.4-2.63c-1.26-1.74-1.88-4.31-1.88-7.71s.62-6,1.88-7.75a6.85,6.85,0,0,1,10.79,0c1.26,1.76,1.88,4.35,1.88,7.75s-.62,6-1.88,7.71A6.23,6.23,0,0,1,483.88,73.82Zm0-3.3a2.92,2.92,0,0,0,2.69-1.79,11.69,11.69,0,0,0,.93-5.25,11.8,11.8,0,0,0-.93-5.28,2.9,2.9,0,0,0-5.37,0,11.63,11.63,0,0,0-.95,5.28,11.52,11.52,0,0,0,.95,5.25A2.93,2.93,0,0,0,483.88,70.52Z" style="fill:#fff"/><path d="M499.62,56.34a3.44,3.44,0,0,0-2.14.71,5.5,5.5,0,0,0-1.57,2.11l-2.75-1.9a6.79,6.79,0,0,1,2.44-3,7.1,7.1,0,0,1,4.13-1.17,7.44,7.44,0,0,1,3.4.73,5.33,5.33,0,0,1,2.23,2.05,6,6,0,0,1,.78,3.11,6.58,6.58,0,0,1-.77,3.09,15.15,15.15,0,0,1-2.45,3.22l-6.06,6.49-.73-1.65h10.42v3.33H493.16V70.92L500,63.59A16.31,16.31,0,0,0,502,61.16a3.85,3.85,0,0,0,.54-2,2.83,2.83,0,0,0-.77-2.07A2.87,2.87,0,0,0,499.62,56.34Z" style="fill:#fff"/><path d="M515.61,73.82a7.89,7.89,0,0,1-3.68-.85,6.32,6.32,0,0,1-2.54-2.4,6.71,6.71,0,0,1-.92-3.49A9,9,0,0,1,508.7,65a9.28,9.28,0,0,1,.65-1.83q.42-.87,1.23-2.31a.36.36,0,0,1,.05-.09l.06-.1,4.14-7.22h4.22l-5.47,9,0-1a4,4,0,0,1,1.39-.72,5.85,5.85,0,0,1,1.64-.23,6.15,6.15,0,0,1,3.12.81,5.86,5.86,0,0,1,2.25,2.3,7.39,7.39,0,0,1-.11,7A6.35,6.35,0,0,1,519.33,73,8,8,0,0,1,515.61,73.82Zm.08-3.22a3.59,3.59,0,0,0,1.8-.45,3.17,3.17,0,0,0,1.25-1.24,3.75,3.75,0,0,0,.44-1.83,3.54,3.54,0,0,0-.43-1.77,3.05,3.05,0,0,0-1.2-1.19,3.62,3.62,0,0,0-1.75-.42,4.24,4.24,0,0,0-1.92.42,3.15,3.15,0,0,0-1.31,1.19,3.28,3.28,0,0,0-.48,1.77,3.66,3.66,0,0,0,.46,1.83,3.18,3.18,0,0,0,1.28,1.24A3.77,3.77,0,0,0,515.69,70.6Zm-2.08-9.36.54-.79,1.11.76-.57.81Z" style="fill:#fff"/><path d="M539.12,50.1a7.55,7.55,0,0,0-4.39-4.49,20.88,20.88,0,0,0-6.39-.61h-72.8a20.88,20.88,0,0,0-6.39.61,7.55,7.55,0,0,0-4.39,4.49c-.77,1.9-.83,4.37-.83,7.4v9.66c0,3,.06,5.5.83,7.4A7.53,7.53,0,0,0,449.15,79a20.27,20.27,0,0,0,6.39.62h72.8a20.27,20.27,0,0,0,6.39-.62,7.53,7.53,0,0,0,4.39-4.48c.77-1.9.83-4.37.83-7.4V57.5C540,54.47,539.89,52,539.12,50.1Zm-1.28,6.95V67.62a18.19,18.19,0,0,1-.55,5.77,5.67,5.67,0,0,1-3.22,3.39c-1.25.45-2.58.53-5.7.53H455.51c-3.12,0-4.45-.08-5.7-.53a5.67,5.67,0,0,1-3.22-3.39,18.19,18.19,0,0,1-.55-5.77V57.05a18.27,18.27,0,0,1,.55-5.78,5.67,5.67,0,0,1,3.22-3.39c1.25-.45,2.58-.53,5.7-.53h72.86c3.12,0,4.45.08,5.7.53a5.67,5.67,0,0,1,3.22,3.39A18.27,18.27,0,0,1,537.84,57.05Z" style="fill:#fff"/><path d="M193.32,78.08V48h5l10.29,16.36h.25L219.11,48h5V78.08h-5.2V57.87h-.25l-8.05,12.81h-3.74L198.77,58h-.24V78.08Z" style="fill:#fff"/><path d="M235.58,49.28a3.05,3.05,0,0,1-.87,2.28,3.2,3.2,0,0,1-2.34.86,3.07,3.07,0,0,1-2.3-.86,3.15,3.15,0,0,1-.83-2.28,3.22,3.22,0,0,1,.85-2.34,3.05,3.05,0,0,1,2.28-.87,3,3,0,0,1,3.21,3.21ZM235,78.08h-5.12V55.79H235Z" style="fill:#fff"/><path d="M240.46,78.08V55.79h5.17v3h.2a7.14,7.14,0,0,1,2.73-2.58,7.66,7.66,0,0,1,3.74-1,6.88,6.88,0,0,1,5.45,2.22,9.16,9.16,0,0,1,2,6.28V78.08h-5.17V64.74a4.94,4.94,0,0,0-1.14-3.4,3.75,3.75,0,0,0-2.93-1.28,5.06,5.06,0,0,0-2.56.63,4.23,4.23,0,0,0-1.69,1.79,5.89,5.89,0,0,0-.59,2.67V78.08Z" style="fill:#fff"/><path d="M270.73,49.28a3,3,0,0,1-.88,2.28,3.19,3.19,0,0,1-2.33.86,3.05,3.05,0,0,1-2.3-.86,3.11,3.11,0,0,1-.84-2.28,3.23,3.23,0,0,1,.86-2.34,3.05,3.05,0,0,1,2.28-.87,3,3,0,0,1,3.21,3.21Zm-.61,28.8H265V55.79h5.13Z" style="fill:#fff"/></svg>