<?xml version="1.0" encoding="UTF-8"?><svg id="a" xmlns="http://www.w3.org/2000/svg" width="540" height="164.67" viewBox="0 0 540 164.67"><path d="M.13,159.57v-18.12h2.99l6.2,9.86h.15l6.2-9.86h2.99v18.12h-3.14v-12.18h-.15l-4.85,7.72h-2.26l-4.85-7.67h-.15v12.14H.12h.01Z" style="fill:#fff;"/><path d="M25.6,159.91c-.82,0-1.55-.16-2.21-.47-.65-.31-1.17-.75-1.54-1.32-.38-.57-.56-1.25-.56-2.04,0-.95.25-1.78.75-2.5s1.22-1.28,2.17-1.68,2.07-.6,3.36-.6h1.91v-.51c0-.7-.24-1.27-.72-1.69s-1.12-.64-1.9-.64c-.57,0-1.08.12-1.53.37s-.84.6-1.16,1.08l-2.21-1.52c.6-.87,1.33-1.52,2.18-1.95s1.83-.65,2.94-.65,2.04.2,2.87.61,1.48.99,1.94,1.75.69,1.65.69,2.68v8.73h-3.09v-1.69h-.15c-.33.64-.83,1.14-1.5,1.5s-1.41.54-2.23.54h-.01ZM26.46,157.29c.49,0,.96-.09,1.42-.28s.84-.47,1.14-.85.45-.83.45-1.37v-.86h-1.25c-1.26,0-2.2.17-2.83.5-.63.34-.94.82-.94,1.46,0,.43.18.76.55,1.02.37.25.85.38,1.46.38h0Z" style="fill:#fff;"/><path d="M40.26,159.91c-1.36,0-2.53-.28-3.52-.83s-1.71-1.3-2.17-2.23l2.33-1.62c.39.67.87,1.18,1.45,1.53.57.35,1.21.53,1.91.53s1.21-.13,1.58-.38.55-.58.55-.99c0-.44-.2-.8-.61-1.08s-1.04-.51-1.89-.71c-1.59-.36-2.8-.88-3.65-1.57s-1.27-1.58-1.27-2.7c0-1.23.47-2.21,1.42-2.95.95-.74,2.21-1.12,3.78-1.12,1.19,0,2.24.25,3.13.76s1.59,1.2,2.1,2.08l-2.33,1.59c-.36-.57-.78-1.02-1.27-1.34-.49-.32-1.02-.48-1.59-.48-.64,0-1.14.12-1.5.37s-.54.58-.54,1.01c0,.39.22.73.65,1.02.43.29,1.15.54,2.15.77,1.5.33,2.65.83,3.43,1.52s1.18,1.54,1.18,2.57c0,.83-.22,1.57-.66,2.22s-1.07,1.14-1.88,1.5c-.81.35-1.73.53-2.76.53h-.02,0Z" style="fill:#fff;"/><path d="M46.71,149.05v-2.92h8.85v2.92h-8.85ZM53.06,159.99c-1.37,0-2.43-.38-3.16-1.14-.74-.76-1.1-1.86-1.1-3.3v-13.39h3.14v12.99c0,.59.16,1.04.48,1.36s.77.48,1.36.48c.46,0,.96-.08,1.5-.25v2.92c-.67.21-1.41.32-2.21.32h0Z" style="fill:#fff;"/><path d="M63.26,159.91c-1.32,0-2.48-.29-3.46-.86s-1.74-1.38-2.27-2.43c-.53-1.05-.8-2.28-.8-3.7s.25-2.7.76-3.78,1.24-1.91,2.19-2.49c.96-.58,2.06-.87,3.32-.87,1.19,0,2.24.25,3.14.74s1.59,1.19,2.08,2.11c.49.91.74,1.98.74,3.19,0,.7-.08,1.39-.25,2.06h-10.1l.07-2.53h7.09c0-.6-.1-1.12-.31-1.56-.2-.43-.51-.77-.93-1.02s-.93-.37-1.53-.37c-.67,0-1.24.18-1.7.53-.47.35-.81.87-1.04,1.54-.23.68-.34,1.52-.34,2.51,0,.87.13,1.61.38,2.23s.63,1.1,1.13,1.45c.5.34,1.12.51,1.85.51.6,0,1.15-.15,1.64-.47.49-.31.91-.78,1.25-1.4l2.35,1.62c-.46.88-1.14,1.6-2.03,2.15-.9.55-1.98.82-3.24.82v.02h0Z" style="fill:#fff;"/><path d="M71.4,159.57v-13.43h3.11v2.48h.12c.49-.9,1.15-1.59,1.99-2.08.83-.49,1.83-.74,2.99-.74h.15v3.14h-.22c-1.13,0-2.06.14-2.81.43s-1.3.7-1.67,1.25-.55,1.19-.55,1.92v7.04h-3.11Z" style="fill:#fff;"/><path d="M81.65,164.67v-18.53h3.11v1.72h.12c.46-.64,1.02-1.14,1.69-1.51s1.39-.55,2.16-.55c1.08,0,2.03.29,2.86.86s1.47,1.38,1.92,2.42.69,2.24.69,3.59c0,1.44-.23,2.71-.69,3.8-.46,1.1-1.1,1.95-1.94,2.55-.83.6-1.79.91-2.87.91-.8,0-1.53-.18-2.18-.54s-1.2-.87-1.64-1.52h-.12v6.82h-3.11v-.02h0ZM84.66,152.85c0,.82.13,1.53.39,2.15.26.61.63,1.09,1.09,1.43.47.34,1.01.51,1.63.51s1.2-.17,1.7-.51.88-.82,1.15-1.43c.27-.61.4-1.33.4-2.15s-.14-1.54-.4-2.16-.65-1.1-1.13-1.43c-.48-.34-1.03-.5-1.65-.5s-1.18.17-1.67.5-.87.81-1.13,1.43c-.26.62-.39,1.34-.39,2.16h.01Z" style="fill:#fff;"/><path d="M100.38,142.21c0,.57-.18,1.03-.53,1.37s-.82.52-1.41.52-1.05-.17-1.38-.52c-.34-.34-.5-.8-.5-1.37s.17-1.06.51-1.41.8-.53,1.37-.53,1.06.18,1.41.53.53.82.53,1.41h0ZM100.01,159.57h-3.09v-13.43h3.09v13.43Z" style="fill:#fff;"/><path d="M109.25,159.91c-1.32,0-2.48-.29-3.46-.86-.98-.57-1.74-1.38-2.27-2.43s-.8-2.28-.8-3.7.25-2.7.76-3.78,1.24-1.91,2.19-2.49,2.06-.87,3.32-.87c1.19,0,2.24.25,3.14.74s1.59,1.19,2.08,2.11c.49.91.74,1.98.74,3.19,0,.7-.08,1.39-.25,2.06h-10.1l.07-2.53h7.09c0-.6-.1-1.12-.31-1.56-.2-.43-.51-.77-.93-1.02s-.93-.37-1.53-.37c-.67,0-1.24.18-1.7.53-.47.35-.81.87-1.04,1.54-.23.68-.34,1.52-.34,2.51,0,.87.13,1.61.38,2.23s.63,1.1,1.13,1.45c.5.34,1.12.51,1.85.51.6,0,1.15-.15,1.64-.47.49-.31.91-.78,1.25-1.4l2.35,1.62c-.46.88-1.14,1.6-2.03,2.15-.9.55-1.98.82-3.24.82v.02h0Z" style="fill:#fff;"/><path d="M123.3,159.91c-1.31,0-2.45-.29-3.43-.87s-1.74-1.4-2.27-2.46-.8-2.3-.8-3.73.27-2.66.8-3.73c.53-1.06,1.29-1.88,2.27-2.45.98-.57,2.12-.86,3.43-.86,1.09,0,2.11.28,3.05.83.94.56,1.66,1.3,2.15,2.23l-2.45,1.72c-.34-.6-.76-1.07-1.25-1.38-.49-.32-1.03-.48-1.62-.48-.65,0-1.22.17-1.7.5-.48.34-.85.82-1.12,1.45-.26.63-.39,1.35-.39,2.17s.13,1.56.39,2.18.63,1.1,1.1,1.43c.47.34,1.04.5,1.69.5.6,0,1.15-.16,1.64-.48.49-.32.91-.78,1.25-1.39l2.45,1.72c-.49.93-1.21,1.68-2.15,2.24-.94.56-1.96.85-3.05.85h0Z" style="fill:#fff;"/><path d="M136.42,159.91c-1.32,0-2.48-.29-3.46-.86-.98-.57-1.74-1.38-2.27-2.43s-.8-2.28-.8-3.7.25-2.7.76-3.78,1.24-1.91,2.19-2.49,2.06-.87,3.32-.87c1.19,0,2.24.25,3.14.74s1.59,1.19,2.08,2.11c.49.91.74,1.98.74,3.19,0,.7-.08,1.39-.25,2.06h-10.1l.07-2.53h7.09c0-.6-.1-1.12-.31-1.56-.2-.43-.51-.77-.93-1.02s-.93-.37-1.53-.37c-.67,0-1.24.18-1.7.53-.47.35-.81.87-1.04,1.54-.23.68-.34,1.52-.34,2.51,0,.87.13,1.61.38,2.23s.63,1.1,1.13,1.45c.5.34,1.12.51,1.85.51.6,0,1.15-.15,1.64-.47.49-.31.91-.78,1.25-1.4l2.35,1.62c-.46.88-1.14,1.6-2.03,2.15-.9.55-1.98.82-3.24.82v.02h0Z" style="fill:#fff;"/><path d="M149.34,159.91c-1.36,0-2.53-.28-3.52-.83s-1.71-1.3-2.17-2.23l2.33-1.62c.39.67.87,1.18,1.45,1.53.57.35,1.21.53,1.91.53s1.21-.13,1.58-.38.55-.58.55-.99c0-.44-.2-.8-.61-1.08s-1.04-.51-1.89-.71c-1.59-.36-2.8-.88-3.65-1.57s-1.27-1.58-1.27-2.7c0-1.23.47-2.21,1.42-2.95.95-.74,2.21-1.12,3.78-1.12,1.19,0,2.24.25,3.13.76s1.59,1.2,2.1,2.08l-2.33,1.59c-.36-.57-.78-1.02-1.27-1.34-.49-.32-1.02-.48-1.59-.48-.64,0-1.14.12-1.5.37s-.54.58-.54,1.01c0,.39.22.73.65,1.02.43.29,1.15.54,2.15.77,1.5.33,2.65.83,3.43,1.52s1.18,1.54,1.18,2.57c0,.83-.22,1.57-.66,2.22s-1.07,1.14-1.88,1.5c-.81.35-1.73.53-2.76.53h-.02,0Z" style="fill:#fff;"/><path d="M162.77,149.05v-2.92h8.46v2.92h-8.46,0ZM164.71,145.11c0-1.45.38-2.58,1.13-3.38s1.81-1.2,3.16-1.2c.93,0,1.71.11,2.33.34v2.94c-.31-.11-.6-.2-.86-.27-.26-.07-.52-.1-.78-.1-.54,0-.98.16-1.34.48-.35.32-.53.77-.53,1.36v14.29h-3.11v-14.46h0Z" style="fill:#fff;"/><path d="M176.43,159.91c-.82,0-1.55-.16-2.21-.47s-1.17-.75-1.54-1.32c-.38-.57-.56-1.25-.56-2.04,0-.95.25-1.78.75-2.5s1.22-1.28,2.17-1.68,2.07-.6,3.36-.6h1.91v-.51c0-.7-.24-1.27-.72-1.69s-1.12-.64-1.9-.64c-.57,0-1.08.12-1.53.37s-.84.6-1.16,1.08l-2.21-1.52c.6-.87,1.33-1.52,2.18-1.95s1.83-.65,2.94-.65,2.03.2,2.87.61c.83.41,1.48.99,1.94,1.75s.69,1.65.69,2.68v8.73h-3.09v-1.69h-.15c-.33.64-.83,1.14-1.5,1.5s-1.41.54-2.23.54h-.01ZM177.28,157.29c.49,0,.96-.09,1.42-.28.46-.19.84-.47,1.14-.85.3-.38.45-.83.45-1.37v-.86h-1.25c-1.26,0-2.2.17-2.83.5-.63.34-.94.82-.94,1.46,0,.43.18.76.55,1.02.37.25.85.38,1.46.38h0Z" style="fill:#fff;"/><path d="M186.31,159.57v-13.43h3.11v2.48h.12c.49-.9,1.15-1.59,1.99-2.08.83-.49,1.83-.74,2.99-.74h.15v3.14h-.22c-1.13,0-2.06.14-2.81.43-.74.29-1.3.7-1.67,1.25-.37.55-.55,1.19-.55,1.92v7.04h-3.11,0Z" style="fill:#fff;"/><path d="M209.45,159.91c-1.31,0-2.45-.29-3.43-.87-.98-.58-1.74-1.4-2.27-2.46-.53-1.06-.8-2.3-.8-3.73s.27-2.66.8-3.73c.53-1.06,1.29-1.88,2.27-2.45.98-.57,2.12-.86,3.43-.86,1.09,0,2.11.28,3.05.83.94.56,1.65,1.3,2.15,2.23l-2.45,1.72c-.34-.6-.76-1.07-1.25-1.38-.49-.32-1.03-.48-1.62-.48-.65,0-1.22.17-1.7.5-.48.34-.85.82-1.12,1.45-.26.63-.39,1.35-.39,2.17s.13,1.56.39,2.18.63,1.1,1.1,1.43c.47.34,1.04.5,1.69.5.6,0,1.15-.16,1.64-.48.49-.32.91-.78,1.25-1.39l2.45,1.72c-.49.93-1.21,1.68-2.15,2.24-.94.56-1.96.85-3.05.85h0Z" style="fill:#fff;"/><path d="M216.78,156.83v-15.37h3.11v14.39c0,.29.08.52.23.67.16.16.38.23.67.23h.64v2.92h-1.57c-1.01,0-1.78-.24-2.3-.72s-.78-1.19-.78-2.12h0Z" style="fill:#fff;"/><path d="M229.28,159.91c-1.29,0-2.41-.29-3.37-.87s-1.69-1.4-2.21-2.46c-.52-1.06-.77-2.3-.77-3.73s.26-2.69.77-3.75c.51-1.06,1.25-1.88,2.21-2.45.96-.57,2.08-.86,3.37-.86s2.39.29,3.35.86,1.7,1.39,2.22,2.45.78,2.31.78,3.75-.26,2.67-.78,3.74-1.26,1.89-2.22,2.46-2.07.86-3.35.86h0ZM229.28,156.97c.65,0,1.22-.17,1.69-.5s.84-.81,1.09-1.43.38-1.35.38-2.18-.13-1.56-.38-2.19-.62-1.11-1.09-1.43c-.47-.33-1.04-.49-1.69-.49s-1.22.16-1.69.49-.84.8-1.1,1.43c-.26.63-.39,1.36-.39,2.19s.13,1.56.39,2.18.63,1.1,1.1,1.43c.47.34,1.04.5,1.69.5Z" style="fill:#fff;"/><path d="M242.84,159.91c-1.36,0-2.53-.28-3.52-.83s-1.71-1.3-2.17-2.23l2.33-1.62c.39.67.87,1.18,1.45,1.53.57.35,1.21.53,1.91.53s1.21-.13,1.58-.38.55-.58.55-.99c0-.44-.2-.8-.61-1.08-.41-.28-1.04-.51-1.89-.71-1.59-.36-2.8-.88-3.65-1.57s-1.27-1.58-1.27-2.7c0-1.23.47-2.21,1.42-2.95.95-.74,2.21-1.12,3.78-1.12,1.19,0,2.24.25,3.13.76s1.59,1.2,2.1,2.08l-2.33,1.59c-.36-.57-.78-1.02-1.27-1.34-.49-.32-1.02-.48-1.59-.48-.64,0-1.14.12-1.5.37s-.54.58-.54,1.01c0,.39.22.73.65,1.02.43.29,1.15.54,2.15.77,1.5.33,2.65.83,3.43,1.52s1.18,1.54,1.18,2.57c0,.83-.22,1.57-.66,2.22s-1.07,1.14-1.88,1.5c-.81.35-1.73.53-2.76.53h-.02Z" style="fill:#fff;"/><path d="M256.32,159.91c-1.32,0-2.48-.29-3.46-.86-.98-.57-1.74-1.38-2.27-2.43-.53-1.05-.8-2.28-.8-3.7s.25-2.7.76-3.78,1.24-1.91,2.19-2.49c.96-.58,2.06-.87,3.32-.87,1.19,0,2.24.25,3.14.74.9.49,1.59,1.19,2.08,2.11.49.91.74,1.98.74,3.19,0,.7-.08,1.39-.25,2.06h-10.1l.07-2.53h7.09c0-.6-.1-1.12-.31-1.56-.2-.43-.51-.77-.93-1.02-.42-.25-.93-.37-1.53-.37-.67,0-1.24.18-1.7.53-.47.35-.81.87-1.04,1.54-.23.68-.34,1.52-.34,2.51,0,.87.13,1.61.38,2.23s.63,1.1,1.13,1.45,1.12.51,1.85.51c.6,0,1.15-.15,1.64-.47.49-.31.91-.78,1.25-1.4l2.35,1.62c-.46.88-1.14,1.6-2.04,2.15-.9.55-1.98.82-3.24.82l.02.02h0Z" style="fill:#fff;"/><path d="M264.46,159.57v-13.43h3.11v2.48h.12c.49-.9,1.15-1.59,1.99-2.08.83-.49,1.83-.74,2.99-.74h.15v3.14h-.22c-1.13,0-2.06.14-2.81.43-.74.29-1.3.7-1.67,1.25-.37.55-.55,1.19-.55,1.92v7.04h-3.11,0Z" style="fill:#fff;"/><rect x="219.14" y="103.67" width="4.03" height="1.11" style="fill:#fff;"/><path d="M204.34,101.01c-.09-.44-.2-.7-.3-.87-.21-.4-.68-1-1.78-1-.36,0-1.04.04-1.67.71-.51.56-.98,1.49-.98,3.17,0,1.12.23,2.43,1.11,3.25.61.56,1.28.58,1.58.58.21,0,.75-.01,1.25-.4.8-.63.87-1.79.9-2.02h1.41c-.01.34-.06,1.48-.71,2.42-.37.54-1.18,1.35-2.79,1.35-.33,0-1.12-.03-1.94-.43-1.11-.56-2.45-1.89-2.45-4.74,0-2.48.95-3.79,1.81-4.44,1-.75,2.05-.81,2.51-.81,1.31,0,2.52.57,3.09,1.81.21.46.28.91.34,1.41h-1.38,0Z" style="fill:#fff;"/><path d="M210.43,98.49c.97-.66,1.92-.7,2.33-.7,1.51,0,2.43.71,2.85,1.12.68.65,1.48,1.89,1.48,4.08,0,.6-.03,3.22-2.08,4.56-.68.44-1.42.66-2.25.66-.36,0-1.21-.04-2.06-.54-2.23-1.28-2.28-4.07-2.28-4.67.01-1.69.53-3.5,2.01-4.51M210.56,105.44c.21.41.43.64.57.78.63.61,1.31.66,1.64.66.93,0,1.65-.47,2.11-1.27.27-.46.58-1.32.58-2.61,0-.28.03-2.21-1.07-3.25-.26-.24-.75-.63-1.62-.63-.21,0-.71.01-1.2.31-1.55.91-1.49,3.32-1.49,3.56,0,.28,0,1.47.48,2.43" style="fill:#fff;"/><polygon points="231.43 102.15 231.43 103.49 227.39 103.49 227.39 106.69 231.91 106.69 231.91 108.03 225.83 108.03 225.83 97.98 231.78 97.98 231.78 99.3 227.39 99.3 227.39 102.15 231.43 102.15" style="fill:#fff;"/><polygon points="236.78 97.98 241.22 105.65 241.22 97.98 242.69 97.98 242.69 108.03 241.08 108.03 236.6 100.36 236.6 108.03 235.11 108.03 235.11 97.98 236.78 97.98" style="fill:#fff;"/><path d="M254.05,102.93v4.16c-.11.09-.43.3-.78.48-.41.2-1.44.64-2.75.64-1.79,0-2.79-.81-3.27-1.37-.54-.63-1.21-1.85-1.21-3.86,0-.57.01-3.27,2.08-4.57.37-.23,1.15-.63,2.26-.63,1.27,0,2.52.51,3.13,1.69.18.34.33.73.4,1.51h-1.38c-.07-.36-.24-1.39-1.34-1.74-.33-.11-.67-.13-.78-.13-.41,0-1.37.1-2.04,1.05-.54.78-.71,1.92-.71,2.83,0,1.82.66,3.84,2.88,3.84.73,0,1.57-.26,2.19-.66v-2.05h-2.04v-1.22h3.36v.03Z" style="fill:#fff;"/><rect x="257.61" y="97.98" width="1.57" height="10.05" style="fill:#fff;"/><polygon points="264.77 97.98 269.21 105.65 269.21 97.98 270.67 97.98 270.67 108.03 269.07 108.03 264.58 100.36 264.58 108.03 263.1 108.03 263.1 97.98 264.77 97.98" style="fill:#fff;"/><polygon points="280.2 102.15 280.2 103.49 276.15 103.49 276.15 106.69 280.68 106.69 280.68 108.03 274.6 108.03 274.6 97.98 280.55 97.98 280.55 99.3 276.15 99.3 276.15 102.15 280.2 102.15" style="fill:#fff;"/><polygon points="289.48 102.15 289.48 103.49 285.44 103.49 285.44 106.69 289.96 106.69 289.96 108.03 283.88 108.03 283.88 97.98 289.83 97.98 289.83 99.3 285.44 99.3 285.44 102.15 289.48 102.15" style="fill:#fff;"/><path d="M295.31,97.98c.56,0,1.3,0,1.85.07.41.07,1.61.24,2.26,1.37.16.26.4.78.38,1.54,0,.24-.03.98-.44,1.62-.21.33-.5.6-.81.81-.28.19-.54.27-.66.33l2.48,4.31h-1.84l-2.29-4.06h-1.55v4.06h-1.55v-10.05h2.17,0ZM296.21,102.63c.41-.03,2.01-.06,1.99-1.71,0-.81-.46-1.2-.73-1.34-.57-.33-1.55-.27-2.15-.28h-.63v3.33h1.52Z" style="fill:#fff;"/><polygon points="308.85 102.15 308.85 103.49 304.81 103.49 304.81 106.69 309.34 106.69 309.34 108.03 303.26 108.03 303.26 97.98 309.21 97.98 309.21 99.3 304.81 99.3 304.81 102.15 308.85 102.15" style="fill:#fff;"/><path d="M315.4,97.98c1.64.06,2.41.38,3.03.87.73.56,1.84,1.85,1.82,4.16,0,1.41-.46,2.93-1.52,3.91-1.22,1.14-2.82,1.11-4.34,1.11h-1.84v-10.05h2.85,0ZM314.93,106.69c.78,0,1.14-.01,1.51-.11.7-.16,1.68-.63,2.06-2.25.14-.61.14-1.11.14-1.34,0-1.45-.5-3.05-2.05-3.52-.53-.16-1-.17-2.05-.17h-.44v7.39h.83,0Z" style="fill:#fff;"/><polygon points="329.59 97.98 331.53 106.17 333.49 97.98 334.83 97.98 336.81 106.17 338.76 97.98 340.2 97.98 337.69 108.06 335.96 108.06 334.15 100.9 332.35 108.06 330.62 108.06 328.13 97.98 329.59 97.98" style="fill:#fff;"/><rect x="343.06" y="97.98" width="1.57" height="10.05" style="fill:#fff;"/><polygon points="354.39 97.98 354.39 99.3 351.74 99.3 351.74 108.03 350.19 108.03 350.19 99.3 347.56 99.3 347.56 97.98 354.39 97.98" style="fill:#fff;"/><polygon points="363.2 102.14 363.2 97.98 364.75 97.98 364.75 108.03 363.2 108.03 363.2 103.43 358.87 103.43 358.87 108.03 357.31 108.03 357.31 97.98 358.87 97.98 358.87 102.14 363.2 102.14" style="fill:#fff;"/><path d="M394.9,123.34c11.18,0,20.24-9.06,20.24-20.24s-9.06-20.24-20.24-20.24-20.24,9.06-20.24,20.24,9.06,20.24,20.24,20.24Z" style="fill:#e60012;"/><path d="M410.99,104.25s-.53.38-.9.38c-.28,0-.44-.24-.44-.5,0-.59.92-3.47.92-3.47l-2.24.03-.12.39s-.33-.66-1.5-.66c-2.28,0-3.53,1.97-3.59,3.12-.01.25-.01.29-.01.29-.05.06-.86.98-1.85.98-.79,0-.92-.66-.92-1.09,0-.46.38-2.28,1.46-2.28.59,0,.95.51.95.51l.32-1.04s-.5-.39-1.53-.39c-2.21,0-3.71,1.65-3.77,3.15-.01.22-.02.3-.02.31-.07.09-.62.71-1.32.71-.48,0-.48-.38-.48-.54,0-.23.95-3.47.95-3.47l-2.49.04-.89,3.15s-1.37.99-3.28,1.13c-.98.07-1.32-.53-1.32-.88v-.15s.4.03.7.03c.23,0,3.15-.2,3.15-1.98,0-1.02-1.02-1.41-2.31-1.41-2.38,0-4.05,1.48-4.05,3.23,0,1.6,1.37,2.28,3.13,2.28,2,0,3.95-1.22,3.95-1.22,0,0,.11,1.22,1.68,1.22s2.9-1.22,2.9-1.22c0,0,.71,1.17,2.33,1.17s2.92-1.34,2.92-1.34c0,0,.44,1.26,2.08,1.26,1.28,0,1.97-.84,1.97-.84,0,0,.37.84,1.48.84,1.36,0,2.38-.96,2.38-.96l-.24-.78h0ZM390.56,101.33c.33.02.56.26.55.5-.06,1.58-2.01,1.34-2.01,1.34,0,0,.32-1.91,1.46-1.84h0ZM406.24,104.81c-.61,0-.61-.68-.61-.87,0-.52.4-2.57,1.52-2.57.47,0,.72.4.72.69,0,.06-.28,2.74-1.62,2.74h-.01Z" style="fill:#fff;"/><path d="M411.44,106.38s-5.24,1.82-15.23,1.7c-6.89-.08-12.15-2.12-12.15-2.12,0,0,.17-.33.28-.56.69-1.41,1.51-4.27,1.51-4.27,0,0,4.74-1.32,4.74-5.08,0-1.19-1.11-1.96-2.2-2.01-3.82-.15-4.88,5.29-5.11,6.22-.01.07-.02.09-.02.09-1.18-.16-1.84-.4-1.84-.4l-.27.73c.79.38,1.95.5,1.95.5-.23,1.46-1.36,4.22-1.36,4.22,0,0-1.05-.35-2.34-.35-1.68,0-2.26.8-2.3,1.3-.11,1.3,1.52,1.91,2.66,1.91,2.23,0,3.38-1.2,3.38-1.2,0,0,6.26,2.37,12.79,2.37,8.55,0,15.76-2.28,15.76-2.28l-.24-.78h-.01ZM388.56,95.13c.73,0,.98.59.91,1.13-.36,3.14-3.48,3.86-3.48,3.86,0,0,.78-4.99,2.56-4.99h.01ZM379.26,107.26c-.63.02-1.04-.4-1.04-.63,0-.52.64-.6,1.04-.57.98.05,1.82.39,1.82.39,0,0-.99.79-1.82.82h0Z" style="fill:#fff;"/><path d="M396.15,97.72c-.79,0-1.38.32-1.38,1.07s.68.96,1.38.96,1.35-.33,1.35-1.1-.78-.93-1.35-.93Z" style="fill:#fff;"/><path d="M224.26,72.83v-24.3l-6.54,3.37v-5.63l7.57-3.87h4.4v30.43h-5.43Z" style="fill:#fff;"/><path d="M240.54,64.31c.71,1.37,1.55,2.41,2.51,3.1.96.7,2.12,1.05,3.5,1.05,1.01,0,1.92-.21,2.71-.62.79-.41,1.41-1.01,1.85-1.79s.66-1.68.66-2.69-.22-1.91-.66-2.67c-.44-.77-1.06-1.36-1.85-1.77-.8-.41-1.73-.62-2.8-.62-1.01,0-1.95.23-2.8.7-.85.47-1.55,1.15-2.1,2.06l-4.56-2.1,1.23-16.57h17.35v4.93h-12.29l-.7,8.22-1.11.08c.74-.71,1.65-1.26,2.73-1.64,1.08-.38,2.2-.58,3.35-.58,1.95,0,3.65.4,5.1,1.21,1.45.81,2.57,1.95,3.35,3.43s1.17,3.19,1.17,5.14c0,2.06-.44,3.84-1.32,5.37s-2.12,2.7-3.74,3.54c-1.62.84-3.52,1.25-5.72,1.25-2.44,0-4.54-.55-6.31-1.64-1.77-1.1-3.06-2.59-3.89-4.48l4.32-2.92h.02,0Z" style="fill:#fff;"/><path d="M269.32,72.83v-25.33h-9.01v-5.06h23.4v5.06h-9v25.33h-5.39,0Z" style="fill:#fff;"/><path d="M304.55,62.42v-4.98h7.85c1.95,0,3.45-.43,4.5-1.3,1.05-.86,1.58-2.1,1.58-3.72s-.53-2.86-1.58-3.74c-1.06-.88-2.56-1.32-4.5-1.32h-5.43v25.45h-5.39v-30.39h11.51c3.43,0,6.11.88,8.04,2.63,1.93,1.75,2.9,4.21,2.9,7.36s-.93,5.61-2.8,7.36c-1.86,1.75-4.46,2.63-7.77,2.63h-8.92v.02h0Z" style="fill:#fff;"/><path d="M328.07,72.83v-22.53h5.22v4.15h.21c.82-1.51,1.93-2.67,3.33-3.5s3.07-1.23,5.02-1.23h.25v5.26h-.37c-1.89,0-3.46.24-4.71.72s-2.18,1.18-2.8,2.1-.93,1.99-.93,3.23v11.8h-5.22Z" style="fill:#fff;"/><path d="M354.26,73.4c-2.17,0-4.05-.49-5.65-1.46s-2.84-2.35-3.7-4.13c-.86-1.78-1.3-3.87-1.3-6.25s.43-4.51,1.3-6.29,2.1-3.15,3.7-4.11,3.49-1.44,5.65-1.44,4.01.48,5.61,1.44c1.6.96,2.84,2.33,3.72,4.11s1.32,3.88,1.32,6.29-.44,4.48-1.32,6.27c-.88,1.8-2.12,3.17-3.72,4.13s-3.47,1.44-5.61,1.44ZM354.26,68.47c1.1,0,2.04-.28,2.84-.84s1.4-1.36,1.83-2.41c.42-1.04.64-2.26.64-3.66s-.21-2.62-.64-3.68c-.43-1.05-1.03-1.86-1.83-2.41s-1.74-.82-2.84-.82-2.04.27-2.84.82-1.41,1.35-1.85,2.41-.66,2.28-.66,3.68.22,2.62.66,3.66,1.06,1.84,1.85,2.41,1.74.84,2.84.84Z" style="fill:#fff;"/><path d="M112.39,41.84c-4.57,0-9.14.58-12.03,3.42s-4,7.11-4,12.35.99,9.43,3.89,12.27c2.89,2.83,7.58,3.52,12.14,3.52s9.11-.58,12-3.42,4.03-7.14,4.03-12.37-1.01-9.4-3.9-12.25c-2.89-2.84-7.56-3.52-12.13-3.52ZM119.32,65.16c-1.61,1.84-4.52,2.16-6.93,2.16s-5.31-.32-6.92-2.16c-1.61-1.84-1.72-4.37-1.72-7.56s.1-5.65,1.71-7.49,4.19-2.16,6.92-2.16,5.32.32,6.92,2.16c1.61,1.84,1.71,4.3,1.71,7.49s-.1,5.71-1.71,7.55h.02,0ZM49.13,42.4h-6.46c-.28,0-.5.22-.5.49v29.49c0,.27.22.49.5.49h6.46c.27,0,.5-.22.5-.49v-29.49c0-.27-.23-.49-.5-.49ZM21.96,57.38l11.48-14.21c.25-.31.03-.77-.37-.77h-8.28c-.2,0-.38.09-.5.25l-7.59,10.06-7.4-10.05c-.12-.16-.31-.26-.51-.26H.49c-.4,0-.62.46-.37.77l11.62,14.48L.1,72.11c-.24.31-.02.76.37.76h8.3c.2,0,.39-.1.51-.26l7.75-10.02,7.34,10.02c.12.16.31.26.51.26h8.2c.39,0,.61-.45.37-.76l-11.51-14.72h.02ZM179.35,44.64c-2.63-2.45-6.86-2.74-10.28-2.74-4.42,0-7.23.94-8.94,1.82h-1.18c-1.67-.92-4.61-1.82-9.23-1.82-3.42,0-7.62.25-10.2,2.42-2.14,1.79-2.63,4.19-2.63,9.09v18.95c0,.27.23.49.5.49h6.46c.28,0,.5-.22.5-.49v-15.6c0-2.81-.11-5.75.5-6.84.47-.85,1.22-1.8,4.72-1.8,4.19,0,5.17.29,5.83,2.15.16.44.23,1.06.27,1.82v20.27c0,.27.23.49.5.49h6.46c.27,0,.5-.22.5-.49v-20.27c.04-.76.11-1.38.27-1.82.66-1.85,1.65-2.15,5.83-2.15,3.51,0,4.25.95,4.72,1.8.61,1.09.5,4.02.5,6.84v15.6c0,.27.23.49.5.49h6.46c.28,0,.5-.22.5-.49v-17.8c0-5.09-.17-7.7-2.56-9.93h0ZM86.6,46.45c-2.99-4.12-8.38-5.36-13.98-5.06-5.68.31-9.63,1.51-10.65,1.89-.63.24-.55.78-.56,1.1-.02,1.09-.11,3.9-.1,5.04,0,.5.62.74,1.14.56,2.07-.73,5.89-1.9,8.97-2.15,3.32-.27,7.82,0,9.07,1.88.59.9.62,2.26.69,3.66-2.07-.19-5.13-.45-8.18-.28-2.37.13-6.92.33-9.59,1.75-2.18,1.16-3.45,2.21-4.13,4.17-.55,1.58-.7,3.47-.52,5.02.4,3.53,1.62,5.28,3.28,6.5,2.61,1.93,5.9,2.95,12.71,2.8,9.06-.2,11.45-3.13,12.65-5.21,2.05-3.54,1.69-9.13,1.63-12.56-.03-1.42-.24-6.1-2.42-9.11h-.01ZM80.69,65.04c-.86,1.8-3.9,2.08-5.71,2.16-3.34.15-5.8.02-7.39-.77-1.06-.52-1.83-1.72-1.9-3.07-.06-1.15-.04-1.75.48-2.43,1.17-1.53,4.24-1.86,7.4-1.98,2.13-.08,5.38.16,7.77.45-.02,2.31-.17,4.63-.65,5.64ZM199.13,42.4h-6.46c-.28,0-.5.22-.5.49v29.49c0,.27.22.49.5.49h6.46c.27,0,.5-.22.5-.49v-29.49c0-.27-.23-.49-.5-.49Z" style="fill:#fff;"/><path d="M121.05,24.48H12.32c-3.75,0-7.1-1.68-9.35-4.34C1.16,18.01.07,15.25.07,12.23H.07C.07,8.85,1.44,5.79,3.66,3.57,5.88,1.35,8.94,0,12.32,0h108.73C124.43,0,127.49,1.37,129.71,3.59c2.22,2.22,3.59,5.28,3.59,8.66h0c0,3.09-1.14,5.91-3.03,8.07-2.24,2.56-5.54,4.17-9.21,4.17h0Z" style="fill:#fff;"/><path d="M94.39,13.17c.16-1.04.94-1.76,2.08-1.76s1.87.72,1.98,1.76h-4.06ZM92.44,13.92c0,2.81,1.92,4.28,4.04,4.28,1.55,0,2.89-.64,3.63-1.95l-1.5-1.02c-.43.91-1.15,1.28-2.03,1.28-1.12,0-2.14-.75-2.19-1.9h5.8s.11-.35.11-.91c0-2.19-1.39-4.04-3.82-4.04-2.75,0-4.04,2.3-4.04,4.25M85.31,14c0-1.55.83-2.57,2.22-2.57,1.31,0,2.16,1.02,2.16,2.59,0,1.44-.88,2.43-2.22,2.43s-2.16-.99-2.16-2.46M83.38,21.88h1.95v-4.52h.05c.78.56,1.6.83,2.43.83,2.03,0,3.9-1.58,3.9-4.28s-1.52-4.25-3.82-4.25c-1.02,0-1.9.4-2.51,1.02h-.05v-.78h-1.95v11.97h0ZM73.02,9.91l4.04,7.78-1.92,4.2h2.08l5.53-11.97h-2.11l-2.57,5.61-2.89-5.61h-2.16,0ZM63.18,17.98h1.95v-4.86h5.45v4.86h1.95V6.6h-1.95v4.68h-5.45v-4.68h-1.95v11.38ZM56.18,17.98h1.84v-8.07h-1.84v8.07ZM55.94,7.61c0-.64.56-1.18,1.15-1.18.69,0,1.18.53,1.18,1.18s-.48,1.15-1.18,1.15c-.59,0-1.15-.53-1.15-1.15M43.27,17.98v-8.07h1.84v.99h.08c.45-.75,1.36-1.23,2.3-1.23,1.31,0,1.95.8,2.19,1.39h.08c.35-.59,1.2-1.39,2.7-1.39,1.82,0,2.67,1.42,2.67,3.23v5.08h-1.84v-4.73c0-.96-.51-1.84-1.44-1.84-1.18,0-1.76.91-1.76,1.98v4.6h-1.82v-4.73c0-.91-.43-1.84-1.42-1.84-1.1,0-1.74.88-1.74,1.98v4.6h-1.84v-.02ZM36.59,14.03c0,1.31.48,2.62,1.95,2.62,1.39,0,2-1.26,2-2.62,0-1.66-.61-2.81-2-2.81-1.28,0-1.95.99-1.95,2.81M34.72,14.03c0-3.02,1.9-4.36,3.82-4.36,2.22,0,3.82,1.55,3.82,4.36,0,2.38-1.42,4.17-3.82,4.17-2.19,0-3.82-1.66-3.82-4.17M28.79,15.74c0,.67.64.91,1.28.91,1.1,0,1.95-.59,1.95-1.87v-.29h-.83c-1.04,0-2.41.21-2.41,1.26M26.94,15.87c0-1.95,1.68-2.89,3.87-2.89h1.2v-.24c0-1.1-.83-1.52-1.66-1.52-.77,0-1.31.37-1.71.94l-1.28-.94c.86-1.12,1.74-1.55,3.13-1.55,1.87,0,3.31,1.12,3.31,3.07v5.24h-1.79v-.69h-.05c-.4.56-1.36.91-2.32.91-1.52,0-2.7-.86-2.7-2.33M23.9,17.98h1.84v-8.07h-1.84v8.07ZM23.66,7.61c0-.64.56-1.18,1.18-1.18.67,0,1.15.53,1.15,1.18s-.48,1.15-1.15,1.15c-.61,0-1.18-.53-1.18-1.15M12.66,17.98h2.02l2.91-4.17,2.89,4.17h2.16l-3.98-5.72,3.96-5.67h-2.19l-2.83,4.09-2.86-4.09h-2.04l3.81,5.67-3.83,5.72s-.02,0-.02,0ZM103.13,13.95v4.04h-1.92v-8.07h1.92v1.26h.05c.7-1.18,1.71-1.5,3.13-1.5h.32v1.9h-.32c-2.24,0-3.18.8-3.18,2.38"/><rect x="118.76" y="6.44" width="1.95" height="11.54"/><path d="M111.27,6.44l-4.3,11.54h2.12l.86-2.45h4.6l.86,2.45h2.14l-4.32-11.54h-1.97.01ZM110.61,13.69l1.66-4.72,1.65,4.72s-3.31,0-3.31,0Z"/></svg>