<svg width="540" height="32" viewBox="0 0 540 32" fill="none" xmlns="http://www.w3.org/2000/svg">
<path d="M147.74 0C152.86 9.44707e-05 156.91 3.16999 156.91 8.0498C156.91 10.5898 155.76 12.8099 153.38 13.9199C156.28 15.4299 158.14 18.2402 158.14 21.7402C158.14 27.33 153.58 31.2997 147.78 31.2998C141.98 31.2998 137.46 27.2501 137.46 21.7803C137.46 18.2503 139.36 15.4299 142.22 13.9199C139.8 12.7699 138.69 10.5497 138.69 8.0498C138.691 3.36991 142.62 0 147.74 0ZM185.23 0.360352C189.24 0.36048 192.49 2.10995 194.08 4.75977L189.64 7.54004C188.69 6.11016 187.38 5.12017 185.2 5.12012C182.9 5.12012 181.03 6.39027 181.03 8.53027C181.03 10.8701 182.97 11.7003 186.03 12.7402C190.67 14.2102 195.51 15.8702 195.51 21.79C195.51 27.71 190.87 30.9199 185 30.9199C179.64 30.9199 175.44 28.1001 173.65 24.4902L173.64 24.4805L178.08 21.7402C179.15 24.1201 181.73 26.1395 185.18 26.1396C188.39 26.1396 190.06 24.35 190.06 22.25C190.06 19.5901 187.6 18.7995 184.271 17.7695C179.951 16.4595 175.58 14.6 175.58 9.04004C175.58 3.48004 179.87 0.360352 185.23 0.360352ZM208.96 10.2695C215.07 10.2695 219.28 14.4398 219.28 21.0996C219.28 21.5796 219.24 21.93 219.2 22.25H204.08C204.36 24.79 206.46 26.54 209.48 26.54C211.15 26.5399 212.61 25.9794 213.49 24.5596L218.57 24.6396C217.46 28.5296 213.93 30.91 209.36 30.9102C203.37 30.9102 198.65 26.74 198.65 20.75H198.64C198.64 14.88 202.85 10.2696 208.96 10.2695ZM259.95 10.2695C266.06 10.2696 270.269 14.4399 270.27 21.0996C270.27 21.5796 270.23 21.93 270.19 22.25H255.07C255.35 24.7899 257.45 26.5399 260.47 26.54C262.14 26.54 263.6 25.9796 264.48 24.5596L269.56 24.6396C268.45 28.5296 264.92 30.9102 260.35 30.9102C254.36 30.91 249.64 26.7399 249.64 20.75H249.63C249.63 14.88 253.84 10.2695 259.95 10.2695ZM281.09 10.2695C284.03 10.2695 286.25 10.9803 288.07 12.5303L285.33 15.8203C284.26 14.8703 282.43 14.1904 281 14.1904C279.77 14.1904 278.74 14.7504 278.74 15.9004C278.741 17.0501 280.13 17.4901 281.99 18C284.89 18.79 288.85 19.8301 288.85 24.5898C288.85 28.0798 285.83 30.9004 281.39 30.9004C278.3 30.9003 275.16 29.7498 273.14 27.9199L273.16 27.9297L275.7 24.2803C276.89 25.5102 279.59 26.6201 281.57 26.6201C282.8 26.62 283.79 26.1799 283.79 24.9502C283.79 23.5602 282.2 23.1204 280.3 22.6104C277.36 21.8204 273.71 20.7798 273.71 16.3799C273.71 12.93 276.8 10.2696 281.09 10.2695ZM38.7695 0.370117C42.6495 0.370117 50.5898 1.36031 50.5898 15.5703C50.5897 29.78 42.6495 30.7695 38.7695 30.7695C34.8894 30.7695 26.9503 29.7794 26.9502 15.5703C26.9502 1.36088 34.8994 0.370197 38.7695 0.370117ZM67.2402 0.360352C70.8801 0.360405 73.8102 1.62017 74.9102 2.16016C75.1799 2.29014 75.3001 2.60982 75.1904 2.88965L73.9404 6.12988C73.8305 6.40977 73.5301 6.56026 73.2402 6.48047C72.4202 6.25047 70.6799 5.83008 68.8799 5.83008C63.3801 5.83014 61.5304 10.0298 61.5303 15.5596C61.5303 21.0895 63.38 25.3495 68.8799 25.3496C70.6898 25.3496 72.42 24.9302 73.25 24.7002C73.53 24.6202 73.8304 24.7698 73.9404 25.0498L75.1904 28.2402C75.3002 28.5201 75.1799 28.8397 74.9102 28.9697C73.8102 29.5197 70.8801 30.7695 67.2402 30.7695C57.7272 30.7695 54.9706 23.7597 54.8076 16.2939L54.7998 15.5596C54.7999 7.83972 57.4204 0.360352 67.2402 0.360352ZM89.9902 0.370117C93.8703 0.370157 101.81 1.3606 101.81 15.5703C101.809 29.7797 93.8703 30.7695 89.9902 30.7695C86.1103 30.7695 78.17 29.78 78.1699 15.5703C78.1699 1.36031 86.1102 0.370117 89.9902 0.370117ZM13.0195 0.370117C19.1295 0.240118 22.8095 4.48992 22.8096 10.0898C22.8096 15.6898 19.1401 19.8202 13.0303 19.8203C10.4807 19.8203 9.12049 19.78 8.40039 19.75C8.03051 19.73 7.71992 20.0198 7.71973 20.3896V29.9502C7.71962 30.3901 7.35986 30.75 6.91992 30.75H1.80957C1.35984 30.7498 1.00011 30.39 1 29.9502V1.41992C1.00004 1.02996 1.31022 0.710195 1.7002 0.700195C1.74085 0.698729 8.3639 0.459848 13.0195 0.370117ZM134.72 5.50977H122.74V13.25H133.06V18.0098H122.74V30.5098H117.3V0.75H134.72V5.50977ZM234.51 10.2695C235.22 10.2695 235.98 10.3898 236.37 10.5498V15.6299C235.81 15.4299 235.18 15.3096 234.54 15.3096C231.76 15.3096 228.91 17.3704 228.91 21.9404V30.5098H223.47V10.6699H228.92V14.1201C230.19 11.6202 232.21 10.2696 234.51 10.2695ZM245.43 30.5098H239.99V10.6699H245.43V30.5098ZM147.77 16.4697C144.91 16.4699 142.89 18.49 142.89 21.3496C142.89 24.2094 144.95 26.4695 147.77 26.4697C150.63 26.4697 152.73 24.2896 152.73 21.3496C152.73 18.4098 150.629 16.4697 147.77 16.4697ZM38.7695 5.05957C34.34 5.05987 33.7197 9.30053 33.7197 15.5703C33.7197 21.8399 34.34 26.0798 38.7695 26.0801C43.1995 26.0801 43.8203 21.7601 43.8203 15.5703C43.8203 9.38031 43.1995 5.05957 38.7695 5.05957ZM89.9902 5.05957C85.5602 5.05957 84.9404 9.30031 84.9404 15.5703C84.9405 21.8401 85.5603 26.0801 89.9902 26.0801C94.4199 26.0799 95.04 21.76 95.04 15.5703C95.04 9.38042 94.42 5.05972 89.9902 5.05957ZM208.95 14.6797C206.65 14.6797 204.51 16.1503 204.11 18.5303H213.87C213.43 15.9903 211.25 14.6798 208.95 14.6797ZM259.94 14.6797C257.64 14.6797 255.5 16.1503 255.1 18.5303H264.86C264.42 15.9904 262.24 14.6798 259.94 14.6797ZM11.25 5.33008C9.75 5.33008 8.85961 5.34035 8.34961 5.36035C7.9998 5.37055 7.73047 5.65013 7.73047 6V14.1904C7.7307 14.5301 7.99995 14.8199 8.34961 14.8301C8.60457 14.8351 8.9524 14.8424 9.4248 14.8486L11.25 14.8701C14.93 14.8701 16.9902 13.3596 16.9902 10.0996C16.9901 6.83988 14.9299 5.33008 11.25 5.33008ZM147.81 4.48047C145.55 4.48068 143.84 6.19038 143.84 8.49023C143.84 10.79 145.51 12.4998 147.81 12.5C150.069 12.5 151.78 10.8301 151.78 8.49023C151.78 6.15023 150.07 4.48047 147.81 4.48047ZM242.68 1.03027C244.39 1.03027 245.81 2.41994 245.81 4.12988C245.81 5.83988 244.38 7.21973 242.68 7.21973C240.98 7.21955 239.59 5.82978 239.59 4.12988C239.59 2.43005 241.02 1.03045 242.68 1.03027Z" fill="white"/>
</svg>
