<svg width="540" height="32" viewBox="0 0 540 32" fill="none" xmlns="http://www.w3.org/2000/svg">
<path d="M272.74 0C277.86 9.44707e-05 281.91 3.16999 281.91 8.0498C281.91 10.5898 280.76 12.8099 278.38 13.9199C281.28 15.4299 283.14 18.2402 283.14 21.7402C283.14 27.33 278.58 31.2997 272.78 31.2998C266.98 31.2998 262.46 27.2501 262.46 21.7803C262.46 18.2503 264.36 15.4299 267.22 13.9199C264.8 12.7699 263.69 10.5497 263.69 8.0498C263.691 3.36991 267.62 0 272.74 0ZM310.23 0.360352C314.24 0.36048 317.49 2.10995 319.08 4.75977L314.64 7.54004C313.69 6.11016 312.38 5.12017 310.2 5.12012C307.9 5.12012 306.03 6.39027 306.03 8.53027C306.03 10.8701 307.97 11.7003 311.03 12.7402C315.67 14.2102 320.51 15.8702 320.51 21.79C320.51 27.71 315.87 30.9199 310 30.9199C304.64 30.9199 300.44 28.1001 298.65 24.4902L298.64 24.4805L303.08 21.7402C304.15 24.1201 306.73 26.1395 310.18 26.1396C313.39 26.1396 315.06 24.35 315.06 22.25C315.06 19.5901 312.6 18.7995 309.271 17.7695C304.951 16.4595 300.58 14.6 300.58 9.04004C300.58 3.48004 304.87 0.360352 310.23 0.360352ZM333.96 10.2695C340.07 10.2695 344.28 14.4398 344.28 21.0996C344.28 21.5796 344.24 21.93 344.2 22.25H329.08C329.36 24.79 331.46 26.54 334.48 26.54C336.15 26.5399 337.61 25.9794 338.49 24.5596L343.57 24.6396C342.46 28.5296 338.93 30.91 334.36 30.9102C328.37 30.9102 323.65 26.74 323.65 20.75H323.64C323.64 14.88 327.85 10.2696 333.96 10.2695ZM384.95 10.2695C391.06 10.2696 395.269 14.4399 395.27 21.0996C395.27 21.5796 395.23 21.93 395.19 22.25H380.07C380.35 24.7899 382.45 26.5399 385.47 26.54C387.14 26.54 388.6 25.9796 389.48 24.5596L394.56 24.6396C393.45 28.5296 389.92 30.9102 385.35 30.9102C379.36 30.91 374.64 26.7399 374.64 20.75H374.63C374.63 14.88 378.84 10.2695 384.95 10.2695ZM406.09 10.2695C409.03 10.2695 411.25 10.9803 413.07 12.5303L410.33 15.8203C409.26 14.8703 407.43 14.1904 406 14.1904C404.77 14.1904 403.74 14.7504 403.74 15.9004C403.741 17.0501 405.13 17.4901 406.99 18C409.89 18.79 413.85 19.8301 413.85 24.5898C413.85 28.0798 410.83 30.9004 406.39 30.9004C403.3 30.9003 400.16 29.7498 398.14 27.9199L398.16 27.9297L400.7 24.2803C401.89 25.5102 404.59 26.6201 406.57 26.6201C407.8 26.62 408.79 26.1799 408.79 24.9502C408.79 23.5602 407.2 23.1204 405.3 22.6104C402.36 21.8204 398.71 20.7798 398.71 16.3799C398.71 12.93 401.8 10.2696 406.09 10.2695ZM163.77 0.370117C167.65 0.370117 175.59 1.36031 175.59 15.5703C175.59 29.78 167.65 30.7695 163.77 30.7695C159.889 30.7695 151.95 29.7794 151.95 15.5703C151.95 1.36088 159.899 0.370197 163.77 0.370117ZM192.24 0.360352C195.88 0.360405 198.81 1.62017 199.91 2.16016C200.18 2.29014 200.3 2.60982 200.19 2.88965L198.94 6.12988C198.83 6.40977 198.53 6.56026 198.24 6.48047C197.42 6.25047 195.68 5.83008 193.88 5.83008C188.38 5.83014 186.53 10.0298 186.53 15.5596C186.53 21.0895 188.38 25.3495 193.88 25.3496C195.69 25.3496 197.42 24.9302 198.25 24.7002C198.53 24.6202 198.83 24.7698 198.94 25.0498L200.19 28.2402C200.3 28.5201 200.18 28.8397 199.91 28.9697C198.81 29.5197 195.88 30.7695 192.24 30.7695C182.727 30.7695 179.971 23.7597 179.808 16.2939L179.8 15.5596C179.8 7.83972 182.42 0.360352 192.24 0.360352ZM214.99 0.370117C218.87 0.370157 226.81 1.3606 226.81 15.5703C226.809 29.7797 218.87 30.7695 214.99 30.7695C211.11 30.7695 203.17 29.78 203.17 15.5703C203.17 1.36031 211.11 0.370117 214.99 0.370117ZM138.02 0.370117C144.129 0.240118 147.81 4.48992 147.81 10.0898C147.81 15.6898 144.14 19.8202 138.03 19.8203C135.481 19.8203 134.12 19.78 133.4 19.75C133.031 19.73 132.72 20.0198 132.72 20.3896V29.9502C132.72 30.3901 132.36 30.75 131.92 30.75H126.81C126.36 30.7498 126 30.39 126 29.9502V1.41992C126 1.02996 126.31 0.710195 126.7 0.700195C126.741 0.698729 133.364 0.459848 138.02 0.370117ZM259.72 5.50977H247.74V13.25H258.06V18.0098H247.74V30.5098H242.3V0.75H259.72V5.50977ZM359.51 10.2695C360.22 10.2695 360.98 10.3898 361.37 10.5498V15.6299C360.81 15.4299 360.18 15.3096 359.54 15.3096C356.76 15.3096 353.91 17.3704 353.91 21.9404V30.5098H348.47V10.6699H353.92V14.1201C355.19 11.6202 357.21 10.2696 359.51 10.2695ZM370.43 30.5098H364.99V10.6699H370.43V30.5098ZM272.77 16.4697C269.91 16.4699 267.89 18.49 267.89 21.3496C267.89 24.2094 269.95 26.4695 272.77 26.4697C275.63 26.4697 277.73 24.2896 277.73 21.3496C277.73 18.4098 275.629 16.4697 272.77 16.4697ZM163.77 5.05957C159.34 5.05987 158.72 9.30053 158.72 15.5703C158.72 21.8399 159.34 26.0798 163.77 26.0801C168.199 26.0801 168.82 21.7601 168.82 15.5703C168.82 9.38031 168.2 5.05957 163.77 5.05957ZM214.99 5.05957C210.56 5.05957 209.94 9.30031 209.94 15.5703C209.94 21.8401 210.56 26.0801 214.99 26.0801C219.42 26.0799 220.04 21.76 220.04 15.5703C220.04 9.38042 219.42 5.05972 214.99 5.05957ZM333.95 14.6797C331.65 14.6797 329.51 16.1503 329.11 18.5303H338.87C338.43 15.9903 336.25 14.6798 333.95 14.6797ZM384.94 14.6797C382.64 14.6797 380.5 16.1503 380.1 18.5303H389.86C389.42 15.9904 387.24 14.6798 384.94 14.6797ZM136.25 5.33008C134.75 5.33008 133.86 5.34035 133.35 5.36035C133 5.37055 132.73 5.65013 132.73 6V14.1904C132.731 14.5301 133 14.8199 133.35 14.8301C133.605 14.8351 133.952 14.8424 134.425 14.8486L136.25 14.8701C139.93 14.8701 141.99 13.3596 141.99 10.0996C141.99 6.83988 139.93 5.33008 136.25 5.33008ZM272.81 4.48047C270.55 4.48068 268.84 6.19038 268.84 8.49023C268.84 10.79 270.51 12.4998 272.81 12.5C275.069 12.5 276.78 10.8301 276.78 8.49023C276.78 6.15023 275.07 4.48047 272.81 4.48047ZM367.68 1.03027C369.39 1.03027 370.81 2.41994 370.81 4.12988C370.81 5.83988 369.38 7.21973 367.68 7.21973C365.98 7.21955 364.59 5.82978 364.59 4.12988C364.59 2.43005 366.02 1.03045 367.68 1.03027Z" fill="white"/>
</svg>
