<?xml version="1.0" encoding="UTF-8"?><svg id="a" xmlns="http://www.w3.org/2000/svg" width="540" height="77.54" viewBox="0 0 540 77.54"><path d="M282.57.5c-4.57,0-9.14.57-12.03,3.42-2.89,2.85-4,7.11-4,12.35s1,9.43,3.89,12.27c2.89,2.83,7.58,3.53,12.14,3.53s9.11-.58,12.01-3.43c2.89-2.84,4.03-7.14,4.03-12.38s-1.01-9.41-3.9-12.25c-2.89-2.85-7.56-3.52-12.13-3.52h-.01ZM289.5,23.83c-1.61,1.84-4.52,2.17-6.93,2.17s-5.31-.32-6.92-2.16-1.72-4.37-1.72-7.56.11-5.65,1.71-7.49c1.61-1.84,4.19-2.16,6.93-2.16s5.32.32,6.93,2.16c1.61,1.84,1.71,4.3,1.71,7.49s-.11,5.71-1.71,7.55h0ZM219.29,1.06h-6.46c-.27,0-.5.22-.5.49v29.5c0,.27.22.49.5.49h6.46c.27,0,.5-.22.5-.49V1.55c0-.27-.23-.49-.5-.49ZM192.12,16.05l11.48-14.22c.25-.31.03-.77-.36-.77h-8.28c-.2,0-.39.09-.5.25l-7.59,10.06-7.41-10.05c-.12-.16-.31-.26-.5-.26h-8.31c-.4,0-.62.45-.37.76l11.62,14.48-11.63,14.47c-.24.31,0,.76.37.76h8.3c.2,0,.39-.1.51-.26l7.75-10.02,7.35,10.02c.12.16.31.26.5.26h8.2c.39,0,.62-.46.37-.76l-11.51-14.73h.01ZM349.54,3.3c-2.63-2.45-6.86-2.75-10.28-2.75-4.42,0-7.23.94-8.94,1.82h-1.18c-1.67-.93-4.61-1.82-9.24-1.82-3.42,0-7.62.25-10.21,2.42-2.14,1.79-2.64,4.18-2.64,9.1v18.95c0,.27.22.49.5.49h6.46c.28,0,.5-.22.5-.49v-15.6c0-2.82-.11-5.75.5-6.84.48-.85,1.22-1.8,4.72-1.8,4.18,0,5.17.29,5.83,2.14.15.43.23,1.07.27,1.82v20.27c0,.27.22.49.5.49h6.46c.27,0,.5-.22.5-.49V10.75c.04-.76.11-1.39.27-1.82.66-1.85,1.65-2.14,5.83-2.14,3.51,0,4.25.95,4.72,1.8.61,1.09.5,4.02.5,6.84v15.6c0,.27.22.49.5.49h6.46c.27,0,.5-.22.5-.49V13.21c0-5.1-.17-7.7-2.56-9.93h.02v.02ZM256.77,5.1c-2.99-4.11-8.39-5.36-14-5.06-5.68.31-9.64,1.51-10.65,1.89-.63.24-.55.78-.55,1.1-.02,1.09-.11,3.9-.11,5.05,0,.5.62.74,1.14.55,2.07-.74,5.89-1.91,8.97-2.15,3.32-.27,7.82,0,9.07,1.89.6.9.62,2.26.69,3.67-2.07-.19-5.14-.45-8.18-.29-2.38.13-6.92.33-9.6,1.75-2.17,1.16-3.46,2.22-4.13,4.17-.55,1.58-.69,3.47-.52,5.02.4,3.53,1.62,5.28,3.27,6.5,2.61,1.93,5.9,2.95,12.72,2.8,9.06-.2,11.45-3.13,12.65-5.21,2.05-3.54,1.69-9.13,1.63-12.57-.03-1.42-.24-6.11-2.42-9.11h.02ZM250.86,23.71c-.86,1.8-3.9,2.08-5.71,2.16-3.34.15-5.8.02-7.39-.76-1.06-.52-1.83-1.72-1.9-3.07-.06-1.16-.04-1.75.48-2.43,1.17-1.53,4.24-1.86,7.4-1.98,2.12-.08,5.38.16,7.77.45-.02,2.31-.17,4.63-.65,5.64h0ZM369.33,1.06h-6.46c-.27,0-.5.22-.5.49v29.5c0,.27.22.49.5.49h6.46c.27,0,.5-.22.5-.49V1.55c0-.27-.22-.49-.5-.49Z"/><path d="M108.58,45.1h5.64l5.72,22.02h.25l6.18-22.02h5.76l6.42,22.02h.25l5.72-22.02h5.59l-8.47,30.41h-5.39l-6.83-22.26h-.29l-6.83,22.26h-5.39l-8.33-30.41h0Z"/><path d="M149.27,69.66c0-4.82,3.95-8.03,10.58-8.03h3.17v-.86c0-2.38-1.77-3.95-4.4-3.95-1.93,0-3.41.86-4.53,2.47l-3.7-2.59c2.02-2.88,4.93-4.32,8.6-4.32,5.47,0,9.26,3.29,9.26,8.47v14.65h-5.23v-2.84h-.25c-1.07,2.18-3.54,3.37-6.25,3.37-4.07,0-7.24-2.35-7.24-6.38h0ZM163.02,67.48v-1.44h-2.1c-4.24,0-6.34,1.15-6.34,3.29,0,1.4,1.32,2.31,3.37,2.31,2.35,0,5.06-1.32,5.06-4.16h0Z"/><path d="M186.1,58.44h-6.09v9.5c0,1.98,1.11,3.08,3.08,3.08.74,0,1.65-.13,2.51-.41v4.9c-1.19.37-2.39.53-3.74.53-4.57,0-7.12-2.64-7.12-7.41v-10.21h-3.5v-4.69h3.5v-6.66h5.26v6.67h6.09v4.69h.01Z"/><path d="M188.15,64.2c0-7.2,4.28-11.81,10.91-11.81,3.74,0,7.12,2.02,8.76,5.19l-4.16,2.84c-1.11-1.98-2.75-3.08-4.82-3.08-3.29,0-5.35,2.71-5.35,6.87s2.06,6.95,5.35,6.95c2.02,0,3.7-1.15,4.82-3.13l4.16,2.88c-1.65,3.13-5.02,5.14-8.76,5.14-6.62,0-10.91-4.61-10.91-11.85Z"/><path d="M211.56,75.51v-30.41h5.23v10.86h.2c1.32-2.18,3.79-3.58,6.54-3.58,4.69,0,7.49,3.08,7.49,8.56v14.57h-5.22v-13.49c0-2.88-1.69-4.73-4.11-4.73-2.97,0-4.9,2.02-4.9,5.14v13.09h-5.23,0Z"/><path d="M251.71,69.55l4.28-2.88c1.69,3.08,4.28,4.49,7.44,4.49,3.5,0,5.84-1.56,5.84-3.87s-1.69-3.41-6.67-4.77c-4.44-1.23-10.08-2.75-10.08-9.05,0-5.19,4.73-8.93,11.19-8.93,5.39,0,8.97,2.64,10.86,6.05l-4.11,2.8c-1.56-2.43-4.03-3.91-6.83-3.91-3.13,0-5.59,1.65-5.59,3.79,0,2.71,2.38,3.54,6.71,4.73,4.61,1.19,10.08,2.88,10.08,9.05,0,5.52-4.65,9.01-11.44,9.01-5.43,0-9.59-2.51-11.68-6.5h0Z"/><path d="M299.85,64.48v4.98h-3.79v6.05h-5.43v-6.05h-13.75v-3.58l11.56-20.78h7.61v19.38h3.8ZM283.22,64.48h7.41v-13.49l-7.41,13.49Z"/><path d="M353.81,62.75v3.31h-2.52v4.02h-3.61v-4.02h-9.14v-2.38l7.69-13.82h5.06v12.88h2.52ZM342.76,62.75h4.93v-8.97l-4.93,8.97Z"/><path d="M359.56,70.08v-16.17l-4.35,2.27v-3.75l5.03-2.57h2.93v20.22h-3.61,0Z"/><path d="M367.93,70.08v-14.99h3.48v1.97h.14c.88-1.48,2.38-2.36,4.08-2.36,1.81,0,3.15.9,3.86,2.63h.14c1.01-1.64,2.6-2.63,4.73-2.63,2.96,0,4.73,2.05,4.73,5.64v9.74h-3.5v-9.03c0-1.94-.9-3.12-2.4-3.12-1.84,0-2.93,1.25-2.93,3.39v8.75h-3.48v-9.03c0-1.94-.93-3.12-2.43-3.12-1.78,0-2.93,1.28-2.93,3.39v8.75h-3.48v.02Z"/><path d="M392.37,70.08v-14.99h3.48v1.97h.14c.88-1.48,2.38-2.36,4.08-2.36,1.81,0,3.15.9,3.86,2.63h.14c1.01-1.64,2.6-2.63,4.73-2.63,2.96,0,4.73,2.05,4.73,5.64v9.74h-3.5v-9.03c0-1.94-.9-3.12-2.4-3.12-1.84,0-2.93,1.25-2.93,3.39v8.75h-3.48v-9.03c0-1.94-.93-3.12-2.43-3.12-1.78,0-2.93,1.28-2.93,3.39v8.75h-3.48v.02Z"/><path d="M430.49,47.65c-1.02-2.25-2.73-3.82-4.93-4.54-1.76-.57-4.3-.62-7.18-.62h-84.6c-2.89,0-5.43.05-7.18.62-2.21.72-3.92,2.29-4.93,4.54-.87,1.91-.93,4.42-.93,7.48v9.77c0,3.06.07,5.56.93,7.47,1.02,2.25,2.73,3.82,4.93,4.54,1.77.57,4.3.62,7.18.62h84.6c2.89,0,5.42-.05,7.18-.62,2.21-.72,3.92-2.29,4.93-4.54.86-1.91.93-4.41.93-7.47v-9.77c0-3.06-.07-5.57-.93-7.48ZM429.05,54.67v10.69c0,2.66-.11,4.68-.62,5.84-.75,1.7-2.04,2.92-3.62,3.43-1.4.46-2.9.54-6.41.54h-84.67c-3.51,0-5-.08-6.41-.54-1.58-.51-2.86-1.72-3.62-3.43-.52-1.16-.62-3.18-.62-5.84v-10.69c0-2.66.11-4.68.62-5.84.76-1.7,2.04-2.92,3.62-3.43,1.4-.46,2.9-.53,6.41-.53h84.67c3.51,0,5,.08,6.41.53,1.58.51,2.86,1.73,3.62,3.43.52,1.16.62,3.18.62,5.84Z"/></svg>