<svg xmlns="http://www.w3.org/2000/svg" viewBox="0 0 100 100" xmlns:v="https://vecta.io/nano"><path fill="#fff" d="M74.5 12.9h-49c-8 0-14.5 6.5-14.5 14.5v33c0 8 6.5 14.5 14.5 14.5h9.2l7.4 10.6c.7 1 1.7 1.6 2.9 1.6s2.3-.6 2.9-1.6l7.4-10.6h19.2c8 0 14.5-6.5 14.5-14.5v-33c0-8-6.5-14.5-14.5-14.5zM55 57.5H28c-1.4 0-2.5-1.1-2.5-2.5s1.1-2.5 2.5-2.5h27c1.4 0 2.5 1.1 2.5 2.5s-1.1 2.5-2.5 2.5zm18-11H28c-1.4 0-2.5-1.1-2.5-2.5s1.1-2.5 2.5-2.5h45c1.4 0 2.5 1.1 2.5 2.5s-1.1 2.5-2.5 2.5zm0-12H28c-1.4 0-2.5-1.1-2.5-2.5s1.1-2.5 2.5-2.5h45c1.4 0 2.5 1.1 2.5 2.5s-1.1 2.5-2.5 2.5z"/></svg>